<?xml version="1.0" standalone="no"?><!DOCTYPE svg PUBLIC "-//W3C//DTD SVG 1.1//EN" "http://www.w3.org/Graphics/SVG/1.1/DTD/svg11.dtd"><svg width="100%" height="100%" viewBox="0 0 396 94" version="1.1" xmlns="http://www.w3.org/2000/svg" xmlns:xlink="http://www.w3.org/1999/xlink" xml:space="preserve" style="fill-rule:evenodd;clip-rule:evenodd;stroke-linejoin:round;stroke-miterlimit:1.41421;"><g id="Layer1"><path d="M262.819,38c-3.749,-11.075 -14.229,-19.047 -26.571,-19.047c-10.873,0 -20.758,0 -20.758,0l0,-18c0,0 9.391,0 21.131,0c12.113,0 23.731,4.812 32.296,13.377c8.565,8.566 13.377,20.183 13.377,32.296c0,0.249 0,0.499 0,0.748c0,12.113 -4.812,23.73 -13.377,32.296c-8.565,8.565 -20.183,13.377 -32.296,13.377c-11.74,0 -21.131,0 -21.131,0l0,-18c0,0 9.885,0 20.758,0c12.342,0 22.822,-7.972 26.571,-19.047l-44.129,0l0,-18l44.129,0ZM69.543,1l-18,0l0,92l18,0l0,-92ZM152.365,19l0,74l-18,0l0,-92l38.227,0c15.624,0 28.29,12.666 28.29,28.29c0,1.006 0,2.015 0,3.022c0,15.624 -12.666,28.29 -28.29,28.29l-13.644,0l0,-18l12.134,0c6.516,0 11.8,-5.283 11.8,-11.8c0,-0.001 0,-0.001 0,-0.002c0,-6.517 -5.284,-11.8 -11.8,-11.8l-18.717,0ZM314.651,93l-18,0l0,-92l18,0l0,74l62.163,0l0,-74l18,0l0,92l-18,0l-62.163,0ZM354.732,1l-18,0l0,68.629l18,0l0,-68.629ZM45.344,81.905c0,0 -3.649,0 -8.839,0c-9.254,0 -18.129,-3.676 -24.673,-10.22c-6.544,-6.544 -10.22,-15.419 -10.22,-24.673c0,-0.056 0,-0.111 0,-0.167c0,-9.254 3.676,-18.129 10.22,-24.673c6.544,-6.544 15.419,-10.22 24.673,-10.22c5.19,0 8.839,0 8.839,0l0,18c0,0 -3.977,0 -8.803,0c-4.49,0 -8.796,1.783 -11.971,4.958c-3.174,3.175 -4.958,7.481 -4.958,11.971c0,0.032 0,0.063 0,0.095c0,4.49 1.784,8.796 4.958,11.971c3.175,3.174 7.481,4.958 11.971,4.958c4.826,0 8.803,0 8.803,0l0,18ZM75.742,81.905l0,-18c0,0 3.976,0 8.803,0c4.49,0 8.796,-1.784 11.971,-4.958c3.174,-3.175 4.958,-7.481 4.958,-11.971c0,-0.032 0,-0.063 0,-0.095c0,-4.49 -1.784,-8.796 -4.958,-11.971c-3.175,-3.175 -7.481,-4.958 -11.971,-4.958c-4.827,0 -8.803,0 -8.803,0l0,-18c0,0 3.649,0 8.839,0c9.254,0 18.129,3.676 24.673,10.22c6.544,6.544 10.22,15.419 10.22,24.673c0,0.056 0,0.111 0,0.167c0,9.254 -3.676,18.129 -10.22,24.673c-6.544,6.544 -15.419,10.22 -24.673,10.22c-5.19,0 -8.839,0 -8.839,0Z" style="fill:#000;"/></g></svg>