<?xml version="1.0" standalone="no"?><!DOCTYPE svg PUBLIC "-//W3C//DTD SVG 1.1//EN" "http://www.w3.org/Graphics/SVG/1.1/DTD/svg11.dtd"><svg width="100%" height="100%" viewBox="0 0 100 202" version="1.1" xmlns="http://www.w3.org/2000/svg" xmlns:xlink="http://www.w3.org/1999/xlink" xml:space="preserve" style="fill-rule:evenodd;clip-rule:evenodd;stroke-linecap:round;stroke-linejoin:round;stroke-miterlimit:1.41421;"><g id="Layer1"><path d="M3.652,135.058l0,-69.03c0,-6.362 5.165,-11.527 11.527,-11.527c6.361,0 11.526,5.165 11.526,11.527l0,52.469" style="fill:none;stroke-width:6px;stroke:#000;"/><path d="M49.759,126.236l0,-25.881c0,-6.361 -5.165,-11.526 -11.527,-11.526c-6.362,0 -11.527,5.165 -11.527,11.526l0,16.924" style="fill:none;stroke-width:6px;stroke:#000;"/><path d="M72.812,100.355c0,-6.361 -5.165,-11.526 -11.526,-11.526c-6.362,0 -11.527,5.165 -11.527,11.526l0,25.881c0,6.362 5.165,11.527 11.527,11.527c6.361,0 11.526,-5.165 11.526,-11.527l0,-25.881Z" style="fill:none;stroke-width:6px;stroke:#000;"/><path d="M95.866,108.052c0,-6.362 -5.165,-11.527 -11.527,-11.527c-6.362,0 -11.527,5.165 -11.527,11.527l0,18.184c0,6.362 5.165,11.527 11.527,11.527c6.362,0 11.527,-5.165 11.527,-11.527l0,-18.184Z" style="fill:none;stroke-width:6px;stroke:#000;"/><path d="M40.818,11.638c0,-4.233 -3.437,-7.671 -7.671,-7.671c-4.233,0 -7.671,3.438 -7.671,7.671l0,12.102c0,4.234 3.438,7.671 7.671,7.671c4.234,0 7.671,-3.437 7.671,-7.671l0,-12.102Z" style="fill:none;stroke-width:6px;stroke:#000;"/><path d="M68.942,11.638c0,-4.233 -3.437,-7.671 -7.671,-7.671c-4.234,0 -7.671,3.438 -7.671,7.671l0,12.102c0,4.234 3.437,7.671 7.671,7.671c4.234,0 7.671,-3.437 7.671,-7.671l0,-12.102Z" style="fill:none;stroke-width:6px;stroke:#000;"/><path d="M8.774,31.411l0.072,-28.171l-5.194,0" style="fill:none;stroke-width:6px;stroke:#000;"/><path d="M86.846,31.411l0.072,-28.171l-5.194,0" style="fill:none;stroke-width:6px;stroke:#000;"/><path d="M95.866,126.46l0,25.852c0,25.447 -20.66,46.107 -46.107,46.107c-25.447,0 -46.107,-20.66 -46.107,-46.107l0,-25.852" style="fill:none;stroke-width:6px;stroke:#000;"/><path d="M35.573,146.584c2.983,2.791 30.17,15.125 16.668,51.769c-0.822,0.044 -1.649,0.066 -2.482,0.066c-25.447,0 -46.107,-20.701 -46.107,-46.148l0,-0.777l-0.018,-0.008c-0.007,-2.634 1.159,-5.29 2.889,-7.536l17.536,-22.763c4.146,-5.382 11.882,-6.386 17.264,-2.239c5.382,4.146 6.386,11.882 2.24,17.264l-7.99,10.372Z" style="fill:none;stroke-width:6px;stroke:#000;"/></g></svg>