<?xml version="1.0" standalone="no"?><!DOCTYPE svg PUBLIC "-//W3C//DTD SVG 1.1//EN" "http://www.w3.org/Graphics/SVG/1.1/DTD/svg11.dtd"><svg width="100%" height="100%" viewBox="0 0 123 197" version="1.1" xmlns="http://www.w3.org/2000/svg" xmlns:xlink="http://www.w3.org/1999/xlink" xml:space="preserve" style="fill-rule:evenodd;clip-rule:evenodd;stroke-linecap:round;stroke-linejoin:round;stroke-miterlimit:1.41421;"><g id="Layer1"><g><path d="M61.324,121.236l0,-52.512" style="fill:none;stroke-width:6px;stroke:#000;"/><path d="M38.271,68.724l0,43.555" style="fill:none;stroke-width:6px;stroke:#000;"/><path d="M84.378,95.355c0,-6.361 -5.165,-11.526 -11.527,-11.526c-6.362,0 -11.527,5.165 -11.527,11.526l0,25.881c0,6.362 5.165,11.527 11.527,11.527c6.362,0 11.527,-5.165 11.527,-11.527l0,-25.881Z" style="fill:none;stroke-width:6px;stroke:#000;"/><path d="M107.432,103.052c0,-6.362 -5.165,-11.527 -11.527,-11.527c-6.362,0 -11.527,5.165 -11.527,11.527l0,18.184c0,6.362 5.165,11.527 11.527,11.527c6.362,0 11.527,-5.165 11.527,-11.527l0,-18.184Z" style="fill:none;stroke-width:6px;stroke:#000;"/><path d="M107.432,121.46l0,25.852c0,25.447 -20.66,46.107 -46.108,46.107c-25.447,0 -46.107,-20.66 -46.107,-46.107l0,-25.852" style="fill:none;stroke-width:6px;stroke:#000;"/><path d="M47.139,141.584c2.983,2.791 30.169,15.125 16.668,51.769c-0.822,0.044 -1.65,0.066 -2.483,0.066c-25.447,0 -46.107,-20.701 -46.107,-46.148l0,-0.777l-0.017,-0.008c-0.008,-2.634 1.159,-5.29 2.889,-7.536l17.535,-22.763c4.146,-5.382 11.882,-6.386 17.264,-2.239c5.383,4.146 6.386,11.882 2.24,17.264l-7.989,10.372Z" style="fill:none;stroke-width:6px;stroke:#000;"/><path d="M61.252,16.836c16.012,0 29.012,17.272 29.012,17.272c0,0 -13,17.271 -29.012,17.271c-16.012,0 -29.012,-17.271 -29.012,-17.271c0,0 13,-17.272 29.012,-17.272Z" style="fill:none;stroke-width:6px;stroke:#000;"/><circle cx="61.252" cy="28.753" r="11.917" style="fill:none;stroke-width:6px;stroke:#000;"/><path d="M38.919,68.743l80.057,0l0,-65.422l-115.449,0l0,65.422l11.133,-0.019" style="fill:none;stroke-width:6px;stroke:#000;"/><path d="M15.217,130.058l0,-69.03c0,-6.362 5.165,-11.527 11.527,-11.527c6.362,0 11.527,5.165 11.527,11.527l0,52.469" style="fill:none;stroke-width:6px;stroke:#000;"/></g></g></svg>