<?xml version="1.0" standalone="no"?><!DOCTYPE svg PUBLIC "-//W3C//DTD SVG 1.1//EN" "http://www.w3.org/Graphics/SVG/1.1/DTD/svg11.dtd"><svg width="100%" height="100%" viewBox="0 0 98 179" version="1.1" xmlns="http://www.w3.org/2000/svg" xmlns:xlink="http://www.w3.org/1999/xlink" xml:space="preserve" style="fill-rule:evenodd;clip-rule:evenodd;stroke-linecap:round;stroke-linejoin:round;stroke-miterlimit:1.41421;"><g id="Layer1"><circle cx="62.313" cy="40" r="4" style="fill:none;stroke-width:3px;stroke:#C8BA8B;"/><path d="M71.178,40c0,0 -3.972,-4 -8.865,-4c-4.894,0 -8.866,4 -8.866,4" style="fill:none;stroke-width:3px;stroke:#C8BA8B;"/><path d="M18.153,126l0,50" style="fill:none;stroke-width:3px;stroke:#C8BA8B;"/><path d="M79.687,126l0,51" style="fill:none;stroke-width:3px;stroke:#C8BA8B;"/><path d="M71.937,2c0,0 0.369,0 0.923,0c1.326,0 2.598,0.527 3.536,1.464c0.938,0.938 1.464,2.21 1.464,3.536c0,10.833 0,37.179 0,58.06c0,15.983 -12.956,28.94 -28.94,28.94c0,0 -0.001,0 -0.001,0c-15.983,0 -28.94,-12.957 -28.94,-28.94c0,-16.197 0,-33.165 0,-33.165c3.788,1.176 7.849,1.812 12.059,1.812c19.418,0 35.702,-13.53 39.899,-31.707Z" style="fill:none;stroke-width:3px;stroke:#C8BA8B;"/><path d="M71.937,2c-4.197,18.177 -20.481,31.707 -39.899,31.707c-4.21,0 -8.271,-0.636 -12.059,-1.812l0,-7.683c3.744,1.473 7.81,2.26 12.059,2.26c15.414,0 28.43,-10.352 32.436,-24.472l7.463,0Z" style="fill:none;stroke-width:3px;stroke:#C8BA8B;"/><path d="M28.739,26.305l3.299,0.167c-1.121,0 -2.228,-0.055 -3.299,-0.167Z" style="fill:none;stroke-width:3px;stroke:#C8BA8B;"/><path d="M32.038,26.472l3.19,-0.162l-0.33,0.042l-2.86,0.12Z" style="fill:none;stroke-width:3px;stroke:#C8BA8B;"/><path d="M36.227,26.184l2.126,-0.325l-0.66,0.14l-1.466,0.185Z" style="fill:none;stroke-width:3px;stroke:#C8BA8B;"/><path d="M25.584,25.838l1.883,0.288l-1.648,-0.232l-0.235,-0.056Z" style="fill:none;stroke-width:3px;stroke:#C8BA8B;"/><path d="M39.468,25.623l1.955,-0.503l-1.011,0.303l-0.944,0.2Z" style="fill:none;stroke-width:3px;stroke:#C8BA8B;"/><path d="M22.643,25.117l1.067,0.275l-0.865,-0.206l-0.202,-0.069Z" style="fill:none;stroke-width:3px;stroke:#C8BA8B;"/><path d="M42.489,24.8l2.028,-0.743l-1.472,0.576l-0.556,0.167Z" style="fill:none;stroke-width:3px;stroke:#C8BA8B;"/><path d="M45.357,23.729l2.713,-1.308c-0.882,0.477 -1.787,0.916 -2.713,1.308Z" style="fill:none;stroke-width:3px;stroke:#C8BA8B;"/><path d="M48.509,22.161l2.129,-1.294l-0.3,0.212l-1.829,1.082Z" style="fill:none;stroke-width:3px;stroke:#C8BA8B;"/><path d="M51.524,20.243l1.533,-1.147l-0.523,0.435l-1.01,0.712Z" style="fill:none;stroke-width:3px;stroke:#C8BA8B;"/><path d="M35.16,18.946c-1.197,0.2 -2.468,0.29 -3.761,0.29c-0.969,0 -1.927,-0.051 -2.909,-0.16l2.909,0.16l3.761,-0.29Z" style="fill:none;stroke-width:3px;stroke:#C8BA8B;"/><path d="M25.642,18.611l1.996,0.335l-1.711,-0.262l-0.285,-0.073Z" style="fill:none;stroke-width:3px;stroke:#C8BA8B;"/><path d="M36.034,18.812l3.54,-0.834c-1.16,0.366 -2.346,0.656 -3.54,0.834Z" style="fill:none;stroke-width:3px;stroke:#C8BA8B;"/><path d="M22.826,17.832l2.004,0.57l-1.506,-0.388l-0.498,-0.182Z" style="fill:none;stroke-width:3px;stroke:#C8BA8B;"/><path d="M53.99,18.32l1.33,-1.208l-0.724,0.705l-0.606,0.503Z" style="fill:none;stroke-width:3px;stroke:#C8BA8B;"/><path d="M39.834,17.882l3.147,-1.269l-1.011,0.487l-2.136,0.782Z" style="fill:none;stroke-width:3px;stroke:#C8BA8B;"/><path d="M19.979,16.69l2.325,0.95l-1.475,-0.54l-0.85,-0.41Z" style="fill:none;stroke-width:3px;stroke:#C8BA8B;"/><path d="M43.691,16.27l3.086,-1.82c-0.978,0.675 -2.001,1.287 -3.086,1.82Z" style="fill:none;stroke-width:3px;stroke:#C8BA8B;"/><path d="M56.213,16.242l1.223,-1.346l-0.921,1.052l-0.302,0.294Z" style="fill:none;stroke-width:3px;stroke:#C8BA8B;"/><path d="M47.036,14.256l2.65,-2.145l-1.01,0.918l-1.64,1.227Z" style="fill:none;stroke-width:3px;stroke:#C8BA8B;"/><path d="M58.225,13.995l1.665,-2.225c-0.524,0.765 -1.079,1.508 -1.665,2.225Z" style="fill:none;stroke-width:3px;stroke:#C8BA8B;"/><path d="M50.105,11.73l2.515,-2.732c-0.762,0.957 -1.587,1.861 -2.515,2.732Z" style="fill:none;stroke-width:3px;stroke:#C8BA8B;"/><path d="M60.728,10.435l0.698,-1.148l-0.112,0.215l-0.586,0.933Z" style="fill:none;stroke-width:3px;stroke:#C8BA8B;"/><path d="M52.73,8.85l2.112,-3.107l-0.918,1.511l-1.194,1.596Z" style="fill:none;stroke-width:3px;stroke:#C8BA8B;"/><path d="M62.251,7.703l0.475,-0.986l-0.164,0.388l-0.311,0.598Z" style="fill:none;stroke-width:3px;stroke:#C8BA8B;"/><path d="M54.939,5.584l1.725,-3.584l-0.234,0.639c-0.428,1.013 -0.916,1.994 -1.491,2.945Z" style="fill:none;stroke-width:3px;stroke:#C8BA8B;"/><path d="M63.491,4.905l0.275,-0.753l-0.147,0.45l-0.128,0.303Z" style="fill:none;stroke-width:3px;stroke:#C8BA8B;"/><path d="M35.228,26.31l0.999,-0.126l-0.739,0.113l-0.26,0.013Z" style="fill:none;stroke-width:3px;stroke:#C8BA8B;"/><path d="M27.467,26.126l1.272,0.179l-0.152,-0.008l-1.12,-0.171Z" style="fill:none;stroke-width:3px;stroke:#C8BA8B;"/><path d="M38.353,25.859l1.115,-0.236l-0.629,0.162l-0.486,0.074Z" style="fill:none;stroke-width:3px;stroke:#C8BA8B;"/><path d="M23.71,25.392l1.874,0.446l-0.348,-0.053l-1.526,-0.393Z" style="fill:none;stroke-width:3px;stroke:#C8BA8B;"/><path d="M41.423,25.12l1.066,-0.32l-0.416,0.152l-0.65,0.168Z" style="fill:none;stroke-width:3px;stroke:#C8BA8B;"/><path d="M44.517,24.057l0.84,-0.328l-0.182,0.087l-0.658,0.241Z" style="fill:none;stroke-width:3px;stroke:#C8BA8B;"/><path d="M48.07,22.421l0.439,-0.26l-0.383,0.233l-0.056,0.027Z" style="fill:none;stroke-width:3px;stroke:#C8BA8B;"/><path d="M50.638,20.867l0.886,-0.624l-0.614,0.459l-0.272,0.165Z" style="fill:none;stroke-width:3px;stroke:#C8BA8B;"/><path d="M53.057,19.096l0.933,-0.776l-0.48,0.437l-0.453,0.339Z" style="fill:none;stroke-width:3px;stroke:#C8BA8B;"/><path d="M27.638,18.946l0.852,0.13l-0.112,-0.007l-0.74,-0.123Z" style="fill:none;stroke-width:3px;stroke:#C8BA8B;"/><path d="M35.16,18.946l0.874,-0.134l-0.417,0.098l-0.457,0.036Z" style="fill:none;stroke-width:3px;stroke:#C8BA8B;"/><path d="M24.83,18.402l0.812,0.209l-0.188,-0.032l-0.624,-0.177Z" style="fill:none;stroke-width:3px;stroke:#C8BA8B;"/><path d="M39.574,17.978l0.26,-0.096l-0.203,0.082l-0.057,0.014Z" style="fill:none;stroke-width:3px;stroke:#C8BA8B;"/><path d="M22.304,17.64l0.522,0.192l-0.178,-0.051l-0.344,-0.141Z" style="fill:none;stroke-width:3px;stroke:#C8BA8B;"/><path d="M55.32,17.112l0.893,-0.87l-0.305,0.336l-0.588,0.534Z" style="fill:none;stroke-width:3px;stroke:#C8BA8B;"/><path d="M42.981,16.613l0.71,-0.343l-0.299,0.177l-0.411,0.166Z" style="fill:none;stroke-width:3px;stroke:#C8BA8B;"/><path d="M57.436,14.896l0.789,-0.901l-0.137,0.184l-0.652,0.717Z" style="fill:none;stroke-width:3px;stroke:#C8BA8B;"/><path d="M46.777,14.45l0.259,-0.194l-0.187,0.151l-0.072,0.043Z" style="fill:none;stroke-width:3px;stroke:#C8BA8B;"/><path d="M49.686,12.111l0.419,-0.381l-0.15,0.164l-0.269,0.217Z" style="fill:none;stroke-width:3px;stroke:#C8BA8B;"/><path d="M59.89,11.77l0.838,-1.335l-0.696,1.145l-0.142,0.19Z" style="fill:none;stroke-width:3px;stroke:#C8BA8B;"/><path d="M61.426,9.287l0.825,-1.584l-0.527,1.093l-0.298,0.491Z" style="fill:none;stroke-width:3px;stroke:#C8BA8B;"/><path d="M52.62,8.998l0.11,-0.148l-0.072,0.106l-0.038,0.042Z" style="fill:none;stroke-width:3px;stroke:#C8BA8B;"/><path d="M62.726,6.717l0.765,-1.812l-0.344,0.94l-0.421,0.872Z" style="fill:none;stroke-width:3px;stroke:#C8BA8B;"/><path d="M54.842,5.743l0.097,-0.159l-0.027,0.058l-0.07,0.101Z" style="fill:none;stroke-width:3px;stroke:#C8BA8B;"/><path d="M32.038,26.472l-3.299,-0.167l-1.272,-0.179l-1.883,-0.288l-1.874,-0.446l-1.067,-0.275l-2.664,-0.905l0,-7.522l0.85,0.41l1.475,0.54l0.344,0.141l0.178,0.051l0.498,0.182l1.506,0.388l0.624,0.177l0.188,0.032l0.285,0.073l1.711,0.262l0.74,0.123l0.112,0.007c0.982,0.109 1.94,0.16 2.909,0.16c1.293,0 2.564,-0.09 3.761,-0.29l0.457,-0.036l0.417,-0.098c1.203,-0.205 2.38,-0.489 3.54,-0.834l0.057,-0.014l0.203,-0.082l2.136,-0.782l1.011,-0.487l0.411,-0.166l0.299,-0.177c1.066,-0.538 2.092,-1.146 3.086,-1.82l0.072,-0.043l0.187,-0.151l1.64,-1.227l1.01,-0.918l0.269,-0.217l0.15,-0.164c0.894,-0.846 1.729,-1.751 2.515,-2.732l0.038,-0.042l0.072,-0.106l1.194,-1.596l0.918,-1.511l0.07,-0.101l0.027,-0.058c0.664,-1.139 1.244,-2.33 1.725,-3.584l7.81,0l-0.708,2.152l-0.275,0.753l-0.765,1.812l-0.475,0.986l-0.825,1.584l-0.698,1.148l-0.838,1.335l-1.665,2.225l-0.789,0.901l-1.223,1.346l-0.893,0.87l-1.33,1.208l-0.933,0.776l-1.533,1.147l-0.886,0.624l-2.129,1.294l-0.439,0.26l-2.713,1.308l-0.84,0.328l-2.028,0.743l-1.066,0.32l-1.955,0.503l-1.115,0.236l-2.126,0.325l-0.999,0.126l-3.19,0.162Z" style="fill:none;stroke-width:3px;stroke:#C8BA8B;"/><path d="M27.638,18.946l0.852,0.13l-0.112,-0.007l-0.74,-0.123Z" style="fill:none;stroke-width:3px;stroke:#C8BA8B;"/><path d="M35.16,18.946l0.848,-0.13l0.026,-0.004l-0.417,0.098l-0.457,0.036Z" style="fill:none;stroke-width:3px;stroke:#C8BA8B;"/><path d="M24.83,18.402l0.812,0.209l-0.188,-0.032l-0.624,-0.177Z" style="fill:none;stroke-width:3px;stroke:#C8BA8B;"/><path d="M39.574,17.978l0.26,-0.096l-0.203,0.082l-0.057,0.014Z" style="fill:none;stroke-width:3px;stroke:#C8BA8B;"/><path d="M22.304,17.64l0.522,0.192l-0.178,-0.051l-0.344,-0.141Z" style="fill:none;stroke-width:3px;stroke:#C8BA8B;"/><path d="M42.981,16.613l0.71,-0.343l-0.299,0.177l-0.411,0.166Z" style="fill:none;stroke-width:3px;stroke:#C8BA8B;"/><path d="M46.777,14.45l0.259,-0.194l-0.187,0.151l-0.072,0.043Z" style="fill:none;stroke-width:3px;stroke:#C8BA8B;"/><path d="M49.686,12.111l0.419,-0.381l-0.15,0.164l-0.269,0.217Z" style="fill:none;stroke-width:3px;stroke:#C8BA8B;"/><path d="M30.179,12.001l2.532,-0.166l-0.208,0.032l-0.163,0.025l-2.161,0.109Z" style="fill:none;stroke-width:3px;stroke:#C8BA8B;"/><path d="M27.691,11.842l2.488,0.159c-0.861,0 -1.709,-0.051 -2.488,-0.159Z" style="fill:none;stroke-width:3px;stroke:#C8BA8B;"/><path d="M25.236,11.395l1.717,0.334l-1.035,-0.158l-0.682,-0.176Z" style="fill:none;stroke-width:3px;stroke:#C8BA8B;"/><path d="M33.459,11.721l1.757,-0.35l-0.777,0.2l-0.98,0.15Z" style="fill:none;stroke-width:3px;stroke:#C8BA8B;"/><path d="M22.702,10.614l1.785,0.589l-0.596,-0.154l-1.189,-0.435Z" style="fill:none;stroke-width:3px;stroke:#C8BA8B;"/><path d="M35.968,11.178l1.922,-0.65l-1.424,0.521l-0.498,0.129Z" style="fill:none;stroke-width:3px;stroke:#C8BA8B;"/><path d="M19.979,9.373l2.235,1.062c-0.758,-0.306 -1.495,-0.656 -2.235,-1.062Z" style="fill:none;stroke-width:3px;stroke:#C8BA8B;"/><path d="M38.273,10.388l2.21,-1.078c-0.71,0.4 -1.445,0.76 -2.21,1.078Z" style="fill:none;stroke-width:3px;stroke:#C8BA8B;"/><path d="M40.871,9.074l1.703,-1.116l-0.091,0.068l-0.481,0.361l-1.131,0.687Z" style="fill:none;stroke-width:3px;stroke:#C8BA8B;"/><path d="M52.62,8.998l0.11,-0.148l-0.072,0.106l-0.038,0.042Z" style="fill:none;stroke-width:3px;stroke:#C8BA8B;"/><path d="M43.013,7.63l1.693,-1.439l-1.076,0.977l-0.617,0.462Z" style="fill:none;stroke-width:3px;stroke:#C8BA8B;"/><path d="M44.846,6.063c1.267,-1.225 2.361,-2.583 3.279,-4.063l-0.408,0.672c-0.836,1.236 -1.799,2.38 -2.871,3.391Z" style="fill:none;stroke-width:3px;stroke:#C8BA8B;"/><path d="M54.842,5.743l0.097,-0.159l-0.027,0.058l-0.07,0.101Z" style="fill:none;stroke-width:3px;stroke:#C8BA8B;"/><path d="M34.175,19.096l0.985,-0.15l-0.985,0.15Z" style="fill:none;stroke-width:3px;stroke:#C8BA8B;"/><path d="M25.897,18.676l-0.255,-0.065l0.255,0.065Z" style="fill:none;stroke-width:3px;stroke:#C8BA8B;"/><path d="M49.309,12.454l0.377,-0.343c0,0 -0.377,0.343 -0.377,0.343Z" style="fill:none;stroke-width:3px;stroke:#C8BA8B;"/><path d="M27.691,11.842l-0.738,-0.113l0.738,0.113Z" style="fill:none;stroke-width:3px;stroke:#C8BA8B;"/><path d="M32.711,11.835l0.748,-0.114l-0.748,0.114Z" style="fill:none;stroke-width:3px;stroke:#C8BA8B;"/><path d="M22.702,10.614l-0.488,-0.179l0.488,0.179Z" style="fill:none;stroke-width:3px;stroke:#C8BA8B;"/><path d="M44.706,6.191l0.14,-0.128l-0.14,0.128Z" style="fill:none;stroke-width:3px;stroke:#C8BA8B;"/><path d="M54.939,5.584l0.347,-0.57l-0.347,0.57Z" style="fill:none;stroke-width:3px;stroke:#C8BA8B;"/><path d="M25.642,18.611l-0.812,-0.209l0.812,0.209Z" style="fill:none;stroke-width:3px;stroke:#C8BA8B;"/><path d="M39.46,18.004l0.527,-0.184l-0.153,0.062l-0.26,0.096l-0.114,0.026Z" style="fill:none;stroke-width:3px;stroke:#C8BA8B;"/><path d="M46.584,14.563l0.522,-0.363l-0.07,0.056l-0.259,0.194l-0.193,0.113Z" style="fill:none;stroke-width:3px;stroke:#C8BA8B;"/><path d="M32.725,11.834l-0.385,0.058l-2.161,0.109c-0.861,0 -1.709,-0.051 -2.488,-0.159c0.779,0.108 1.627,0.159 2.488,0.159c0.86,0 1.708,-0.051 2.532,-0.166l0.014,-0.001Z" style="fill:none;stroke-width:3px;stroke:#C8BA8B;"/><path d="M33.389,11.735l0.07,-0.014l0.916,-0.14l-0.065,0.016l-0.921,0.138Z" style="fill:none;stroke-width:3px;stroke:#C8BA8B;"/><path d="M26.953,11.729l-1.035,-0.158l1.035,0.158Z" style="fill:none;stroke-width:3px;stroke:#C8BA8B;"/><path d="M35.247,11.365l-0.187,0.046l0.156,-0.04l0.031,-0.006Z" style="fill:none;stroke-width:3px;stroke:#C8BA8B;"/><path d="M35.869,11.211l0.099,-0.033l0.329,-0.085l-0.08,0.032l-0.348,0.086Z" style="fill:none;stroke-width:3px;stroke:#C8BA8B;"/><path d="M22.214,10.435l-0.266,-0.097c-0.633,-0.268 -1.251,-0.566 -1.849,-0.891l2.115,0.988Z" style="fill:none;stroke-width:3px;stroke:#C8BA8B;"/><path d="M39.287,9.893l0.828,-0.404l-0.309,0.196l-0.519,0.208Z" style="fill:none;stroke-width:3px;stroke:#C8BA8B;"/><path d="M52.548,9.076l0.136,-0.164l-0.064,0.086l-0.072,0.078Z" style="fill:none;stroke-width:3px;stroke:#C8BA8B;"/><path d="M42.895,7.73l0.118,-0.1l0.185,-0.138l-0.163,0.15l-0.14,0.088Z" style="fill:none;stroke-width:3px;stroke:#C8BA8B;"/><path d="M54.895,5.656l0.063,-0.112l-0.019,0.04l-0.044,0.072Z" style="fill:none;stroke-width:3px;stroke:#C8BA8B;"/><path d="M45.376,5.488l0.779,-0.845l-0.321,0.424l-0.458,0.421Z" style="fill:none;stroke-width:3px;stroke:#C8BA8B;"/><path d="M47.698,2.605l0.427,-0.605l0.024,0l-0.015,0.03l-0.436,0.575Z" style="fill:none;stroke-width:3px;stroke:#C8BA8B;"/><path d="M31.399,19.236c-1.978,0 -3.907,-0.212 -5.757,-0.625l1.996,0.335l0.852,0.13l2.909,0.16Z" style="fill:none;stroke-width:3px;stroke:#C8BA8B;"/><path d="M31.399,19.236l3.761,-0.29l0.874,-0.134l3.426,-0.808c-1.723,0.547 -3.478,0.908 -5.285,1.092l-2.776,0.14Z" style="fill:none;stroke-width:3px;stroke:#C8BA8B;"/><path d="M39.987,17.82l2.994,-1.207l0.71,-0.343l2.893,-1.707c-2.023,1.387 -4.249,2.501 -6.597,3.257Z" style="fill:none;stroke-width:3px;stroke:#C8BA8B;"/><path d="M47.106,14.2l2.58,-2.089l0.419,-0.381l2.443,-2.654c-1.567,1.958 -3.4,3.692 -5.442,5.124Z" style="fill:none;stroke-width:3px;stroke:#C8BA8B;"/><path d="M26.953,11.729l0.738,0.113l-0.235,-0.015l-0.503,-0.098Z" style="fill:none;stroke-width:3px;stroke:#C8BA8B;"/><path d="M32.725,11.834l0.664,-0.099l-0.419,0.083l-0.245,0.016Z" style="fill:none;stroke-width:3px;stroke:#C8BA8B;"/><path d="M34.375,11.581l0.685,-0.17l-0.621,0.16l-0.064,0.01Z" style="fill:none;stroke-width:3px;stroke:#C8BA8B;"/><path d="M25.236,11.395l-0.401,-0.077l-0.348,-0.115l0.749,0.192Z" style="fill:none;stroke-width:3px;stroke:#C8BA8B;"/><path d="M35.247,11.365l0.622,-0.154l-0.217,0.073l-0.405,0.081Z" style="fill:none;stroke-width:3px;stroke:#C8BA8B;"/><path d="M36.297,11.093l2.99,-1.2l-1.014,0.495l-0.073,0.035l-0.31,0.105l-1.424,0.521l-0.169,0.044Z" style="fill:none;stroke-width:3px;stroke:#C8BA8B;"/><path d="M22.214,10.435l0.488,0.179l-0.366,-0.121l-0.122,-0.058Z" style="fill:none;stroke-width:3px;stroke:#C8BA8B;"/><path d="M40.115,9.489l2.78,-1.759l-0.091,0.078l-0.23,0.15l-0.572,0.429l-1.131,0.687l-0.279,0.183l-0.109,0.053l-0.368,0.179Z" style="fill:none;stroke-width:3px;stroke:#C8BA8B;"/><path d="M52.684,8.912l0.046,-0.062l2.112,-3.107l0.053,-0.087c-0.662,1.148 -1.405,2.242 -2.211,3.256Z" style="fill:none;stroke-width:3px;stroke:#C8BA8B;"/><path d="M43.198,7.492l2.178,-2.004l-0.53,0.575l-0.034,0.038l-0.106,0.09l-1.076,0.977l-0.432,0.324Z" style="fill:none;stroke-width:3px;stroke:#C8BA8B;"/><path d="M46.155,4.643l1.543,-2.038l-1.093,1.549l-0.45,0.489Z" style="fill:none;stroke-width:3px;stroke:#C8BA8B;"/><path d="M39.46,18.004l-3.426,0.808l-0.874,0.134l-3.761,0.29l-2.909,-0.16l-0.852,-0.13l-1.996,-0.335l-0.812,-0.209l-2.004,-0.57l-0.522,-0.192l-2.325,-0.95l0,-7.317l0.12,0.074c0.668,0.363 1.357,0.691 2.115,0.988l0.122,0.058l0.366,0.121l1.189,0.435l0.596,0.154l0.348,0.115l0.401,0.077l0.682,0.176l1.035,0.158l0.503,0.098l0.235,0.015c0.779,0.108 1.627,0.159 2.488,0.159l2.161,-0.109l0.385,-0.058l0.245,-0.016l0.419,-0.083l0.921,-0.138l0.065,-0.016l0.064,-0.01l0.621,-0.16l0.187,-0.046l0.405,-0.081l0.217,-0.073l0.348,-0.086l0.08,-0.032l0.169,-0.044l1.424,-0.521l0.31,-0.105l0.073,-0.035l1.014,-0.495l0.519,-0.208l0.309,-0.196l0.368,-0.179l0.109,-0.053l0.279,-0.183l1.131,-0.687l0.572,-0.429l0.23,-0.15l0.091,-0.078l0.14,-0.088l0.163,-0.15l0.432,-0.324l1.076,-0.977l0.106,-0.09l0.034,-0.038l0.53,-0.575l0.458,-0.421l0.321,-0.424l0.45,-0.489l1.093,-1.549l0.436,-0.575l0.015,-0.03l8.515,0l-1.706,3.544l-0.063,0.112l-0.053,0.087l-2.112,3.107l-0.046,0.062l-0.136,0.164l-2.443,2.654l-0.419,0.381l-2.58,2.089l-0.522,0.363l-2.893,1.707l-0.71,0.343l-2.994,1.207l-0.527,0.184Z" style="fill:none;stroke-width:3px;stroke:#C8BA8B;"/><path d="M26.953,11.729l0.738,0.113l-0.235,-0.015l-0.503,-0.098Z" style="fill:none;stroke-width:3px;stroke:#C8BA8B;"/><path d="M32.711,11.835l0.748,-0.114l-0.489,0.097l-0.259,0.017Z" style="fill:none;stroke-width:3px;stroke:#C8BA8B;"/><path d="M24.487,11.203l0.749,0.192l-0.401,-0.077l-0.348,-0.115Z" style="fill:none;stroke-width:3px;stroke:#C8BA8B;"/><path d="M35.216,11.371l0.654,-0.168l0.098,-0.025l-0.316,0.106l-0.436,0.087Z" style="fill:none;stroke-width:3px;stroke:#C8BA8B;"/><path d="M22.214,10.435l0.488,0.179l-0.366,-0.121l-0.122,-0.058Z" style="fill:none;stroke-width:3px;stroke:#C8BA8B;"/><path d="M37.89,10.528l0.383,-0.14l-0.073,0.035l-0.31,0.105Z" style="fill:none;stroke-width:3px;stroke:#C8BA8B;"/><path d="M40.483,9.31l0.388,-0.236l-0.279,0.183l-0.109,0.053Z" style="fill:none;stroke-width:3px;stroke:#C8BA8B;"/><path d="M42.574,7.958l0.439,-0.328l-0.209,0.178l-0.23,0.15Z" style="fill:none;stroke-width:3px;stroke:#C8BA8B;"/><path d="M44.706,6.191l0.14,-0.128l-0.034,0.038l-0.106,0.09Z" style="fill:none;stroke-width:3px;stroke:#C8BA8B;"/><path d="M36.716,10.925l2.571,-1.032l-1.014,0.495l-0.383,0.14l-1.174,0.397Z" style="fill:none;stroke-width:3px;stroke:#C8BA8B;"/><path d="M40.115,9.489l2.676,-1.693l-0.217,0.162l-1.703,1.116l-0.388,0.236l-0.368,0.179Z" style="fill:none;stroke-width:3px;stroke:#C8BA8B;"/><path d="M43.47,7.242l1.88,-1.73l-0.504,0.551l-0.14,0.128l-1.236,1.051Z" style="fill:none;stroke-width:3px;stroke:#C8BA8B;"/><path d="M46.205,4.578l1.457,-1.925l-1.046,1.474l-0.411,0.451Z" style="fill:none;stroke-width:3px;stroke:#C8BA8B;"/><path d="M39.287,9.893l0.519,-0.208l-0.519,0.208Z" style="fill:none;stroke-width:3px;stroke:#C8BA8B;"/><path d="M42.791,7.796l0.244,-0.154l-0.244,0.154Z" style="fill:none;stroke-width:3px;stroke:#C8BA8B;"/><path d="M36.716,10.925l2.571,-1.032l-2.571,1.032Z" style="fill:none;stroke-width:3px;stroke:#C8BA8B;"/><path d="M30.179,12.001l2.532,-0.166l0.748,-0.114l1.757,-0.35l0.752,-0.193l0.748,-0.253l-0.499,0.2c-1.238,0.37 -2.539,0.631 -3.877,0.767l-2.161,0.109Z" style="fill:none;stroke-width:3px;stroke:#C8BA8B;"/><path d="M39.287,9.893l-2.571,1.032l-0.748,0.253l-0.752,0.193l-1.757,0.35l-0.748,0.114l-2.532,0.166l-2.488,-0.159l-0.738,-0.113l-1.717,-0.334l-0.749,-0.192l-1.785,-0.589l-0.488,-0.179l-2.235,-1.062c0,0 0,-1.058 0,-2.373c0,-2.761 2.238,-5 5,-5c8.088,0 23.146,0 23.146,0l-0.463,0.653l-1.457,1.925l-0.855,0.934l-1.88,1.73l-0.457,0.388l-0.222,0.166l-2.676,1.693l-0.828,0.404Z" style="fill:none;stroke-width:3px;stroke:#C8BA8B;"/><path d="M26.661,38.53l14.47,0l-7.235,4.824" style="fill:none;stroke-width:3px;stroke:#C8BA8B;"/><path d="M43.839,50.948l5.081,1.693l5.08,-1.693" style="fill:none;stroke-width:3px;stroke:#C8BA8B;"/><path d="M39.273,65.059l2.411,-2.412l7.236,2.412l7.235,-2.412l2.412,2.412" style="fill:none;stroke-width:3px;stroke:#C8BA8B;"/><path d="M19.979,38.76l0,23.658c-4.758,-1.822 -8.14,-6.434 -8.14,-11.829c0,-5.395 3.382,-10.007 8.14,-11.829ZM77.86,62.418l0,-23.658c4.758,1.822 8.14,6.434 8.14,11.829c0,5.395 -3.382,10.007 -8.14,11.829Z" style="fill:none;stroke-width:3px;stroke:#C8BA8B;"/><path d="M29.034,86c-7.213,0 -14.13,2.865 -19.23,7.965c-5.1,5.1 -7.965,12.017 -7.965,19.229c0,26.494 0,59.806 0,59.806" style="fill:none;stroke-width:3px;stroke:#C8BA8B;"/><path d="M96,175c0,0 0,-35.312 0,-61.806c0,-7.212 -2.865,-14.129 -7.965,-19.229c-5.1,-5.1 -12.017,-7.965 -19.229,-7.965" style="fill:none;stroke-width:3px;stroke:#C8BA8B;"/><path d="M28,86l18,26" style="fill:none;stroke-width:3px;stroke:#C8BA8B;"/><path d="M69.839,86l-18,26" style="fill:none;stroke-width:3px;stroke:#C8BA8B;"/><rect x="44" y="118" width="9.839" height="8" style="fill:none;stroke-width:3px;stroke:#C8BA8B;"/><path d="M51.839,114.901c0,-0.77 -0.305,-1.507 -0.849,-2.051c-0.544,-0.544 -1.282,-0.85 -2.052,-0.85c-0.012,0 -0.025,0 -0.037,0c-0.77,0 -1.507,0.306 -2.051,0.85c-0.544,0.544 -0.85,1.281 -0.85,2.051c0,1.532 0,3.099 0,3.099l5.839,0c0,0 0,-1.567 0,-3.099Z" style="fill:none;stroke-width:3px;stroke:#C8BA8B;"/><path d="M2,134l16.161,4" style="fill:none;stroke-width:3px;stroke:#C8BA8B;"/><path d="M96,134l-16.161,4" style="fill:none;stroke-width:3px;stroke:#C8BA8B;"/></g></svg>