<?xml version="1.0" standalone="no"?><!DOCTYPE svg PUBLIC "-//W3C//DTD SVG 1.1//EN" "http://www.w3.org/Graphics/SVG/1.1/DTD/svg11.dtd"><svg width="100%" height="100%" viewBox="0 0 98 180" version="1.1" xmlns="http://www.w3.org/2000/svg" xmlns:xlink="http://www.w3.org/1999/xlink" xml:space="preserve" style="fill-rule:evenodd;clip-rule:evenodd;stroke-linecap:round;stroke-linejoin:round;stroke-miterlimit:1.41421;"><g id="Layer1"><path d="M83,75c0,13.153 -22,35 -33,35c-11,0 -33,-21.847 -33,-35l-2,-38c0,-19.317 15.683,-35 35,-35c19.317,0 35,15.683 35,35l-2,38Z" style="fill:none;stroke-width:3px;stroke:#C8BA8B;"/><path d="M15.755,51.346l1.134,21.537c-5.309,-0.781 -9.389,-5.359 -9.389,-10.883c0,-5.123 3.51,-9.433 8.255,-10.654ZM83.111,72.883l1.134,-21.537c4.745,1.221 8.255,5.531 8.255,10.654c0,5.524 -4.08,10.102 -9.389,10.883Z" style="fill:none;stroke-width:3px;stroke:#C8BA8B;"/><circle cx="13.5" cy="75.5" r="3.5" style="fill:none;stroke-width:3px;stroke:#C8BA8B;"/><circle cx="86.5" cy="75.5" r="3.5" style="fill:none;stroke-width:3px;stroke:#C8BA8B;"/><path d="M47,74l6,0" style="fill:none;stroke-width:3px;stroke:#C8BA8B;"/><path d="M40,90l20,0" style="fill:none;stroke-width:3px;stroke:#C8BA8B;"/><path d="M77,58c0,-2.208 -1.792,-4 -4,-4l-46,0c-2.208,0 -4,1.792 -4,4c0,2.208 1.792,4 4,4l46,0c2.208,0 4,-1.792 4,-4Z" style="fill:none;stroke-width:3px;stroke:#C8BA8B;"/><path d="M18.233,128l0,43" style="fill:none;stroke-width:3px;stroke:#C8BA8B;"/><path d="M79.767,128l0,47" style="fill:none;stroke-width:3px;stroke:#C8BA8B;"/><path d="M22.164,89c-4.606,1.218 -8.853,3.635 -12.279,7.062c-5.1,5.1 -7.965,12.017 -7.965,19.229c0,26.494 0,51.709 0,51.709" style="fill:none;stroke-width:3px;stroke:#C8BA8B;"/><path d="M96.08,171c0,0 0,-29.215 0,-55.709c0,-7.212 -2.865,-14.129 -7.965,-19.229c-2.928,-2.929 -6.456,-5.12 -10.294,-6.456" style="fill:none;stroke-width:3px;stroke:#C8BA8B;"/><path d="M49,178l0,-56" style="fill:none;stroke-width:3px;stroke:#C8BA8B;"/><rect x="46" y="110" width="6" height="12" style="fill:none;stroke-width:3px;stroke:#C8BA8B;"/></g></svg>