<?xml version="1.0" standalone="no"?><!DOCTYPE svg PUBLIC "-//W3C//DTD SVG 1.1//EN" "http://www.w3.org/Graphics/SVG/1.1/DTD/svg11.dtd"><svg width="100%" height="100%" viewBox="0 0 124 182" version="1.1" xmlns="http://www.w3.org/2000/svg" xmlns:xlink="http://www.w3.org/1999/xlink" xml:space="preserve" style="fill-rule:evenodd;clip-rule:evenodd;stroke-linecap:round;stroke-linejoin:round;stroke-miterlimit:1.41421;"><g id="Layer1"><path d="M91.494,34.482c0,-6.342 -5.14,-11.482 -11.481,-11.482c-10.644,0 -26.394,0 -37.037,0c-6.341,0 -11.482,5.14 -11.482,11.482c0,9.751 0,24.113 0,36.613c0,6.87 2.729,13.459 7.588,18.318c4.858,4.858 11.447,7.587 18.317,7.587c2.715,0 5.475,0 8.19,0c6.87,0 13.46,-2.729 18.318,-7.587c4.858,-4.859 7.587,-11.448 7.587,-18.318c0,-12.5 0,-26.862 0,-36.613Z" style="fill:none;stroke-width:3px;stroke:#C8BA8B;"/><path d="M66.326,70l-4.832,1l-4.831,-1" style="fill:none;stroke-width:3px;stroke:#C8BA8B;"/><path d="M51.494,80l10,1l10,-1" style="fill:none;stroke-width:3px;stroke:#C8BA8B;"/><path d="M56.663,85l9.663,0" style="fill:none;stroke-width:3px;stroke:#C8BA8B;"/><circle cx="45.494" cy="54" r="4" style="fill:none;stroke-width:3px;stroke:#C8BA8B;"/><circle cx="77.494" cy="54" r="4" style="fill:none;stroke-width:3px;stroke:#C8BA8B;"/><path d="M54.36,50l-17.732,0" style="fill:none;stroke-width:3px;stroke:#C8BA8B;"/><path d="M86.36,54c0,0 -3.973,-4 -8.866,-4c-4.893,0 -8.866,4 -8.866,4" style="fill:none;stroke-width:3px;stroke:#C8BA8B;"/><path d="M27.834,124l0,56" style="fill:none;stroke-width:3px;stroke:#C8BA8B;"/><path d="M96.166,124l0,56" style="fill:none;stroke-width:3px;stroke:#C8BA8B;"/><path d="M90,81c0,0 0.355,0.004 0.99,0.01c17.178,0.18 31.01,14.157 31.01,31.337c0,26.934 0,61.653 0,61.653" style="fill:none;stroke-width:3px;stroke:#C8BA8B;"/><path d="M2,174c0,0 0,-34.728 0,-61.664c0,-17.175 13.825,-31.151 31,-31.336c0,0 0,0 0,0" style="fill:none;stroke-width:3px;stroke:#C8BA8B;"/><path d="M27.494,48c0,0 0,-2.436 0,-20.212c0,-14.242 11.546,-25.788 25.788,-25.788l16.424,0c14.243,0 25.788,11.546 25.788,25.788c0,17.776 0,20.212 0,20.212" style="fill:none;stroke-width:3px;stroke:#C8BA8B;"/><path d="M62,9.882c6.21,3.401 11.798,7.797 16.549,12.973" style="fill:none;stroke-width:3px;stroke:#C8BA8B;"/><path d="M59.177,15.04c3.95,2.154 7.623,4.754 10.95,7.735" style="fill:none;stroke-width:3px;stroke:#C8BA8B;"/><path d="M44.425,15.625c5.754,1.476 11.126,3.917 15.932,7.144" style="fill:none;stroke-width:3px;stroke:#C8BA8B;"/><path d="M31.494,45.09l0,21.82c-4.129,-1.897 -7,-6.071 -7,-10.91c0,-4.839 2.871,-9.013 7,-10.91ZM91.494,66.91l0,-21.82c4.13,1.897 7,6.071 7,10.91c0,4.839 -2.87,9.013 -7,10.91Z" style="fill:none;stroke-width:3px;stroke:#C8BA8B;"/><path d="M68.006,132l10.554,14.336l-1.972,17.692l-17.692,1.972l-14.336,-10.554l7.138,-16.308l16.308,-7.138Z" style="fill:none;stroke-width:3px;stroke:#C8BA8B;"/><path d="M44.56,164.951l-9.249,-6.809l4.605,-10.522" style="fill:none;stroke-width:3px;stroke:#C8BA8B;"/><path d="M82.203,135.643l4.857,7.617l-0.213,9.714" style="fill:none;stroke-width:3px;stroke:#C8BA8B;"/><path d="M63.051,150.491l4.955,-18.491" style="fill:none;stroke-width:3px;stroke:#C8BA8B;"/><path d="M76.588,164.028l-13.537,-13.537" style="fill:none;stroke-width:3px;stroke:#C8BA8B;"/><path d="M63.051,150.491l-18.491,4.955" style="fill:none;stroke-width:3px;stroke:#C8BA8B;"/><path d="M49.494,96l12,12l12,-12" style="fill:none;stroke-width:3px;stroke:#C8BA8B;"/><path d="M61.494,108l-8,8l-14,-26" style="fill:none;stroke-width:3px;stroke:#C8BA8B;"/><path d="M61.494,108l8,8l14,-26" style="fill:none;stroke-width:3px;stroke:#C8BA8B;"/></g></svg>