<?xml version="1.0" encoding="UTF-8" standalone="no"?>
<svg width="16px" height="14px" viewBox="0 0 16 14" version="1.1" xmlns="http://www.w3.org/2000/svg" xmlns:xlink="http://www.w3.org/1999/xlink" xmlns:sketch="http://www.bohemiancoding.com/sketch/ns">
    <!-- Generator: Sketch 3.3.2 (12043) - http://www.bohemiancoding.com/sketch -->
    <title>twitter copy 2</title>
    <desc>Created with Sketch.</desc>
    <defs></defs>
    <g id="Page-1" stroke="none" stroke-width="1" fill="none" fill-rule="evenodd" sketch:type="MSPage">
        <g id="Index" sketch:type="MSArtboardGroup" transform="translate(-887.000000, -2806.000000)" fill="#828282">
            <g id="Group-Copy-6" sketch:type="MSLayerGroup" transform="translate(793.000000, 2803.000000)">
                <g id="twitter-copy-2" transform="translate(94.000000, 3.000000)" sketch:type="MSShapeGroup">
                    <path d="M14.2008356,2.25144118 C14.8480686,1.84300028 15.344699,1.19535672 15.5777746,0.423857235 C14.971778,0.80298872 14.3021339,1.07717358 13.5876675,1.2256116 C13.0175287,0.582695363 12.2026605,0.181818182 11.3008372,0.181818182 C9.57069907,0.181818182 8.16865966,1.66147099 8.16865966,3.48621853 C8.16865966,3.74527596 8.19465655,3.99771513 8.24844323,4.23880871 C5.645168,4.10077082 3.33682306,2.7865744 1.79045607,0.785970349 C1.52062623,1.27572125 1.36643775,1.84300028 1.36643775,2.44809791 C1.36643775,3.59400155 1.91954409,4.60564915 2.76040916,5.19940121 C2.24674639,5.18238283 1.76356273,5.03205389 1.34044086,4.78623298 L1.34044086,4.82688798 C1.34044086,6.42850577 2.4197602,7.76444789 3.85496806,8.0669967 C3.59141334,8.14452484 3.31530839,8.18328891 3.02844611,8.18328891 C2.82674607,8.18328891 2.62952825,8.16343414 2.43948198,8.12467007 C2.8375034,9.43697556 3.99481343,10.3937862 5.36637372,10.4193137 C4.29332949,11.30616 2.94238742,11.8337295 1.47490755,11.8337295 C1.22211017,11.8337295 0.972002113,11.8195475 0.727272727,11.7883471 C2.11407258,12.725303 3.76084138,13.2727273 5.53042309,13.2727273 C11.2945621,13.2727273 14.4446686,8.23718041 14.4446686,3.87007734 C14.4446686,3.72636666 14.4428757,3.58360143 14.4366006,3.44272714 C15.0488722,2.97661287 15.5813604,2.3942064 16,1.7314354 C15.4379292,1.99427468 14.8337255,2.17202211 14.2008356,2.25144118 Z" id="Shape"></path>
                </g>
            </g>
        </g>
    </g>
</svg>