<?xml version="1.0" standalone="no"?><!DOCTYPE svg PUBLIC "-//W3C//DTD SVG 1.1//EN" "http://www.w3.org/Graphics/SVG/1.1/DTD/svg11.dtd"><svg width="100%" height="100%" viewBox="0 0 104 104" version="1.1" xmlns="http://www.w3.org/2000/svg" xmlns:xlink="http://www.w3.org/1999/xlink" xml:space="preserve" style="fill-rule:evenodd;clip-rule:evenodd;stroke-linejoin:round;stroke-miterlimit:1.41421;"><path d="M35.413,91.156l2.454,-2.455l0.942,0l-2.107,2.043l2.162,3.02l-0.885,0l-1.771,-2.538l-0.795,0.76l0,1.778l-0.684,0l0,-5.063l0.684,0l0,2.455Z" style="fill:#883e98;fill-rule:nonzero;"/><path d="M41.902,93.896c-1.891,0 -2.462,-1.569 -2.462,-2.663c0,-1.095 0.571,-2.665 2.462,-2.665c1.889,0 2.461,1.57 2.461,2.665c0,1.094 -0.572,2.663 -2.461,2.663M41.902,89.175c-1.103,0 -1.758,0.851 -1.758,2.043c0,1.193 0.655,2.072 1.758,2.072c1.102,0 1.757,-0.865 1.757,-2.057c0,-1.193 -0.655,-2.058 -1.757,-2.058" style="fill:#883e98;fill-rule:nonzero;"/><path d="M46.289,93.764l-0.683,0l0,-5.062l2.28,0c0.934,0 1.5,0.606 1.5,1.422c0,0.705 -0.405,1.506 -1.5,1.506l-1.597,0l0,2.134ZM46.289,91.044l1.36,0c0.614,0 1.032,-0.23 1.032,-0.913c0,-0.635 -0.44,-0.844 -1.004,-0.844l-1.388,0l0,1.757Z" style="fill:#883e98;fill-rule:nonzero;"/><path d="M54.633,88.702l0,5.062l-0.684,0l0,-4.455l-2.643,0l0,4.455l-0.683,0l0,-5.062l4.01,0Z" style="fill:#883e98;fill-rule:nonzero;"/><path d="M58.338,93.896c-1.89,0 -2.462,-1.569 -2.462,-2.663c0,-1.095 0.572,-2.665 2.462,-2.665c1.89,0 2.462,1.57 2.462,2.665c0,1.094 -0.572,2.663 -2.462,2.663M58.338,89.175c-1.102,0 -1.757,0.851 -1.757,2.043c0,1.193 0.655,2.072 1.757,2.072c1.102,0 1.757,-0.865 1.757,-2.057c0,-1.193 -0.655,-2.058 -1.757,-2.058" style="fill:#883e98;fill-rule:nonzero;"/><path d="M62.726,93.764l-0.683,0l0,-5.062l2.281,0c0.933,0 1.499,0.606 1.499,1.422c0,0.705 -0.405,1.506 -1.499,1.506l-1.598,0l0,2.134ZM62.726,91.044l1.36,0c0.615,0 1.033,-0.23 1.033,-0.913c0,-0.635 -0.44,-0.844 -1.004,-0.844l-1.389,0l0,1.757Z" style="fill:#883e98;fill-rule:nonzero;"/><path d="M67.361,92.286l-0.531,1.478l-0.703,0l1.903,-5.062l0.774,0l1.827,5.062l-0.747,0l-0.502,-1.478l-2.021,0ZM69.138,91.686l-0.746,-2.231l-0.013,0l-0.809,2.231l1.568,0Z" style="fill:#883e98;fill-rule:nonzero;"/><path d="M73.221,93.764l-0.684,0l0,-4.456l-1.715,0l0,-0.606l4.115,0l0,0.606l-1.716,0l0,4.456Z" style="fill:#883e98;fill-rule:nonzero;"/><path d="M76.641,92.844l0.028,0l2.567,-4.142l0.78,0l0,5.062l-0.683,0l0,-4.086l-0.014,0l-2.574,4.086l-0.787,0l0,-5.062l0.683,0l0,4.142Z" style="fill:#883e98;fill-rule:nonzero;"/><path d="M81.455,88.702l2.225,0c0.948,0 1.428,0.586 1.428,1.276c0,0.335 -0.118,0.795 -0.675,1.06c0.334,0.132 0.919,0.363 0.919,1.228c0,0.815 -0.599,1.498 -1.721,1.498l-2.176,0l0,-5.062ZM82.138,90.843l1.234,0c0.656,0 1.054,-0.196 1.054,-0.816c0,-0.468 -0.286,-0.739 -1.046,-0.739l-1.242,0l0,1.555ZM82.138,93.179l1.458,0c0.712,0 1.073,-0.363 1.073,-0.928c0,-0.711 -0.627,-0.85 -1.185,-0.85l-1.346,0l0,1.778Z" style="fill:#883e98;fill-rule:nonzero;"/><path d="M87.281,90.793l2.643,0l0,-2.092l0.683,0l0,5.063l-0.683,0l0,-2.364l-2.643,0l0,2.364l-0.684,0l0,-5.063l0.684,0l0,2.092Z" style="fill:#883e98;fill-rule:nonzero;"/><path d="M92.736,90.793l1.646,0c1.102,0 1.52,0.844 1.52,1.548c0,0.816 -0.586,1.423 -1.498,1.423l-2.351,0l0,-5.063l0.683,0l0,2.092ZM92.736,93.157l1.465,0c0.564,0 0.998,-0.188 0.998,-0.823c0,-0.683 -0.434,-0.934 -1.047,-0.934l-1.416,0l0,1.757ZM97.22,93.764l-0.684,0l0,-5.062l0.684,0l0,5.062Z" style="fill:#883e98;fill-rule:nonzero;"/><path d="M99.349,92.844l0.028,0l2.566,-4.142l0.781,0l0,5.062l-0.684,0l0,-4.086l-0.013,0l-2.573,4.086l-0.789,0l0,-5.062l0.684,0l0,4.142ZM100.646,87.879c0.474,0 0.621,-0.223 0.705,-0.53l0.342,0c-0.029,0.251 -0.119,0.962 -1.047,0.962c-0.928,0 -1.026,-0.711 -1.053,-0.962l0.349,0c0.091,0.307 0.223,0.53 0.704,0.53" style="fill:#883e98;fill-rule:nonzero;"/><path d="M38.753,97.063l-1.896,4.261c-0.342,0.773 -0.684,0.941 -1.096,0.941c-0.174,0 -0.356,-0.028 -0.494,-0.056l0,-0.565c0.118,0.021 0.23,0.028 0.397,0.028c0.258,0 0.327,-0.077 0.558,-0.488l-1.959,-4.121l0.731,0l1.556,3.459l1.471,-3.459l0.732,0Z" style="fill:#883e98;fill-rule:nonzero;"/><path d="M40.472,99.155l2.643,0l0,-2.092l0.683,0l0,5.063l-0.683,0l0,-2.364l-2.643,0l0,2.364l-0.684,0l0,-5.063l0.684,0l0,2.092Z" style="fill:#883e98;fill-rule:nonzero;"/><path d="M45.927,101.204l0.028,0l2.566,-4.142l0.781,0l0,5.063l-0.684,0l0,-4.087l-0.013,0l-2.573,4.087l-0.789,0l0,-5.063l0.684,0l0,4.142Z" style="fill:#883e98;fill-rule:nonzero;"/><path d="M50.748,97.063l2.225,0c0.948,0 1.428,0.585 1.428,1.276c0,0.334 -0.118,0.795 -0.675,1.06c0.334,0.133 0.919,0.362 0.919,1.227c0,0.816 -0.599,1.499 -1.721,1.499l-2.176,0l0,-5.062ZM51.431,99.204l1.234,0c0.656,0 1.054,-0.196 1.054,-0.816c0,-0.468 -0.286,-0.74 -1.046,-0.74l-1.242,0l0,1.556ZM51.431,101.539l1.458,0c0.712,0 1.073,-0.362 1.073,-0.927c0,-0.711 -0.627,-0.851 -1.185,-0.851l-1.346,0l0,1.778Z" style="fill:#883e98;fill-rule:nonzero;"/><path d="M59.621,102.125l-3.737,0l0,-5.062l3.688,0l0,0.606l-3.006,0l0,1.485l2.769,0l0,0.607l-2.769,0l0,1.757l3.055,0l0,0.607Z" style="fill:#883e98;fill-rule:nonzero;"/><path d="M61.583,102.125l-0.683,0l0,-5.062l2.281,0c0.933,0 1.499,0.606 1.499,1.422c0,0.704 -0.405,1.506 -1.499,1.506l-1.598,0l0,2.134ZM61.583,99.405l1.36,0c0.615,0 1.033,-0.229 1.033,-0.913c0,-0.635 -0.44,-0.844 -1.004,-0.844l-1.389,0l0,1.757Z" style="fill:#883e98;fill-rule:nonzero;"/><path d="M69.494,98.59c-0.188,-0.893 -0.928,-1.053 -1.415,-1.053c-0.914,0 -1.653,0.676 -1.653,2.008c0,1.192 0.419,2.106 1.673,2.106c0.447,0 1.213,-0.209 1.444,-1.388l0.662,0c-0.278,1.911 -1.827,1.995 -2.21,1.995c-1.15,0 -2.273,-0.746 -2.273,-2.692c0,-1.555 0.884,-2.636 2.357,-2.636c1.303,0 1.98,0.809 2.078,1.66l-0.663,0Z" style="fill:#883e98;fill-rule:nonzero;"/><path d="M72.113,101.204l0.027,0l2.567,-4.142l0.781,0l0,5.063l-0.684,0l0,-4.087l-0.013,0l-2.574,4.087l-0.788,0l0,-5.063l0.684,0l0,4.142Z" style="fill:#883e98;fill-rule:nonzero;"/><path d="M78.908,102.125l-0.685,0l0,-4.456l-1.715,0l0.001,-0.606l4.113,0l0,0.606l-1.715,0l0.001,4.456Z" style="fill:#883e98;fill-rule:nonzero;"/><path d="M85.381,102.125l-3.737,0l0,-5.062l3.688,0l0,0.606l-3.006,0l0,1.485l2.769,0l0,0.607l-2.769,0l0,1.757l3.055,0l0,0.607Z" style="fill:#883e98;fill-rule:nonzero;"/><path d="M88.641,102.125l-0.684,0l0,-4.456l-1.715,0l0,-0.606l4.115,0l0,0.606l-1.716,0l0,4.456Z" style="fill:#883e98;fill-rule:nonzero;"/><path d="M1.261,67.131c0.395,-4.066 3.203,-4.633 5.914,-4.633c1.873,0 5.274,0.567 5.274,3.844l0,7.172c0,1.552 0.345,1.897 0.763,2.045l0,0.542l-3.746,0c-0.196,-0.64 -0.246,-0.838 -0.32,-1.577c-0.788,0.813 -1.922,1.923 -4.287,1.923c-1.996,0 -4.018,-1.134 -4.018,-3.87c0,-3.055 2.859,-4.312 6.186,-4.583c1.478,-0.124 2.021,-0.518 2.021,-1.158c0,-1.479 -1.404,-1.553 -2.292,-1.553c-1.749,0 -2.046,1.084 -2.143,1.848l-3.352,0ZM6.682,70.36c-1.306,0.221 -2.365,0.566 -2.365,1.996c0,1.232 0.936,1.601 1.626,1.601c1.528,0 3.105,-1.01 3.105,-2.612l0,-1.7c-0.346,0.271 -0.936,0.493 -2.366,0.715" style="fill:#0a1d25;fill-rule:nonzero;"/><path d="M19.153,62.843l0,1.947l0.05,0c0.468,-0.789 1.478,-2.292 3.992,-2.292c2.587,0 4.583,1.528 4.583,4.436l0,9.167l-3.475,0l0,-8.058c0,-0.962 -0.049,-2.613 -2.266,-2.613c-1.553,0 -2.737,1.06 -2.737,3.081l0,7.59l-3.474,0l0,-13.258l3.327,0Z" style="fill:#0a1d25;fill-rule:nonzero;"/><path d="M42.663,71.271c-0.123,1.355 -1.183,5.175 -6.037,5.175c-4.979,0 -6.111,-3.82 -6.111,-6.604c0,-4.288 1.847,-7.344 6.333,-7.344c2.094,0 5.52,0.961 5.84,5.077l-3.524,0c-0.147,-0.863 -0.665,-2.144 -2.316,-2.144c-2.194,0 -2.761,2.193 -2.761,3.844c0,1.429 0.05,4.312 2.686,4.312c1.775,0 2.391,-1.7 2.391,-2.316l3.499,0Z" style="fill:#0a1d25;fill-rule:nonzero;"/><path d="M58.314,69.447c0,4.781 -3.203,6.999 -6.752,6.999c-3.549,0 -6.777,-2.193 -6.777,-6.974c0,-4.781 3.228,-6.974 6.777,-6.974c3.549,0 6.752,2.168 6.752,6.949M48.358,69.447c0,1.701 0.518,4.066 3.204,4.066c2.686,0 3.179,-2.341 3.179,-4.041c0,-1.7 -0.493,-4.042 -3.179,-4.042c-2.686,0 -3.204,2.317 -3.204,4.017" style="fill:#0a1d25;fill-rule:nonzero;"/><path d="M64.402,62.843l0,2.292l0.05,0c0.714,-1.331 1.503,-2.637 3.622,-2.637c0.173,0 0.543,0.025 0.69,0.049l0,3.549c-0.32,-0.049 -0.69,-0.074 -1.01,-0.074c-2.711,0 -3.229,1.651 -3.229,3.13l0,6.949l-3.475,0l0,-13.258l3.352,0Z" style="fill:#0a1d25;fill-rule:nonzero;"/><rect x="24.255" y="19.167" width="19.792" height="5.806" style="fill:#883e98;fill-rule:nonzero;"/><rect x="19.505" y="40.148" width="29.375" height="5.805" style="fill:#883e98;fill-rule:nonzero;"/><path d="M24.262,35.474l-5.466,15.19l-6.817,0l18.764,-49.889l7.492,0l17.977,49.889l-7.221,0l-5.154,-15.19l-19.575,0ZM41.475,29.668l-7.224,-21.602l-0.133,0l-7.832,21.602l15.189,0Z" style="fill:#883e98;fill-rule:nonzero;"/></svg>