<?xml version="1.0" encoding="UTF-8" standalone="no"?>
<svg width="344px" height="149px" viewBox="0 0 344 149" version="1.1" xmlns="http://www.w3.org/2000/svg" xmlns:xlink="http://www.w3.org/1999/xlink" xmlns:sketch="http://www.bohemiancoding.com/sketch/ns">
    <!-- Generator: Sketch 3.3.2 (12043) - http://www.bohemiancoding.com/sketch -->
    <title>Imported Layers</title>
    <desc>Created with Sketch.</desc>
    <defs></defs>
    <g id="Page-1" stroke="none" stroke-width="1" fill="none" fill-rule="evenodd" sketch:type="MSPage">
        <g id="Imported-Layers" sketch:type="MSLayerGroup" fill="#000000">
            <path d="M266.859503,101.089964 L243.588139,101.089964 L243.588139,86.7276347 L243.588139,14.9159884 L243.588139,0.553659102 L266.859503,0.553659102 C293.131118,0.554125878 314.459481,23.0783514 314.459481,50.8218116 C314.459481,78.5110898 293.214531,101.001492 267.013384,101.089713 L266.859503,101.089964 L266.859503,101.089964 Z M14.6094269,58.0029762 L14.6094269,101.089964 L0.228008683,101.089964 L0.228008683,58.0029762 L0.228008683,43.6406469 L0.228008683,0.553659102 L64.9443908,0.553659102 L64.9443908,14.9159884 L14.6094269,14.9159884 L14.6094269,43.6406469 L50.5629726,43.6406469 L50.5629726,58.0029762 L14.6094269,58.0029762 L14.6094269,58.0029762 Z M343.801169,0.553659102 L329.419751,0.553659102 L329.419751,101.089964 L343.801169,101.089964 L343.801169,0.553659102 L343.801169,0.553659102 Z M228.627725,101.089964 L211.812611,101.089964 L173.963055,28.2356125 L173.963055,101.089964 L159.581637,101.089964 L159.581637,0.553659102 L176.396751,0.553659102 L214.246307,73.4080106 L214.246307,0.553659102 L228.627725,0.553659102 L228.627725,101.089964 L228.627725,101.089964 Z M94.2862592,86.7276347 L144.621223,86.7276347 L144.621223,101.089964 L79.9048409,101.089964 L79.9048409,58.0029762 L79.9048409,43.6406469 L79.9048409,0.553659102 L144.621223,0.553659102 L144.621223,14.9159884 L94.2862592,14.9159884 L94.2862592,43.6406469 L137.516766,43.6406469 L137.516766,58.0029762 L94.2862592,58.0029762 L94.2862592,86.7276347 L94.2862592,86.7276347 Z M257.969629,14.9159884 L257.969629,86.7276347 L266.859503,86.7276347 C285.625097,86.727168 300.859693,70.6384867 300.859693,50.8218116 C300.859693,31.0051364 285.625097,14.9164551 266.859503,14.9159884 L257.969629,14.9159884 L257.969629,14.9159884 Z" id="Fill-1" sketch:type="MSShapeGroup"></path>
            <path d="M144.812604,148.172013 L139.105877,139.559966 C141.990934,139.306686 144.590663,137.216967 144.590663,133.417556 C144.590663,129.523139 141.832414,127.053501 137.964532,127.053501 L129.467846,127.053501 L129.467846,148.172013 L132.099286,148.172013 L132.099286,139.781612 L136.315918,139.781612 L141.705606,148.172013 L144.812604,148.172013 L144.812604,148.172013 Z M137.647494,137.470283 L132.099286,137.470283 L132.099286,129.396499 L137.647494,129.396499 C140.152125,129.396499 141.864125,131.042889 141.864125,133.417556 C141.864125,135.792188 140.152125,137.470283 137.647494,137.470283 L137.647494,137.470283 Z" id="Fill-2" sketch:type="MSShapeGroup"></path>
            <path d="M158.381939,148.551969 C164.627645,148.551969 168.875952,143.866007 168.875952,137.628591 C168.875952,131.391175 164.627645,126.705214 158.381939,126.705214 C152.104522,126.705214 147.88789,131.391175 147.88789,137.628591 C147.88789,143.866007 152.104522,148.551969 158.381939,148.551969 L158.381939,148.551969 Z M158.381939,146.20897 C153.626328,146.20897 150.614463,142.536199 150.614463,137.628591 C150.614463,132.689315 153.626328,129.048213 158.381939,129.048213 C163.10584,129.048213 166.149415,132.689315 166.149415,137.628591 C166.149415,142.536199 163.10584,146.20897 158.381939,146.20897 L158.381939,146.20897 Z" id="Fill-3" sketch:type="MSShapeGroup"></path>
            <path d="M193.700222,148.172013 L193.700222,127.053501 L189.927436,127.053501 L183.333017,142.947788 L176.770272,127.053501 L172.997487,127.053501 L172.997487,148.172013 L175.628927,148.172013 L175.628927,130.789609 L182.794037,148.172013 L183.871961,148.172013 L191.068782,130.789609 L191.068782,148.172013 L193.700222,148.172013 L193.700222,148.172013 Z" id="Fill-4" sketch:type="MSShapeGroup"></path>
            <path d="M216.749069,148.172013 L208.220672,127.053501 L204.955156,127.053501 L196.45847,148.172013 L199.47037,148.172013 L201.340889,143.486052 L211.86665,143.486052 L213.737169,148.172013 L216.749069,148.172013 L216.749069,148.172013 Z M211.074018,141.143053 L202.10181,141.143053 L206.60377,129.776419 L211.074018,141.143053 L211.074018,141.143053 Z" id="Fill-5" sketch:type="MSShapeGroup"></path>
        </g>
    </g>
</svg>