<?xml version="1.0" standalone="no"?><!DOCTYPE svg PUBLIC "-//W3C//DTD SVG 1.1//EN" "http://www.w3.org/Graphics/SVG/1.1/DTD/svg11.dtd"><svg width="100%" height="100%" viewBox="0 0 427 147" version="1.1" xmlns="http://www.w3.org/2000/svg" xmlns:xlink="http://www.w3.org/1999/xlink" xml:space="preserve" style="fill-rule:evenodd;clip-rule:evenodd;stroke-linejoin:round;stroke-miterlimit:1.41421;"><g id="Layer1"><g id="Layer 1"><path d="M400.279,68.895c0,0 2.807,-2.81 1.404,-7.901c-1.404,-5.091 3.86,-10.358 8.774,-5.969c4.915,4.565 -2.104,13.518 -10.178,13.87" style="fill:#000;"/><path d="M1.001,61.17c2.282,1.404 4.389,2.633 5.09,4.389c11.409,18.784 22.817,37.744 34.224,56.705c7.547,23.349 -17.551,22.296 -20.535,10.534c-0.877,-3.512 -3.509,-10.534 5.091,-13.344c-0.702,-7.197 -7.196,-7.899 -11.935,-5.441c-16.147,8.778 2.457,41.782 26.677,28.967c9.126,-4.74 15.62,-20.54 11.058,-28.616l-31.943,-56.354c-0.878,-2.458 -1.053,-4.915 -1.053,-7.023c-5.616,3.511 -11.057,6.846 -16.674,10.183M60.323,102.777c-0.527,0 9.653,-5.091 9.653,-5.091l-14.743,-18.434l5.09,23.525ZM42.773,61.345c4.036,-2.107 8.073,-4.213 12.284,-6.32c12.286,16.327 24.572,32.654 37.033,49.157c1.754,2.281 3.861,3.861 6.493,4.565c-6.669,3.16 -13.338,6.495 -20.008,9.655c1.054,-2.107 1.229,-4.74 0.527,-7.55l-6.318,-9.304l-11.583,5.969c0.877,3.862 1.754,7.55 2.632,11.412c0.877,1.93 2.106,3.685 5.089,4.915c-3.509,1.58 -6.844,3.336 -10.353,4.915c1.052,-2.458 1.402,-5.09 1.052,-7.725c-4.036,-17.379 -7.898,-34.935 -11.759,-52.491c-0.703,-3.16 -2.808,-5.266 -5.089,-7.198M101.918,36.591c-4.739,5.267 -6.494,1.932 -11.935,3.687c-14.742,4.565 -12.461,26.334 -7.897,38.448c7.02,19.662 19.656,31.951 31.941,26.684c9.303,-4.037 9.128,-19.136 -1.227,-23.173c2.632,4.389 7.371,17.731 0.175,20.891c-8.073,3.512 -12.987,-17.029 -17.551,-30.372c-7.722,-23.7 -6.318,-28.791 -2.457,-30.02c6.845,-2.282 9.477,2.984 11.759,5.091c-1.229,-3.687 -1.58,-7.373 -2.808,-11.236M108.938,35.362c5.265,-1.053 11.057,-2.458 16.322,-3.51c-0.702,1.404 -0.702,2.984 -0.351,4.389l5.265,20.189c2.632,-6.847 5.441,-14.747 7.898,-21.769c0.878,-2.107 0.352,-3.687 -1.228,-5.267c3.51,-0.702 6.844,-1.405 10.179,-2.107c-2.106,2.107 -3.685,4.74 -4.388,7.374c-2.281,6.495 -5.265,13.868 -6.845,19.662c-0.702,2.809 2.634,5.618 8.6,3.335c4.212,-1.58 4.563,1.932 4.914,2.984c3.51,8.077 7.021,16.152 10.531,24.404c1.053,2.107 2.457,4.213 4.212,5.793c-5.089,1.054 -10.355,2.282 -15.62,3.336l-14.742,-33.356l-1.58,3.686c1.93,8.954 4.037,17.732 5.967,26.51c0.702,1.931 1.58,3.511 2.632,4.915c-5.264,1.405 -10.53,2.985 -15.795,4.565c0.526,-1.58 0.878,-3.512 0.703,-5.794c-4.564,-18.082 -9.127,-36.164 -13.69,-54.247c-0.702,-2.107 -1.404,-3.687 -2.984,-5.092M167.733,2.708c1.228,1.58 1.93,3.337 2.457,5.443c2.105,25.28 4.387,50.737 6.494,76.192c0,2.81 -0.878,4.74 -2.458,6.145c6.669,-0.878 15.972,-2.282 19.657,-2.809c29.309,-4.389 26.326,-87.954 -6.494,-86.023c-4.738,0.175 -13.338,0.526 -19.656,1.052M184.055,6.22c2.106,25.807 4.036,51.79 6.143,77.772c16.321,-0.175 10.705,-27.739 9.828,-41.431c-1.229,-15.977 -2.107,-40.555 -15.971,-36.341M222.49,66.612c-0.527,-0.175 10.881,0.702 10.881,0.702l-3.16,-23.349l-7.721,22.647ZM228.633,22.02c4.562,0.351 9.125,0.702 13.866,1.054c2.104,20.364 4.387,40.729 6.491,61.094c0.353,2.985 1.406,5.267 3.337,7.373c-7.021,-1.053 -14.042,-1.405 -22.29,-1.931c2.107,-1.404 3.51,-3.511 4.387,-6.32l-0.526,-11.235l-12.989,-0.703c-1.227,3.687 -2.457,7.374 -3.684,11.061c-0.176,2.106 0,4.213 1.931,6.846c-3.334,-0.526 -7.197,-0.878 -11.407,-1.053c2.281,-1.757 3.684,-3.687 4.562,-6.145c5.791,-17.029 11.408,-34.058 17.023,-51.087c1.23,-3.16 0.353,-6.145 -0.701,-8.954M267.77,26.584c3.16,0.703 6.494,1.23 9.828,1.932l10.357,42.66c3.158,-10.708 6.318,-22.998 9.475,-33.883c0.353,-2.106 0.353,-4.212 -0.526,-5.969c2.984,0.703 6.494,1.757 9.477,2.458c-1.403,1.054 -2.457,2.459 -3.157,4.565l-16.322,59.69l-7.548,-1.756l-8.775,-44.24c-2.283,10.709 -4.74,23.7 -7.197,34.585c-0.35,1.58 0.353,4.389 1.23,6.847c-2.984,-0.527 -5.791,-1.055 -8.775,-1.405c1.404,-1.932 2.281,-4.038 2.808,-6.671c3.334,-17.556 6.844,-35.112 10.178,-52.493c0.176,-2.457 -0.35,-4.563 -1.053,-6.32M293.393,100.32c5.267,1.755 10.708,3.51 15.972,5.09c-0.703,-2.458 -0.526,-5.09 0.35,-7.549c5.267,-16.502 10.708,-33.004 16.149,-49.507c1.227,-2.634 2.631,-4.916 4.738,-6.145c-5.265,-1.931 -10.531,-3.862 -15.796,-5.968c0,2.458 0,4.915 -0.35,7.373c-5.617,16.503 -11.058,33.18 -16.499,49.682c-1.053,3.161 -2.631,5.444 -4.564,7.024M313.929,107.166c1.58,-0.351 2.984,-2.282 4.738,-5.618c7.547,-17.556 12.812,-30.372 20.009,-50.033c0.877,-1.405 1.754,-5.444 1.578,-6.847l24.922,10.884l-1.93,10.533l-1.754,0c-0.526,-10.358 -4.74,-11.938 -9.304,-12.64c-2.984,7.374 -5.791,14.572 -8.598,21.769c1.754,4.565 8.775,2.633 10.004,-2.809l1.228,0.351l-7.722,18.96c-0.353,-0.175 -0.703,-0.35 -1.053,-0.35c0.35,-5.092 1.053,-10.007 -4.74,-9.832c-3.685,8.954 -7.195,17.731 -10.882,26.509c-1.403,6.145 3.687,5.619 11.761,2.107l0.701,1.054l-4.211,7.55c0,0 -23.167,-10.711 -24.747,-11.588M374.128,59.765c0,2.107 -0.177,4.213 -1.054,6.32c-8.601,16.854 -17.375,33.531 -26.15,50.385c-2.281,2.984 -3.861,2.809 -5.617,2.984c8.424,4.39 16.849,8.779 25.273,13.167l7.898,-7.899l-1.58,-0.878c-4.738,2.985 -11.932,3.862 -14.216,0.176c9.128,-17.38 18.079,-34.937 27.204,-52.316c0.703,-1.405 2.107,-2.459 4.037,-2.809c-5.264,-2.986 -10.531,-6.145 -15.795,-9.13M370.267,135.431c1.578,-2.458 4.211,-6.672 6.141,-10.007c0.527,-0.878 1.404,-0.351 1.23,0.176c0,0 -1.58,15.273 8.598,15.625c10.355,0.35 5.968,-22.121 5.968,-23.526c0,-3.16 -7.898,-35.462 12.812,-36.867c14.041,-1.053 14.392,9.129 17.199,10.358c2.984,1.228 2.633,0 2.633,0c0.177,0.526 0.877,1.054 0.704,1.228c-2.284,2.81 -4.214,5.97 -5.791,9.13c-0.353,0.527 -1.581,-0.175 -1.581,-0.703c0.701,-3.51 -0.176,-16.853 -8.777,-15.976c-8.071,0.879 -4.914,15.099 -4.561,21.068c0.701,12.289 3.334,26.159 -5.968,35.111c-4.74,4.742 -15.445,8.954 -22.113,-1.755c-3.336,-5.617 -6.494,-0.35 -6.494,-3.862" style="fill:#000;"/></g></g></svg>