<?xml version="1.0" standalone="no"?><!DOCTYPE svg PUBLIC "-//W3C//DTD SVG 1.1//EN" "http://www.w3.org/Graphics/SVG/1.1/DTD/svg11.dtd"><svg width="100%" height="100%" viewBox="0 0 441 115" version="1.1" xmlns="http://www.w3.org/2000/svg" xmlns:xlink="http://www.w3.org/1999/xlink" xml:space="preserve" style="fill-rule:evenodd;clip-rule:evenodd;stroke-linejoin:round;stroke-miterlimit:1.41421;"><g id="Layer1"><path d="M363.051,93.601l-5.087,10.417l-32.579,0l56.342,-100.999l56.341,100.999l-32.579,0l-5.087,-10.417l-37.351,0ZM370.699,77.942l22.055,0l-11.027,-22.581l-11.028,22.581Z" style="fill:#000;"/><path d="M200.504,111.017l-53.342,-100.999l32.579,0l20.763,40.657l20.763,-40.657l32.579,0l-53.342,100.999Z" style="fill:#000;"/><rect x="111.471" y="10.018" width="30.017" height="94" style="fill:#000;"/><path d="M259.129,104.018l0,-94l59.64,0l0,24l-29.623,0l0,13.292l29.623,0l0,17.917l-29.623,0l0,14.791l29.623,0l0,24l-59.64,0Z" style="fill:#000;"/><path d="M82.984,111.017l-49.574,-42.417l0,35.418l-30.016,0l0,-100l49.574,43.152l0,-37.152l30.016,0l0,100.999Z" style="fill:#000;"/></g></svg>