<?xml version="1.0" encoding="UTF-8" standalone="no"?>
<svg width="166px" height="80px" viewBox="0 0 166 80" version="1.1" xmlns="http://www.w3.org/2000/svg" xmlns:xlink="http://www.w3.org/1999/xlink" xmlns:sketch="http://www.bohemiancoding.com/sketch/ns">
    <!-- Generator: Sketch 3.3 (11970) - http://www.bohemiancoding.com/sketch -->
    <title>Imported Layers Copy</title>
    <desc>Created with Sketch.</desc>
    <defs></defs>
    <g id="Page-1" stroke="none" stroke-width="1" fill="none" fill-rule="evenodd" sketch:type="MSPage">
        <g id="Desktop" sketch:type="MSArtboardGroup" transform="translate(-428.000000, -193.000000)" fill="#FFFFFF">
            <g id="Imported-Layers-Copy" sketch:type="MSLayerGroup" transform="translate(427.000000, 193.000000)">
                <path d="M16.2009697,3.15744681 C16.462303,3.13361702 16.6981818,3.13361702 17.0562424,3.13361702 C20.3364848,3.13361702 23.0448485,4.53957447 23.0448485,7.87744681 C23.0448485,8.2587234 23.0210909,8.68765957 22.902303,9.33106383 C22.1658182,13.5523404 18.7192727,14.4357447 15.0606061,14.4357447 L14.2290909,14.4357447 L13.5384242,18.3438298 C13.4892121,18.6076596 13.3008485,18.8221277 13.0395152,18.8221277 L10.6620606,18.8221277 C10.4007273,18.8221277 10.1852121,18.6076596 10.2344242,18.3438298 L10.9233939,14.4357447 L10.0918788,14.4357447 C6.81163636,14.4357447 4.09987879,12.9548936 4.09987879,9.61702128 C4.09987879,9.23744681 4.09987879,8.80851064 4.21866667,8.16340426 C4.95854545,3.94382979 8.42884848,3.13361702 12.0875152,3.13361702 C12.4218182,3.13361702 12.657697,3.13361702 12.8969697,3.15744681 L13.1820606,1.55914894 C13.2278788,1.29702128 13.4892121,1.10638298 13.7505455,1.10638298 L16.1042424,1.10638298 C16.3655758,1.10638298 16.5318788,1.29702128 16.4860606,1.55914894 L16.2009697,3.15744681 L16.2009697,3.15744681 Z M11.3985455,11.7174468 L12.4218182,5.89957447 C12.0875152,5.87404255 11.7786667,5.87404255 11.590303,5.87404255 C9.21115152,5.87404255 7.90448485,6.63659574 7.52436364,8.64 C7.42763636,9.11659574 7.42763636,9.35659574 7.42763636,9.59489362 C7.42763636,11.0008511 8.35587879,11.7174468 10.5670303,11.7174468 L11.3985455,11.7174468 L11.3985455,11.7174468 Z M15.7241212,5.89957447 L14.7025455,11.7174468 L15.5340606,11.7174468 C18.1032727,11.7174468 19.2436364,10.7625532 19.598303,8.85446809 C19.6933333,8.37787234 19.6933333,8.16340426 19.6933333,7.94893617 C19.6933333,6.47148936 18.6242424,5.87404255 16.5556364,5.87404255 C16.3435152,5.87404255 16.0346667,5.87404255 15.7241212,5.89957447 L15.7241212,5.89957447 Z" id="Fill-1" sketch:type="MSShapeGroup"></path>
                <path d="M26.9784242,1.55914894 C27.0293333,1.29702128 27.2669091,1.10638298 27.5265455,1.10638298 L29.5713939,1.10638298 C29.8327273,1.10638298 29.9752727,1.29702128 29.9294545,1.55914894 L27.718303,14.1004255 C27.6945455,14.2434043 27.7641212,14.3148936 27.8116364,14.3148936 C27.8846061,14.3148936 27.9575758,14.2434043 28.0271515,14.1242553 L35.729697,1.8706383 C36.1064242,1.2493617 36.4186667,1.10638298 36.9158788,1.10638298 L39.4850909,1.10638298 C40.0077576,1.10638298 40.3386667,1.53531915 40.2436364,2.05957447 L37.3927273,18.3438298 C37.3435152,18.6076596 37.1313939,18.8221277 36.8700606,18.8221277 L34.8472727,18.8221277 C34.5859394,18.8221277 34.3958788,18.6076596 34.4433939,18.3438298 L36.5612121,6.3506383 C36.5849697,6.2093617 36.5374545,6.16 36.4644848,6.16 C36.3949091,6.16 36.3219394,6.2093617 36.2269091,6.3506383 L28.9044848,17.9642553 C28.4072727,18.8221277 27.9066667,18.8221277 27.3364848,18.8221277 L24.9369697,18.8221277 C24.414303,18.8221277 24.0324848,18.3931915 24.1292121,17.867234 L26.9784242,1.55914894" id="Fill-2" sketch:type="MSShapeGroup"></path>
                <path d="M54.4031515,3.8706383 L50.2421818,3.8706383 L47.6967273,18.3438298 C47.6509091,18.6076596 47.4387879,18.8221277 47.1774545,18.8221277 L44.8237576,18.8221277 C44.5624242,18.8221277 44.3469091,18.6076596 44.3961212,18.3438298 L46.9381818,3.8706383 L42.7789091,3.8706383 C42.5175758,3.8706383 42.3275152,3.70553191 42.3750303,3.44170213 L42.7059394,1.55914894 C42.7551515,1.29702128 43.0181818,1.10638298 43.2795152,1.10638298 L54.9020606,1.10638298 C55.161697,1.10638298 55.329697,1.29702128 55.2804848,1.55914894 L54.9495758,3.44170213 C54.9020606,3.70553191 54.6644848,3.8706383 54.4031515,3.8706383" id="Fill-3" sketch:type="MSShapeGroup"></path>
                <path d="M67.537697,18.8221277 L65.184,18.8221277 C64.9260606,18.8221277 64.7105455,18.6076596 64.7563636,18.3438298 L66.0426667,11.0485106 L59.2904242,11.0485106 L58.0092121,18.3438298 C57.958303,18.6076596 57.7461818,18.8221277 57.4848485,18.8221277 L55.1311515,18.8221277 C54.8698182,18.8221277 54.654303,18.6076596 54.7035152,18.3438298 L57.6511515,1.55914894 C57.6969697,1.29702128 57.958303,1.10638298 58.2213333,1.10638298 L60.5733333,1.10638298 C60.8363636,1.10638298 61.0009697,1.29702128 60.9551515,1.55914894 L59.7876364,8.13957447 L66.5398788,8.13957447 L67.705697,1.55914894 C67.7532121,1.29702128 68.0145455,1.10638298 68.2758788,1.10638298 L70.6295758,1.10638298 C70.8909091,1.10638298 71.0572121,1.29702128 71.0113939,1.55914894 L68.0603636,18.3438298 C68.0145455,18.6076596 67.7990303,18.8221277 67.537697,18.8221277" id="Fill-4" sketch:type="MSShapeGroup"></path>
                <path d="M84.6431515,1.2493617 C85.0232727,1.32085106 85.0707879,1.44 85.0232727,1.74978723 L84.7619394,3.27659574 C84.7161212,3.5387234 84.6431515,3.75319149 84.1917576,3.75319149 L79.3435152,3.75319149 C77.9638788,3.75319149 77.393697,4.22978723 77.110303,5.80255319 L76.6589091,8.37787234 L83.0989091,8.37787234 C83.3602424,8.37787234 83.5757576,8.4493617 83.5027879,8.85446809 L83.1939394,10.5719149 C83.1481212,10.8340426 83.0021818,11.0485106 82.6237576,11.0485106 L76.1820606,11.0485106 L75.657697,14.1242553 C75.6118788,14.4357447 75.5881212,14.6978723 75.5881212,14.9123404 C75.5881212,15.8638298 76.0615758,16.1753191 77.1781818,16.1753191 L82.0281212,16.1753191 C82.2894545,16.1753191 82.4829091,16.2944681 82.4099394,16.6519149 L82.1469091,18.1787234 C82.1010909,18.5123404 81.9347879,18.6297872 81.5767273,18.6791489 C80.7944242,18.7982979 79.8441212,19.012766 77.0135758,19.012766 C74.3289697,19.012766 72.2841212,17.9642553 72.2841212,15.2442553 C72.2841212,14.8868085 72.3061818,14.5293617 72.3791515,14.1242553 L73.8283636,5.80255319 C74.590303,1.51148936 76.9168485,0.915744681 80.1750303,0.915744681 C83.0021818,0.915744681 83.9066667,1.13021277 84.6431515,1.2493617" id="Fill-5" sketch:type="MSShapeGroup"></path>
                <path d="M98.3512727,1.29702128 C98.7330909,1.39234043 98.8247273,1.53531915 98.7789091,1.84510638 L98.4938182,3.44170213 C98.448,3.75319149 98.3970909,3.99148936 97.8778182,3.94382979 C97.0683636,3.8706383 95.4511515,3.75319149 94.192,3.75319149 C91.8620606,3.75319149 90.5061818,4.96851064 89.9597576,8.21106383 L89.3658182,11.7174468 C89.2690909,12.3114894 89.2232727,12.8374468 89.2232727,13.2902128 C89.2232727,15.5319149 90.1973333,16.1753191 92.0283636,16.1753191 C93.2875152,16.1753191 94.9047273,16.0561702 95.76,15.9846809 C96.2606061,15.9353191 96.2606061,16.1514894 96.1876364,16.4851064 L95.9025455,18.0817021 C95.8329697,18.4153191 95.6174545,18.5361702 95.2848485,18.6297872 C94.9047273,18.7268085 93.3129697,19.012766 91.4802424,19.012766 C88.6530909,19.012766 85.8717576,17.652766 85.8717576,13.4570213 C85.8717576,12.932766 85.9413333,12.3353191 86.0380606,11.7174468 L86.632,8.21106383 C87.7248485,1.8212766 91.1951515,0.915744681 94.6433939,0.915744681 C96.4727273,0.915744681 98.0203636,1.20170213 98.3512727,1.29702128" id="Fill-6" sketch:type="MSShapeGroup"></path>
                <path d="M11.2084848,29.8519149 C15.4882424,29.8519149 17.7910303,31.186383 17.7910303,34.2876596 C17.7910303,36.0748936 17.0324848,37.8876596 14.7755152,38.7676596 C15.961697,39.3174468 16.5081212,40.532766 16.5081212,41.7259574 C16.5081212,46.2808511 13.3704242,47.9489362 8.25915152,47.9489362 C6.33648485,47.9489362 4.90933333,47.8297872 4.19660606,47.6868085 C3.55345455,47.5659574 3.22084848,47.3514894 3.22084848,46.7795745 C3.22084848,46.6604255 3.24460606,46.5412766 3.26836364,46.3982979 L5.90545455,31.3787234 C6.048,30.5191489 6.42981818,30.2093617 7.21551515,30.0902128 C7.85866667,29.9948936 9.35369697,29.8519149 11.2084848,29.8519149 L11.2084848,29.8519149 Z M6.78787879,45.1591489 C8.00121212,45.1829787 8.23539394,45.2068085 8.736,45.2068085 C11.7786667,45.2068085 13.2533333,44.4425532 13.2533333,41.8910638 C13.2533333,40.7965957 12.657697,39.9131915 10.7316364,39.9131915 L7.71612121,39.9131915 L6.78787879,45.1591489 L6.78787879,45.1591489 Z M8.14375758,37.4808511 L11.1592727,37.4808511 C13.774303,37.4808511 14.4870303,36.0748936 14.4870303,34.4068085 C14.4870303,33.0944681 13.4654545,32.5923404 10.7316364,32.5923404 C10.1614545,32.5923404 9.49624242,32.6178723 8.9990303,32.6417021 L8.14375758,37.4808511 L8.14375758,37.4808511 Z" id="Fill-7" sketch:type="MSShapeGroup"></path>
                <path d="M23.7270303,36.5514894 C24.417697,36.5038298 25.1524848,36.5038298 25.8652121,36.5038298 C29.1471515,36.5038298 31.8555152,37.7191489 31.8555152,41.0110638 C31.8555152,41.3906383 31.808,41.8195745 31.6654545,42.6791489 C30.9306667,46.9004255 27.5061818,47.9489362 23.8441212,47.9489362 C22.1098182,47.9489362 20.4467879,47.8297872 19.2334545,47.6374468 C18.7820606,47.5659574 18.5207273,47.4008511 18.6174545,46.9225532 L21.4904242,30.5191489 C21.5396364,30.2570213 21.8026667,30.0425532 22.064,30.0425532 L24.4397576,30.0425532 C24.7027879,30.0425532 24.8453333,30.2570213 24.7944242,30.5191489 L23.7270303,36.5514894 L23.7270303,36.5514894 Z M22.230303,45.1114894 C22.6579394,45.1591489 23.8203636,45.2068085 24.3209697,45.2068085 C26.6967273,45.2068085 28.0305455,44.4425532 28.3852121,42.4408511 C28.504,41.7480851 28.5260606,41.533617 28.5260606,41.3191489 C28.5260606,39.8417021 27.4332121,39.2459574 25.3646061,39.2459574 C24.8673939,39.2459574 23.6778182,39.293617 23.2501818,39.3412766 L22.230303,45.1114894 L22.230303,45.1114894 Z M36.0402424,47.7582979 L33.6882424,47.7582979 C33.4252121,47.7582979 33.209697,47.5438298 33.2606061,47.28 L36.2065455,30.4953191 C36.2523636,30.2331915 36.5153939,30.0425532 36.7767273,30.0425532 L39.1304242,30.0425532 C39.3917576,30.0425532 39.5563636,30.2331915 39.5105455,30.4953191 L36.5612121,47.28 C36.5153939,47.5438298 36.3032727,47.7582979 36.0402424,47.7582979 L36.0402424,47.7582979 Z" id="Fill-8" sketch:type="MSShapeGroup"></path>
                <path d="M53.1660606,30.2331915 C53.5478788,30.3285106 53.6395152,30.4714894 53.593697,30.7812766 L53.3086061,32.3795745 C53.2627879,32.6893617 53.2118788,32.9276596 52.6926061,32.88 C51.8831515,32.8068085 50.2659394,32.6893617 49.0067879,32.6893617 C46.6768485,32.6893617 45.3209697,33.9046809 44.7745455,37.147234 L44.1806061,40.653617 C44.0838788,41.2476596 44.0380606,41.773617 44.0380606,42.226383 C44.0380606,44.4680851 45.0121212,45.1114894 46.8414545,45.1114894 C48.102303,45.1114894 49.7195152,44.9923404 50.5747879,44.9208511 C51.0753939,44.8714894 51.0753939,45.0876596 51.0024242,45.4212766 L50.7173333,47.0178723 C50.6477576,47.3514894 50.4322424,47.4723404 50.0996364,47.5659574 C49.7195152,47.6629787 48.1277576,47.9489362 46.2950303,47.9489362 C43.4678788,47.9489362 40.6882424,46.5889362 40.6882424,42.3931915 C40.6882424,41.8689362 40.7578182,41.2714894 40.8528485,40.653617 L41.4467879,37.147234 C42.5396364,30.7574468 46.0099394,29.8519149 49.4564848,29.8519149 C51.2875152,29.8519149 52.8351515,30.1378723 53.1660606,30.2331915" id="Fill-9" sketch:type="MSShapeGroup"></path>
                <path d="M67.4715152,37.2902128 L66.9233939,40.5106383 C65.9730909,46.0646809 63,47.9489362 58.8407273,47.9489362 C55.4433939,47.9489362 53.2050909,46.0408511 53.2050909,42.3455319 C53.2050909,41.773617 53.256,41.1761702 53.3747879,40.5106383 L53.9212121,37.2902128 C54.8698182,31.7123404 57.8429091,29.8519149 62.0021818,29.8519149 C65.4029091,29.8519149 67.6361212,31.8791489 67.6361212,35.5268085 C67.6361212,36.0748936 67.5631515,36.6706383 67.4715152,37.2902128 L67.4715152,37.2902128 Z M61.5015758,32.7353191 C59.0324848,32.7353191 57.7970909,34.0476596 57.2489697,37.2902128 L56.7025455,40.5106383 C56.5837576,41.2 56.5362424,41.7974468 56.5362424,42.2978723 C56.5362424,44.3710638 57.4848485,45.0638298 59.3413333,45.0638298 C61.8596364,45.0638298 63.0729697,43.6085106 63.5973333,40.5106383 L64.1437576,37.2902128 C64.2591515,36.6229787 64.3100606,36.027234 64.3100606,35.5268085 C64.3100606,33.4757447 63.3818182,32.7353191 61.5015758,32.7353191 L61.5015758,32.7353191 Z" id="Fill-10" sketch:type="MSShapeGroup"></path>
                <path d="M84.3614545,30.7097872 L76.7081212,38.6246809 L81.3187879,47.2578723 C81.3646061,47.3514894 81.3883636,47.4229787 81.3883636,47.4944681 C81.3883636,47.6629787 81.2729697,47.7582979 81.0099394,47.7582979 L78.0147879,47.7582979 C77.729697,47.7582979 77.5871515,47.6868085 77.4904242,47.4944681 L73.473697,39.3651064 L72.0940606,47.28 C72.0244848,47.6868085 71.8089697,47.7582979 71.5476364,47.7582979 L69.1939394,47.7582979 C68.9088485,47.7582979 68.7442424,47.5659574 68.7900606,47.28 L71.7139394,30.4953191 C71.7631515,30.2331915 71.8819394,30.0425532 72.2875152,30.0425532 L74.6395152,30.0425532 C74.9246061,30.0425532 75.0909091,30.1140426 75.0179394,30.4953191 L73.7350303,37.84 L80.6993939,30.2331915 C80.8419394,30.066383 81.033697,30.0425532 81.2950303,30.0425532 L84.1951515,30.0425532 C84.4802424,30.0425532 84.5990303,30.1378723 84.5990303,30.2808511 C84.5990303,30.4 84.504,30.5668085 84.3614545,30.7097872" id="Fill-11" sketch:type="MSShapeGroup"></path>
                <path d="M86.5149091,30.4953191 C86.5624242,30.2331915 86.8,30.0425532 87.0630303,30.0425532 L89.1078788,30.0425532 C89.3692121,30.0425532 89.5117576,30.2331915 89.4625455,30.4953191 L87.2513939,43.0365957 C87.2276364,43.1795745 87.3006061,43.2510638 87.3481212,43.2510638 C87.4210909,43.2510638 87.4906667,43.1795745 87.5636364,43.0604255 L95.2627879,30.8068085 C95.6429091,30.1855319 95.9517576,30.0425532 96.4523636,30.0425532 L99.0181818,30.0425532 C99.5408485,30.0425532 99.8751515,30.4714894 99.7801212,30.9957447 L96.9258182,47.28 C96.88,47.5438298 96.6644848,47.7582979 96.4031515,47.7582979 L94.3837576,47.7582979 C94.1224242,47.7582979 93.9323636,47.5438298 93.9798788,47.28 L96.094303,35.2868085 C96.1180606,35.1455319 96.0705455,35.0961702 96.0009697,35.0961702 C95.928,35.0961702 95.8584242,35.1455319 95.7633939,35.2868085 L88.4409697,46.9004255 C87.9403636,47.7582979 87.4431515,47.7582979 86.8729697,47.7582979 L84.4700606,47.7582979 C83.9473939,47.7582979 83.5689697,47.3293617 83.662303,46.8034043 L86.5149091,30.4953191" id="Fill-12" sketch:type="MSShapeGroup"></path>
                <path d="M116.003152,30.0425532 C116.242424,30.0425532 116.361212,30.2808511 116.196606,30.4953191 L109.586909,39.0553191 L113.272727,47.28 C113.296485,47.3293617 113.296485,47.3753191 113.296485,47.4008511 C113.296485,47.5914894 113.153939,47.7582979 112.868848,47.7582979 L110.465939,47.7582979 C110.202909,47.7582979 110.038303,47.5659574 109.917818,47.28 L107.353697,41.533617 L103.028121,47.28 C102.788848,47.5914894 102.597091,47.7582979 102.339152,47.7582979 L99.6036364,47.7582979 C99.3660606,47.7582979 99.2693333,47.6153191 99.2693333,47.4944681 C99.2693333,47.4229787 99.2964848,47.3514894 99.342303,47.28 L106.043636,38.6025532 L102.408727,30.4953191 C102.288242,30.2570213 102.38497,30.0425532 102.812606,30.0425532 L105.212121,30.0425532 C105.570182,30.0425532 105.666909,30.2808511 105.758545,30.4953191 L108.304,36.1702128 L112.556606,30.4953191 C112.845091,30.1140426 112.987636,30.0425532 113.366061,30.0425532 L116.003152,30.0425532" id="Fill-13" sketch:type="MSShapeGroup"></path>
                <path d="M4.33915152,73.7361702 L9.80678788,61.2204255 C10.7587879,59.0025532 12.5151515,58.7880851 13.5384242,58.7880851 C14.56,58.7880851 16.2230303,59.0025532 16.4130909,61.2204255 L17.4363636,73.7361702 L19.2894545,73.7361702 C19.5507879,73.7361702 19.7408485,73.9506383 19.6933333,74.2144681 L18.7667879,79.5080851 C18.7192727,79.7685106 18.4579394,79.9829787 18.1966061,79.9829787 L15.8429091,79.9829787 C15.5815758,79.9829787 15.4152727,79.7685106 15.4644848,79.5080851 L15.9854545,76.6944681 L4.93139394,76.6944681 L4.41212121,79.5080851 C4.36121212,79.7685106 4.09987879,79.9829787 3.83854545,79.9829787 L1.48484848,79.9829787 C1.2489697,79.9829787 1.10642424,79.7685106 1.15393939,79.5080851 L2.03127273,74.2144681 C2.08218182,73.9506383 2.31636364,73.7361702 2.57769697,73.7361702 L4.33915152,73.7361702 L4.33915152,73.7361702 Z M7.78569697,73.7361702 L14.1781818,73.7361702 L13.4433939,61.9591489 C13.4433939,61.6714894 13.3704242,61.5778723 13.1345455,61.5778723 C12.8969697,61.5778723 12.824,61.6714894 12.6814545,61.9591489 L7.78569697,73.7361702 L7.78569697,73.7361702 Z" id="Fill-14" sketch:type="MSShapeGroup"></path>
                <path d="M35.3275152,66.226383 L34.7810909,69.4468085 C33.8290909,75.0008511 30.857697,76.8851064 26.6967273,76.8851064 C23.2993939,76.8851064 21.0627879,74.9770213 21.0627879,71.2817021 C21.0627879,70.7097872 21.112,70.1123404 21.2324848,69.4468085 L21.7789091,66.226383 C22.7275152,60.6485106 25.6989091,58.7880851 29.8598788,58.7880851 C33.2606061,58.7880851 35.4938182,60.813617 35.4938182,64.4629787 C35.4938182,65.0110638 35.4208485,65.6068085 35.3275152,66.226383 L35.3275152,66.226383 Z M29.3592727,61.6714894 C26.8901818,61.6714894 25.6530909,62.9838298 25.1066667,66.226383 L24.5602424,69.4468085 C24.4397576,70.1361702 24.3939394,70.733617 24.3939394,71.2340426 C24.3939394,73.307234 25.3425455,74 27.1973333,74 C29.7173333,74 30.9306667,72.5446809 31.4533333,69.4468085 L31.9997576,66.226383 C32.1168485,65.5591489 32.1660606,64.9634043 32.1660606,64.4629787 C32.1660606,62.4119149 31.2378182,61.6714894 29.3592727,61.6714894 L29.3592727,61.6714894 Z" id="Fill-15" sketch:type="MSShapeGroup"></path>
                <path d="M49.6753939,59.1693617 C50.0538182,59.2646809 50.1505455,59.4076596 50.1030303,59.7174468 L49.8179394,61.3157447 C49.7687273,61.6255319 49.7229091,61.8638298 49.1985455,61.8161702 C48.3907879,61.7429787 46.7752727,61.6255319 45.5127273,61.6255319 C43.1861818,61.6255319 41.830303,62.8408511 41.2838788,66.0834043 L40.6899394,69.5897872 C40.5949091,70.1838298 40.5473939,70.7097872 40.5473939,71.1625532 C40.5473939,73.4042553 41.5231515,74.0476596 43.3524848,74.0476596 C44.6116364,74.0476596 46.2288485,73.9285106 47.0841212,73.8570213 C47.5813333,73.8076596 47.5813333,74.0238298 47.5117576,74.3574468 L47.2266667,75.9540426 C47.153697,76.2876596 46.9415758,76.4085106 46.6072727,76.5021277 C46.2288485,76.5991489 44.6353939,76.8851064 42.8060606,76.8851064 C39.9755152,76.8851064 37.1941818,75.5251064 37.1941818,71.3293617 C37.1941818,70.8051064 37.2671515,70.2076596 37.3604848,69.5897872 L37.9561212,66.0834043 C39.0506667,59.693617 42.5209697,58.7880851 45.9675152,58.7880851 C47.7968485,58.7880851 49.3410909,59.0740426 49.6753939,59.1693617" id="Fill-16" sketch:type="MSShapeGroup"></path>
                <path d="M63.4547879,61.7429787 L59.2938182,61.7429787 L56.7483636,76.2161702 C56.7025455,76.48 56.4904242,76.6944681 56.2290909,76.6944681 L53.8753939,76.6944681 C53.6140606,76.6944681 53.3985455,76.48 53.4477576,76.2161702 L55.9898182,61.7429787 L51.8305455,61.7429787 C51.5692121,61.7429787 51.3791515,61.5778723 51.4266667,61.3157447 L51.7575758,59.4314894 C51.8067879,59.1693617 52.0698182,58.9787234 52.3311515,58.9787234 L63.953697,58.9787234 C64.2133333,58.9787234 64.3813333,59.1693617 64.3321212,59.4314894 L64.0012121,61.3157447 C63.953697,61.5778723 63.7161212,61.7429787 63.4547879,61.7429787" id="Fill-17" sketch:type="MSShapeGroup"></path>
                <path d="M66.7027879,59.4314894 C66.7486061,59.1693617 66.9878788,58.9787234 67.2492121,58.9787234 L69.2940606,58.9787234 C69.5553939,58.9787234 69.6979394,59.1693617 69.6487273,59.4314894 L67.4375758,71.972766 C67.4155152,72.1157447 67.4867879,72.187234 67.534303,72.187234 C67.6072727,72.187234 67.6768485,72.1157447 67.7498182,71.9965957 L75.4489697,59.7429787 C75.8290909,59.1217021 76.1379394,58.9787234 76.6385455,58.9787234 L79.2043636,58.9787234 C79.7270303,58.9787234 80.0630303,59.4076596 79.966303,59.9319149 L77.112,76.2161702 C77.0661818,76.48 76.8506667,76.6944681 76.5893333,76.6944681 L74.5699394,76.6944681 C74.3086061,76.6944681 74.1202424,76.48 74.1660606,76.2161702 L76.2804848,64.2229787 C76.3042424,64.08 76.2567273,64.0323404 76.1888485,64.0323404 C76.1141818,64.0323404 76.046303,64.08 75.9495758,64.2229787 L68.6271515,75.8365957 C68.1282424,76.6944681 67.6293333,76.6944681 67.0608485,76.6944681 L64.6579394,76.6944681 C64.1335758,76.6944681 63.7551515,76.2655319 63.8484848,75.7395745 L66.7027879,59.4314894" id="Fill-18" sketch:type="MSShapeGroup"></path>
                <path d="M91.5566061,59.4553191 C91.6024242,59.1931915 91.841697,59.0025532 92.1030303,59.0025532 L94.4567273,59.0025532 C94.7180606,59.0025532 94.9081212,59.1931915 94.8606061,59.4553191 L93.5284848,67.0382979 L100.730424,59.1931915 C100.87297,59.026383 101.039273,59.0025532 101.300606,59.0025532 L104.012364,59.0025532 C104.321212,59.0025532 104.44,59.1217021 104.416242,59.2885106 C104.394182,59.4076596 104.297455,59.5506383 104.178667,59.6714894 L96.713697,67.5608511 L101.324364,76.1940426 C101.373576,76.3114894 101.421091,76.4085106 101.397333,76.48 C101.373576,76.6229787 101.278545,76.6944681 101.039273,76.6944681 L97.8540606,76.6944681 C97.5689697,76.6944681 97.4026667,76.6229787 97.3076364,76.4306383 L93.3163636,68.3012766 L91.9112727,76.2161702 C91.8654545,76.48 91.6533333,76.6944681 91.392,76.6944681 L89.038303,76.6944681 C88.7752727,76.6944681 88.5597576,76.48 88.6106667,76.2161702 L90.0123636,68.3012766 L83.1192727,76.4306383 C82.9750303,76.6229787 82.8562424,76.6944681 82.5711515,76.6944681 L79.3859394,76.6944681 C79.1483636,76.6944681 79.0058182,76.6229787 79.0278788,76.48 C79.0516364,76.4085106 79.1008485,76.3114894 79.1941818,76.1940426 L86.8509091,67.5608511 L82.1435152,59.6714894 C82.0705455,59.5506383 82.0247273,59.4076596 82.0484848,59.2885106 C82.0705455,59.1217021 82.2368485,59.0025532 82.5473939,59.0025532 L85.2557576,59.0025532 C85.5170909,59.0025532 85.6833939,59.026383 85.7801212,59.1931915 L90.2244848,67.0382979 L91.5566061,59.4553191" id="Fill-19" sketch:type="MSShapeGroup"></path>
                <path d="M116.026909,59.1217021 C116.408727,59.1931915 116.454545,59.3123404 116.408727,59.6221277 L116.145697,61.1489362 C116.099879,61.4110638 116.026909,61.6255319 115.575515,61.6255319 L110.727273,61.6255319 C109.347636,61.6255319 108.779152,62.1021277 108.494061,63.6748936 L108.042667,66.2502128 L114.482667,66.2502128 C114.744,66.2502128 114.959515,66.3217021 114.886545,66.7268085 L114.577697,68.4442553 C114.531879,68.706383 114.385939,68.9208511 114.009212,68.9208511 L107.565818,68.9208511 L107.041455,71.9965957 C106.995636,72.3080851 106.971879,72.5702128 106.971879,72.7846809 C106.971879,73.7361702 107.445333,74.0476596 108.563636,74.0476596 L113.411879,74.0476596 C113.673212,74.0476596 113.866667,74.1668085 113.793697,74.5242553 L113.530667,76.0510638 C113.484848,76.3846809 113.318545,76.5021277 112.960485,76.5514894 C112.179879,76.6706383 111.227879,76.8851064 108.397333,76.8851064 C105.712727,76.8851064 103.667879,75.8365957 103.667879,73.1165957 C103.667879,72.7591489 103.689939,72.4017021 103.764606,71.9965957 L105.212121,63.6748936 C105.974061,59.3838298 108.300606,58.7880851 111.558788,58.7880851 C114.385939,58.7880851 115.292121,59.0025532 116.026909,59.1217021" id="Fill-20" sketch:type="MSShapeGroup"></path>
                <path d="M129.519515,76.6944681 L127.165818,76.6944681 C126.907879,76.6944681 126.692364,76.48 126.738182,76.2161702 L128.024485,68.9208511 L121.273939,68.9208511 L119.99103,76.2161702 C119.941818,76.48 119.729697,76.6944681 119.466667,76.6944681 L117.114667,76.6944681 C116.851636,76.6944681 116.636121,76.48 116.68703,76.2161702 L119.63297,59.4314894 C119.678788,59.1693617 119.941818,58.9787234 120.203152,58.9787234 L122.556848,58.9787234 C122.818182,58.9787234 122.984485,59.1693617 122.93697,59.4314894 L121.771152,66.0119149 L128.521697,66.0119149 L129.689212,59.4314894 C129.73503,59.1693617 129.998061,58.9787234 130.259394,58.9787234 L132.611394,58.9787234 C132.874424,58.9787234 133.03903,59.1693617 132.993212,59.4314894 L130.043879,76.2161702 C129.998061,76.48 129.782545,76.6944681 129.519515,76.6944681" id="Fill-21" sketch:type="MSShapeGroup"></path>
                <path d="M136.546667,59.4314894 C136.595879,59.1693617 136.835152,58.9787234 137.093091,58.9787234 L139.137939,58.9787234 C139.399273,58.9787234 139.543515,59.1693617 139.496,59.4314894 L137.284848,71.972766 C137.262788,72.1157447 137.332364,72.187234 137.378182,72.187234 C137.451152,72.187234 137.524121,72.1157447 137.593697,71.9965957 L145.296242,59.7429787 C145.674667,59.1217021 145.985212,58.9787234 146.482424,58.9787234 L149.051636,58.9787234 C149.576,58.9787234 149.906909,59.4076596 149.810182,59.9319149 L146.96097,76.2161702 C146.910061,76.48 146.697939,76.6944681 146.436606,76.6944681 L144.415515,76.6944681 C144.152485,76.6944681 143.964121,76.48 144.009939,76.2161702 L146.127758,64.2229787 C146.151515,64.08 146.105697,64.0323404 146.032727,64.0323404 C145.963152,64.0323404 145.890182,64.08 145.793455,64.2229787 L138.472727,75.8365957 C137.975515,76.6944681 137.474909,76.6944681 136.904727,76.6944681 L134.505212,76.6944681 C133.980848,76.6944681 133.600727,76.2655319 133.695758,75.7395745 L136.546667,59.4314894" id="Fill-22" sketch:type="MSShapeGroup"></path>
                <path d="M150.609455,75.7395745 L153.463758,59.4314894 C153.509576,59.1693617 153.748848,58.9787234 154.010182,58.9787234 L156.05503,58.9787234 C156.316364,58.9787234 156.458909,59.1693617 156.409697,59.4314894 L154.198545,71.972766 C154.174788,72.1157447 154.247758,72.187234 154.295273,72.187234 C154.368242,72.187234 154.437818,72.1157447 154.510788,71.9965957 L162.209939,59.7429787 C162.591758,59.1217021 162.898909,58.9787234 163.399515,58.9787234 L165.965333,58.9787234 C166.488,58.9787234 166.824,59.4076596 166.727273,59.9319149 L163.87297,76.2161702 C163.827152,76.48 163.611636,76.6944681 163.350303,76.6944681 L161.330909,76.6944681 C161.069576,76.6944681 160.881212,76.48 160.92703,76.2161702 L163.041455,64.2229787 C163.065212,64.08 163.019394,64.0323404 162.948121,64.0323404 C162.875152,64.0323404 162.805576,64.08 162.710545,64.2229787 L155.388121,75.8365957 C154.887515,76.6944681 154.392,76.6944681 153.820121,76.6944681 L151.418909,76.6944681 C150.894545,76.6944681 150.516121,76.2655319 150.609455,75.7395745 L150.609455,75.7395745 Z M165.347636,54.187234 C165.371394,54.0680851 165.274667,54.0187234 165.132121,54.0187234 L163.350303,54.0187234 C163.160242,54.0187234 163.065212,54.1140426 162.995636,54.3046809 C162.517091,55.4025532 161.685576,55.8791489 160.808242,55.8791489 C159.929212,55.8791489 159.286061,55.4025532 159.19103,54.3046809 C159.167273,54.1140426 159.121455,54.0187234 158.931394,54.0187234 L157.147879,54.0187234 C157.005333,54.0187234 156.910303,54.0680851 156.886545,54.187234 C156.886545,54.2110638 156.910303,54.2331915 156.886545,54.2825532 C156.979879,56.1174468 157.930182,57.7395745 160.499394,57.7395745 C163.065212,57.7395745 164.585697,56.1174468 165.301818,54.2825532 C165.325576,54.2331915 165.347636,54.2110638 165.347636,54.187234 L165.347636,54.187234 Z" id="Fill-23" sketch:type="MSShapeGroup"></path>
            </g>
        </g>
    </g>
</svg>