<?xml version="1.0" standalone="no"?><!DOCTYPE svg PUBLIC "-//W3C//DTD SVG 1.1//EN" "http://www.w3.org/Graphics/SVG/1.1/DTD/svg11.dtd"><svg width="100%" height="100%" viewBox="0 0 129 153" version="1.1" xmlns="http://www.w3.org/2000/svg" xmlns:xlink="http://www.w3.org/1999/xlink" xml:space="preserve" style="fill-rule:evenodd;clip-rule:evenodd;stroke-linejoin:round;stroke-miterlimit:1.41421;"><g id="Layer1"><path d="M38.255,152l0,-22.686l7.537,0l0,15.124l60.728,0l0,-15.124l7.537,0l0,22.686l-75.802,0ZM38.255,129.314l-7.538,0l0,-15.124l7.538,0l0,15.124ZM121.594,129.314l-7.537,0l0,-22.686l7.537,0l0,22.686ZM30.717,114.19l-7.537,0l0,-15.124l7.537,0l0,15.124ZM129.131,106.628l-7.537,0l0,-45.373l7.537,0l0,45.373ZM23.18,99.066l-7.537,0l0,-15.125l-7.106,0l0,-7.562l7.537,0l0,7.562l7.106,0l0,15.125ZM38.255,91.503l-7.538,0l0,-22.686l-7.537,0l0,-7.562l-14.643,0l0,-7.562l15.074,0l0,7.562l7.106,0l0,-52.934l7.538,0l0,83.182ZM8.537,76.379l-7.537,0l0,-15.124l7.537,0l0,15.124ZM60.866,68.817l-7.537,0l0,-60.496l7.537,0l0,22.686l23.042,0l0,7.562l22.612,0l0,7.562l7.537,0l0,7.562l-7.537,0l0,15.124l-7.537,0l0,-22.686l-15.075,0l0,22.686l-7.537,0l0,-30.248l-15.505,0l0,30.248ZM121.594,53.693l-7.537,0l0,7.562l7.537,0l0,-7.562ZM38.255,8.321l0,-7.562l15.074,0l0,7.562l-15.074,0Z" style="fill:#000;"/></g></svg>