<?xml version="1.0" standalone="no"?><!DOCTYPE svg PUBLIC "-//W3C//DTD SVG 1.1//EN" "http://www.w3.org/Graphics/SVG/1.1/DTD/svg11.dtd"><svg width="100%" height="100%" viewBox="0 0 173 171" version="1.1" xmlns="http://www.w3.org/2000/svg" xmlns:xlink="http://www.w3.org/1999/xlink" xml:space="preserve" style="fill-rule:evenodd;clip-rule:evenodd;stroke-linecap:round;stroke-linejoin:round;stroke-miterlimit:1.41421;"><g id="Layer1"><path d="M127.559,96.768l-0.128,24.284c0,25.447 -20.66,46.107 -46.107,46.107c-25.447,0 -46.107,-20.66 -46.107,-46.107l-0.017,-24.098" style="fill:none;stroke-width:6px;stroke:#000;"/><path d="M78.068,96.359c0,0 76.265,0 89.671,0c1.104,0 2,-0.895 2,-2c0,-12.171 0,-76.171 0,-88.342c0,-1.104 -0.896,-2 -2,-2c-17.475,-0.002 -144,-0.015 -161.477,-0.017c-0.531,0 -1.04,0.211 -1.415,0.586c-0.375,0.375 -0.586,0.884 -0.586,1.414c0,12.173 0,76.187 0,88.359c0,0.531 0.211,1.04 0.586,1.415c0.375,0.375 0.884,0.585 1.414,0.585c8.847,0 44.026,0 44.026,0" style="fill:none;stroke-width:6px;stroke:#000;"/><path d="M87,31.03c16.012,0 29.012,17.272 29.012,17.272c0,0 -13,17.271 -29.012,17.271c-16.012,0 -29.012,-17.271 -29.012,-17.271c0,0 13,-17.272 29.012,-17.272Z" style="fill:none;stroke-width:6px;stroke:#000;"/><circle cx="87" cy="42.947" r="11.917" style="fill:none;stroke-width:6px;stroke:#000;"/><path d="M15.806,40.559l0,19.241" style="fill:none;stroke-width:6px;stroke:#000;"/><circle cx="156.27" cy="50.18" r="5.772" style="fill:#000;"/><path d="M67.138,115.324c2.984,2.791 30.17,15.126 16.668,51.769c-0.822,0.044 -1.649,0.066 -2.482,0.066c-25.447,0 -46.107,-20.701 -46.107,-46.148l0,-0.776l-0.017,-0.009c-0.008,-2.634 1.159,-5.289 2.889,-7.535l17.535,-22.763c4.146,-5.383 11.882,-6.386 17.264,-2.24c5.383,4.146 6.386,11.882 2.24,17.264l-7.99,10.372Z" style="fill:none;stroke-width:6px;stroke:#000;"/><path d="M27.351,4.668l0,91.327" style="fill:none;stroke-width:6px;stroke:#000;"/><path d="M142.8,4.128l0,91.95" style="fill:none;stroke-width:6px;stroke:#000;"/></g></svg>