<?xml version="1.0" standalone="no"?><!DOCTYPE svg PUBLIC "-//W3C//DTD SVG 1.1//EN" "http://www.w3.org/Graphics/SVG/1.1/DTD/svg11.dtd"><svg width="100%" height="100%" viewBox="0 0 137 179" version="1.1" xmlns="http://www.w3.org/2000/svg" xmlns:xlink="http://www.w3.org/1999/xlink" xml:space="preserve" style="fill-rule:evenodd;clip-rule:evenodd;stroke-linecap:round;stroke-linejoin:round;stroke-miterlimit:1.41421;"><g id="Layer1"><path d="M106.458,35.077c0.119,-3.691 -1.264,-7.273 -3.833,-9.926c-2.569,-2.653 -6.104,-4.151 -9.797,-4.151c-9.056,0 -20.777,0 -29.832,0c-3.693,0 -7.228,1.498 -9.797,4.151c-2.569,2.653 -3.952,6.235 -3.833,9.926c0.59,18.293 1.546,47.923 1.546,47.923c0,0 17.502,16 27.168,16c9.667,0 26.832,-16 26.832,-16c0,0 0.955,-29.63 1.546,-47.923Z" style="fill:none;stroke-width:3px;stroke:#C8BA8B;"/><path d="M78.08,56l0,14" style="fill:none;stroke-width:3px;stroke:#C8BA8B;"/><path d="M82.912,70l-9.663,0" style="fill:none;stroke-width:3px;stroke:#C8BA8B;"/><path d="M67.912,79l10,1l10,-1" style="fill:none;stroke-width:3px;stroke:#C8BA8B;"/><circle cx="91.778" cy="51" r="4" style="fill:none;stroke-width:3px;stroke:#C8BA8B;"/><circle cx="64.046" cy="51" r="4" style="fill:none;stroke-width:3px;stroke:#C8BA8B;"/><path d="M100.643,51c0,0 -3.972,-4 -8.865,-4c-4.894,0 -8.866,4 -8.866,4" style="fill:none;stroke-width:3px;stroke:#C8BA8B;"/><path d="M72.912,51c0,0 -3.973,-4 -8.866,-4c-4.893,0 -8.866,4 -8.866,4" style="fill:none;stroke-width:3px;stroke:#C8BA8B;"/><path d="M43.746,110l0,64" style="fill:none;stroke-width:3px;stroke:#C8BA8B;"/><path d="M112.078,113l0,64" style="fill:none;stroke-width:3px;stroke:#C8BA8B;"/><path d="M49.753,47.067l0.642,19.92c-5.279,-0.269 -9.483,-4.641 -9.483,-9.987c0,-5.127 3.867,-9.358 8.841,-9.933ZM105.428,66.987l0.643,-19.92c4.974,0.575 8.841,4.806 8.841,9.933c0,5.346 -4.204,9.718 -9.484,9.987Z" style="fill:none;stroke-width:3px;stroke:#C8BA8B;"/><path d="M106.071,47.067l0.387,-11.99c0.119,-3.691 -1.264,-7.273 -3.833,-9.926c-2.569,-2.653 -6.104,-4.151 -9.797,-4.151c-9.056,0 -20.777,0 -29.832,0c-3.693,0 -7.228,1.498 -9.797,4.151c-2.569,2.653 -3.952,6.235 -3.833,9.926l0.387,11.99c-1.887,0.218 -3.614,0.962 -5.031,2.081l-0.71,-18.25c-0.288,-7.39 2.447,-14.579 7.574,-19.91c5.127,-5.33 12.204,-8.342 19.6,-8.342c4.434,0 9.018,0 13.452,0c7.396,0 14.473,3.012 19.6,8.342c5.127,5.331 7.861,12.52 7.574,19.91l-0.711,18.25c-1.417,-1.119 -3.144,-1.863 -5.03,-2.081Z" style="fill:none;stroke-width:3px;stroke:#C8BA8B;"/><path d="M62.912,11l0,10" style="fill:none;stroke-width:3px;stroke:#C8BA8B;"/><path d="M86.912,9l0,12" style="fill:none;stroke-width:3px;stroke:#C8BA8B;"/><path d="M74.912,7l0,14" style="fill:none;stroke-width:3px;stroke:#C8BA8B;"/><path d="M80.912,13l0,8" style="fill:none;stroke-width:3px;stroke:#C8BA8B;"/><path d="M68.912,15l0,6" style="fill:none;stroke-width:3px;stroke:#C8BA8B;"/><path d="M92.912,15l0,6" style="fill:none;stroke-width:3px;stroke:#C8BA8B;"/><path d="M104.912,83c0,0 0,0 0,0c16.622,0.185 30,13.713 30,30.336c0,25.384 0,57.664 0,57.664" style="fill:none;stroke-width:3px;stroke:#C8BA8B;"/><path d="M20.912,169c0,0 0,-30.967 0,-55.664c0,-16.623 13.377,-30.151 29.999,-30.336c0.001,0 0.001,0 0.001,0" style="fill:none;stroke-width:3px;stroke:#C8BA8B;"/><path d="M58.912,55l10,0" style="fill:none;stroke-width:3px;stroke:#C8BA8B;"/><path d="M86.912,55l10,0" style="fill:none;stroke-width:3px;stroke:#C8BA8B;"/><path d="M24.27,50.479l-22.27,-22.269l4.243,-4.243l34.79,34.79" style="fill:none;stroke-width:3px;stroke:#C8BA8B;"/><path d="M111.477,149c-5.508,-5.507 -81.908,-81.908 -87.416,-87.415c-1.249,-1.25 -1.342,-3.182 -0.208,-4.317c1.618,-1.618 3.603,-3.603 3.603,-3.603l23.334,23.335" style="fill:none;stroke-width:3px;stroke:#C8BA8B;"/><path d="M23.213,57.908l4.243,-4.243l-7.071,-7.071l-4.243,4.243l7.071,7.071Z" style="fill:none;stroke-width:3px;stroke:#C8BA8B;"/><path d="M34.527,60.737l-5.657,5.656" style="fill:none;stroke-width:3px;stroke:#C8BA8B;"/><path d="M38.77,64.979l-5.657,5.657" style="fill:none;stroke-width:3px;stroke:#C8BA8B;"/><path d="M43.012,69.222l-5.657,5.657" style="fill:none;stroke-width:3px;stroke:#C8BA8B;"/><path d="M47.255,73.464l-5.657,5.657" style="fill:none;stroke-width:3px;stroke:#C8BA8B;"/><path d="M10.485,28.21l2.829,-2.829" style="fill:none;stroke-width:3px;stroke:#C8BA8B;"/><path d="M36.912,87l75.166,75.166" style="fill:none;stroke-width:3px;stroke:#C8BA8B;"/><path d="M43.145,130l-22.233,-2" style="fill:none;stroke-width:3px;stroke:#C8BA8B;"/><path d="M112.679,131l22.233,-2" style="fill:none;stroke-width:3px;stroke:#C8BA8B;"/></g></svg>