<?xml version="1.0" standalone="no"?><!DOCTYPE svg PUBLIC "-//W3C//DTD SVG 1.1//EN" "http://www.w3.org/Graphics/SVG/1.1/DTD/svg11.dtd"><svg width="100%" height="100%" viewBox="0 0 111 190" version="1.1" xmlns="http://www.w3.org/2000/svg" xmlns:xlink="http://www.w3.org/1999/xlink" xml:space="preserve" style="fill-rule:evenodd;clip-rule:evenodd;stroke-linecap:round;stroke-linejoin:round;stroke-miterlimit:1.41421;"><g id="Layer1"><path d="M33.099,97.413c-18.352,-7.928 -31.099,-25.291 -31.099,-45.413c0,-27.596 23.973,-50 53.5,-50c29.527,0 53.5,22.404 53.5,50c0,20.001 -12.593,37.275 -30.768,45.268" style="fill:none;stroke-width:3px;stroke:#C8BA8B;"/><path d="M5.977,35.858c1.951,1.951 1.951,5.12 0,7.071c-1.952,1.951 -1.952,5.12 0,7.071c1.951,1.951 1.951,5.12 0,7.071c-1.952,1.951 -1.952,5.12 0,7.071c1.748,1.749 1.93,4.475 0.544,6.427" style="fill:none;stroke-width:3px;stroke:#C8BA8B;"/><path d="M13.006,22.2c1.513,1.961 1.371,4.79 -0.426,6.587c-1.952,1.951 -1.952,5.12 0,7.071c1.951,1.951 1.951,5.12 0,7.071c-1.952,1.951 -1.952,5.12 0,7.071c1.951,1.951 1.951,5.12 0,7.071c-1.952,1.951 -1.952,5.12 0,7.071c1.951,1.951 1.951,5.12 0,7.071c-1.952,1.952 -1.952,5.12 0,7.071c1.265,1.266 1.71,3.043 1.334,4.668" style="fill:none;stroke-width:3px;stroke:#C8BA8B;"/><path d="M18.046,16.397c-0.679,1.785 -0.3,3.882 1.137,5.319c1.951,1.951 1.951,5.119 0,7.071c-1.952,1.951 -1.952,5.12 0,7.071c1.951,1.951 1.951,5.12 0,7.071c-1.952,1.951 -1.952,5.12 0,7.071c1.951,1.951 1.951,5.12 0,7.071c-1.952,1.951 -1.952,5.12 0,7.071c1.951,1.951 1.951,5.12 0,7.071c-1.952,1.952 -1.952,5.12 0,7.071c1.951,1.952 1.951,5.12 0,7.071c-0.549,0.549 -0.943,1.194 -1.184,1.881" style="fill:none;stroke-width:3px;stroke:#C8BA8B;"/><path d="M27.088,9.845c0.432,1.661 -0.002,3.5 -1.302,4.8c-1.951,1.951 -1.951,5.119 0,7.071c1.951,1.951 1.951,5.119 0,7.071c-1.951,1.951 -1.951,5.12 0,7.071c1.951,1.951 1.951,5.12 0,7.071c-1.951,1.951 -1.951,5.12 0,7.071" style="fill:none;stroke-width:3px;stroke:#C8BA8B;"/><path d="M25.786,85.355c-1.951,1.952 -1.951,5.12 0,7.071c0.489,0.489 0.855,1.054 1.099,1.658" style="fill:none;stroke-width:3px;stroke:#C8BA8B;"/><path d="M32.389,7.574c1.951,1.951 1.951,5.119 0,7.071c-1.951,1.951 -1.951,5.119 0,7.071c1.951,1.951 1.951,5.119 0,7.071c-1.951,1.951 -1.951,5.12 0,7.071" style="fill:none;stroke-width:3px;stroke:#C8BA8B;"/><path d="M37.62,4.993c0.183,0.946 0.64,1.849 1.372,2.581c1.952,1.951 1.952,5.119 0,7.071c-1.951,1.951 -1.951,5.119 0,7.071c1.952,1.951 1.952,5.119 0,7.071" style="fill:none;stroke-width:3px;stroke:#C8BA8B;"/><path d="M44.195,3.246c-0.244,1.529 0.223,3.15 1.4,4.328c1.952,1.951 1.952,5.119 0,7.071c-1.951,1.951 -1.951,5.119 0,7.071c1.029,1.029 1.516,2.396 1.459,3.745" style="fill:none;stroke-width:3px;stroke:#C8BA8B;"/><path d="M51.062,2.255c-0.679,1.785 -0.3,3.882 1.136,5.319c1.952,1.951 1.952,5.119 0,7.071c-1.951,1.951 -1.951,5.119 0,7.071c0.732,0.731 1.19,1.634 1.372,2.58" style="fill:none;stroke-width:3px;stroke:#C8BA8B;"/><path d="M57.756,2.033c-0.8,1.831 -0.451,4.044 1.046,5.541c1.951,1.951 1.951,5.119 0,7.071c-1.952,1.951 -1.952,5.119 0,7.071c0.762,0.762 1.226,1.71 1.393,2.698" style="fill:none;stroke-width:3px;stroke:#C8BA8B;"/><path d="M64.103,2.774c-0.432,1.66 0.002,3.5 1.302,4.8c1.951,1.951 1.951,5.119 0,7.071c-1.952,1.951 -1.952,5.119 0,7.071c1.219,1.219 1.677,2.914 1.372,4.49" style="fill:none;stroke-width:3px;stroke:#C8BA8B;"/><path d="M70.567,4.517c0.107,1.116 0.587,2.203 1.441,3.057c1.951,1.951 1.951,5.119 0,7.071c-1.952,1.951 -1.952,5.119 0,7.071c1.951,1.951 1.951,5.119 0,7.071" style="fill:none;stroke-width:3px;stroke:#C8BA8B;"/><path d="M78.611,7.574c1.951,1.951 1.951,5.119 0,7.071c-1.951,1.951 -1.951,5.119 0,7.071c1.951,1.951 1.951,5.119 0,7.071c-1.371,1.371 -1.779,3.343 -1.223,5.071" style="fill:none;stroke-width:3px;stroke:#C8BA8B;"/><path d="M86.645,11.678c-0.123,1.084 -0.6,2.136 -1.431,2.967c-1.951,1.951 -1.951,5.119 0,7.071c1.951,1.951 1.951,5.119 0,7.071c-1.951,1.951 -1.951,5.12 0,7.071c1.951,1.951 1.951,5.12 0,7.071c-0.732,0.732 -1.189,1.635 -1.372,2.58" style="fill:none;stroke-width:3px;stroke:#C8BA8B;"/><path d="M83.554,88.418c-0.118,1.416 0.364,2.873 1.446,3.955" style="fill:none;stroke-width:3px;stroke:#C8BA8B;"/><path d="M91.038,15.653c-1.123,1.915 -0.863,4.42 0.779,6.063c1.952,1.951 1.952,5.119 0,7.071c-1.951,1.951 -1.951,5.12 0,7.071c1.952,1.951 1.952,5.12 0,7.071c-1.951,1.951 -1.951,5.12 0,7.071c1.952,1.951 1.952,5.12 0,7.071c-1.951,1.951 -1.951,5.12 0,7.071c1.952,1.951 1.952,5.12 0,7.071c-1.951,1.952 -1.951,5.12 0,7.071c1.952,1.952 1.952,5.12 0,7.071c-1.219,1.22 -1.677,2.915 -1.372,4.491" style="fill:none;stroke-width:3px;stroke:#C8BA8B;"/><path d="M99.792,24.296c0.305,1.576 -0.152,3.271 -1.372,4.491c-1.951,1.951 -1.951,5.12 0,7.071c1.952,1.951 1.952,5.12 0,7.071c-1.951,1.951 -1.951,5.12 0,7.071c1.952,1.951 1.952,5.12 0,7.071c-1.951,1.951 -1.951,5.12 0,7.071c1.952,1.951 1.952,5.12 0,7.071c-1.951,1.952 -1.951,5.12 0,7.071c0.515,0.515 0.894,1.114 1.137,1.753" style="fill:none;stroke-width:3px;stroke:#C8BA8B;"/><path d="M103.77,30.884c-0.51,1.705 -0.092,3.629 1.253,4.974c1.952,1.951 1.952,5.12 0,7.071c-1.951,1.951 -1.951,5.12 0,7.071c1.952,1.951 1.952,5.12 0,7.071c-1.951,1.951 -1.951,5.12 0,7.071c0.774,0.774 1.241,1.739 1.401,2.743" style="fill:none;stroke-width:3px;stroke:#C8BA8B;"/><g><g transform="matrix(0.765293,-0.643682,0.643682,0.765293,-329.449,102.473)"><g transform="matrix(0.0689161,-0.997622,0.997622,0.0689161,289.385,542.916)"><text x="435.55px" y="116.425px" style="font-family:Roboto;font-size:25px;font-weight:300;fill:#C8BA8B;stroke-width:2px;stroke-linecap:butt;stroke:#C8BA8B;">Y</text></g><g transform="matrix(0.213081,-0.977035,0.977035,0.213081,243.993,506.569)"><text x="436.474px" y="101.814px" style="font-family:Roboto;font-size:25px;font-weight:300;fill:#C8BA8B;stroke-width:2px;stroke-linecap:butt;stroke:#C8BA8B;">O</text></g><g transform="matrix(0.364074,-0.93137,0.93137,0.364074,200.192,464.209)"><text x="440.034px" y="85.505px" style="font-family:Roboto;font-size:25px;font-weight:300;fill:#C8BA8B;stroke-width:2px;stroke-linecap:butt;stroke:#C8BA8B;">U</text></g><g transform="matrix(0.554597,-0.832119,0.832119,0.554597,146.125,402.297)"><text x="448.856px" y="64.651px" style="font-family:Roboto;font-size:25px;font-weight:300;fill:#C8BA8B;stroke-width:2px;stroke-linecap:butt;stroke:#C8BA8B;">R</text></g><g transform="matrix(0.673427,-0.739254,0.739254,0.673427,111.873,355.175)"><text x="457.936px" y="50.965px" style="font-family:Roboto;font-size:25px;font-weight:300;fill:#C8BA8B;stroke-width:2px;stroke-linecap:butt;stroke:#C8BA8B;">O</text></g><g transform="matrix(0.778032,-0.628224,0.628224,0.778032,79.8646,303.334)"><text x="469.188px" y="38.649px" style="font-family:Roboto;font-size:25px;font-weight:300;fill:#C8BA8B;stroke-width:2px;stroke-linecap:butt;stroke:#C8BA8B;">C</text></g><g transform="matrix(0.866943,-0.498406,0.498406,0.866943,49.94,243.909)"><text x="481.79px" y="28.421px" style="font-family:Roboto;font-size:25px;font-weight:300;fill:#C8BA8B;stroke-width:2px;stroke-linecap:butt;stroke:#C8BA8B;">K</text></g><g transform="matrix(0.950269,-0.311429,0.311429,0.950269,19.3312,156.915)"><text x="500.991px" y="17.928px" style="font-family:Roboto;font-size:25px;font-weight:300;fill:#C8BA8B;stroke-width:2px;stroke-linecap:butt;stroke:#C8BA8B;">D</text></g><g transform="matrix(0.986537,-0.163539,0.163539,0.986537,4.86343,84.6497)"><text x="516.56px" y="12.786px" style="font-family:Roboto;font-size:25px;font-weight:300;fill:#C8BA8B;stroke-width:2px;stroke-linecap:butt;stroke:#C8BA8B;">U</text></g><g transform="matrix(0.999977,-0.00673426,0.00673426,0.999977,-0.0555708,3.58964)"><text x="533.008px" y="10.047px" style="font-family:Roboto;font-size:25px;font-weight:300;fill:#C8BA8B;stroke-width:2px;stroke-linecap:butt;stroke:#C8BA8B;">D</text></g><g transform="matrix(0.99034,0.138661,-0.138661,0.99034,6.68459,-76.0875)"><text x="549.42px" y="9.931px" style="font-family:Roboto;font-size:25px;font-weight:300;fill:#C8BA8B;stroke-width:2px;stroke-linecap:butt;stroke:#C8BA8B;">E</text></g></g></g><path d="M46.839,23.987c0.431,1.661 -0.003,3.5 -1.302,4.8c-1.952,1.951 -1.952,5.12 0,7.071c1.951,1.951 1.951,5.12 0,7.071c-1.952,1.951 -1.952,5.12 0,7.071" style="fill:none;stroke-width:3px;stroke:#C8BA8B;"/><path d="M40.223,26.787c-0.235,0.732 -0.643,1.42 -1.223,2c-1.951,1.951 -1.951,5.12 0,7.071c1.951,1.951 1.951,5.12 0,7.071c-1.951,1.951 -1.951,5.12 0,7.071" style="fill:none;stroke-width:3px;stroke:#C8BA8B;"/><path d="M31.582,34.668c0.228,0.428 0.521,0.83 0.881,1.19c1.952,1.951 1.952,5.12 0,7.071c-1.951,1.951 -1.951,5.12 0,7.071" style="fill:none;stroke-width:3px;stroke:#C8BA8B;"/><path d="M44.366,92l11.134,0l11.134,-3" style="fill:none;stroke-width:3px;stroke:#C8BA8B;"/><path d="M51,98.23l9,-0.23" style="fill:none;stroke-width:3px;stroke:#C8BA8B;"/><path d="M85,53.848c0,-16.282 -13.219,-29.5 -29.5,-29.5c-16.281,0 -29.5,13.218 -29.5,29.5l0,25.652c0,16.281 19.667,32.5 29.5,32.5c9.833,0 29.5,-16.219 29.5,-32.5l0,-25.652Z" style="fill:none;stroke-width:3px;stroke:#C8BA8B;"/><path d="M51.652,76l7.696,0" style="fill:none;stroke-width:3px;stroke:#C8BA8B;"/><circle cx="40.75" cy="62.276" r="4" style="fill:none;stroke-width:3px;stroke:#C8BA8B;"/><circle cx="70.25" cy="62.276" r="4" style="fill:none;stroke-width:3px;stroke:#C8BA8B;"/><path d="M31.884,62.276c0,0 3.973,-4 8.866,-4c4.893,0 8.866,4 8.866,4" style="fill:none;stroke-width:3px;stroke:#C8BA8B;"/><path d="M79.116,62.276c0,0 -3.973,-4 -8.866,-4c-4.893,0 -8.866,4 -8.866,4" style="fill:none;stroke-width:3px;stroke:#C8BA8B;"/><path d="M30.87,58.276l2.514,2.874" style="fill:none;stroke-width:3px;stroke:#C8BA8B;"/><path d="M80.13,58.276l-2.514,2.874" style="fill:none;stroke-width:3px;stroke:#C8BA8B;"/><path d="M34.542,56l1.685,3.426" style="fill:none;stroke-width:3px;stroke:#C8BA8B;"/><path d="M76.458,56l-1.685,3.426" style="fill:none;stroke-width:3px;stroke:#C8BA8B;"/><path d="M39.375,104c-8.286,0 -15.366,3.798 -21.225,10.558c-5.858,6.761 -8.15,14.93 -8.15,24.49c0,23.548 0,43.952 0,43.952" style="fill:none;stroke-width:3px;stroke:#C8BA8B;"/><path d="M101,183c0,0 0,-20.404 0,-43.952c0,-9.56 -2.292,-17.729 -8.15,-24.49c-5.859,-6.76 -12.939,-10.558 -21.225,-10.558" style="fill:none;stroke-width:3px;stroke:#C8BA8B;"/><path d="M24.733,138l0,47" style="fill:none;stroke-width:3px;stroke:#C8BA8B;"/><path d="M86.267,138l0,50" style="fill:none;stroke-width:3px;stroke:#C8BA8B;"/><path d="M88,110c0,0 -17.707,21.793 -26.981,33.208c-1.35,1.661 -3.378,2.626 -5.519,2.626c-2.141,0 -4.169,-0.965 -5.519,-2.626c-9.274,-11.415 -26.981,-33.208 -26.981,-33.208" style="fill:none;stroke-width:3px;stroke:#C8BA8B;"/><g><path d="M39.304,175.559l7.741,-18.559l7.742,18.559" style="fill:none;stroke-width:3px;stroke:#C8BA8B;"/><path d="M41.847,169.997l10.397,0" style="fill:none;stroke-width:3px;stroke:#C8BA8B;"/><path d="M60.242,164.142c0,0 0.584,-0.327 1.272,-0.714c1.367,-0.767 3.03,-0.793 4.42,-0.068c0,0 0,0 0.001,0c1.697,0.884 2.761,2.638 2.761,4.551c0,3.178 0,7.648 0,7.648" style="fill:none;stroke-width:3px;stroke:#C8BA8B;"/><path d="M68.696,168.697c0,0 -3.582,0 -6.375,0c-1.794,0 -3.248,1.454 -3.248,3.248c0,0.001 0,0.002 0,0.003c0,1.794 1.454,3.248 3.248,3.248c0.381,0 0.777,0 1.177,0c2.871,0 5.198,-2.328 5.198,-5.198c0,-0.765 0,-1.301 0,-1.301Z" style="fill:none;stroke-width:3px;stroke:#C8BA8B;"/></g></g></svg>