<?xml version="1.0" standalone="no"?><!DOCTYPE svg PUBLIC "-//W3C//DTD SVG 1.1//EN" "http://www.w3.org/Graphics/SVG/1.1/DTD/svg11.dtd"><svg width="100%" height="100%" viewBox="0 0 124 187" version="1.1" xmlns="http://www.w3.org/2000/svg" xmlns:xlink="http://www.w3.org/1999/xlink" xml:space="preserve" style="fill-rule:evenodd;clip-rule:evenodd;stroke-linecap:round;stroke-linejoin:round;stroke-miterlimit:1.41421;"><g id="Layer1"><path d="M60,112l0,73" style="fill:none;stroke-width:3px;stroke:#C8BA8B;"/><path d="M65.742,121.968l-0.038,0l-0.038,-0.002l-0.038,-0.002l-0.038,-0.004l-0.037,-0.004l-0.037,-0.005l-0.037,-0.006l-0.036,-0.007l-0.036,-0.008l-0.036,-0.009l-0.035,-0.009l-0.035,-0.011l-0.035,-0.011l-0.034,-0.012l-0.034,-0.013l-0.033,-0.014l-0.033,-0.014l-0.033,-0.015l-0.032,-0.016l-0.032,-0.017l-0.031,-0.018l-0.031,-0.018l-0.031,-0.019l-0.029,-0.02l-0.03,-0.02l-0.029,-0.021l-0.028,-0.022l-0.028,-0.022l-0.027,-0.023l-0.027,-0.024l-0.026,-0.024l-0.025,-0.025l-0.025,-0.025l-0.024,-0.026l-0.024,-0.027l-0.023,-0.027l-0.022,-0.028l-0.022,-0.028l-0.021,-0.029l-0.02,-0.029l-0.02,-0.03l-0.019,-0.031l-0.018,-0.031l-0.018,-0.031l-0.017,-0.032l-0.016,-0.032l-0.015,-0.032l-0.014,-0.034l-0.014,-0.033l-0.013,-0.034l-0.012,-0.034l-0.011,-0.035l-0.011,-0.035l-0.009,-0.035l-0.009,-0.036l-0.008,-0.036l-0.007,-0.036l-0.006,-0.037l-0.005,-0.037l-0.004,-0.037l-0.004,-0.038l-0.002,-0.038l-0.002,-0.038l0,-0.038l0,-0.038l0.002,-0.038l0.002,-0.038l0.004,-0.038l0.004,-0.037l0.005,-0.037l0.006,-0.037l0.007,-0.036l0.008,-0.036l0.009,-0.036l0.009,-0.035l0.011,-0.035l0.011,-0.035l0.012,-0.034l0.013,-0.034l0.014,-0.033l0.014,-0.033l0.015,-0.033l0.016,-0.032l0.017,-0.032l0.018,-0.031l0.018,-0.031l0.019,-0.031l0.02,-0.029l0.02,-0.03l0.021,-0.029l0.022,-0.028l0.022,-0.028l0.023,-0.027l0.024,-0.027l0.024,-0.026l0.025,-0.025l0.025,-0.025l0.026,-0.024l0.027,-0.024l0.027,-0.023l0.028,-0.022l0.028,-0.022l0.029,-0.021l0.03,-0.02l0.029,-0.02l0.031,-0.019l0.031,-0.018l0.031,-0.018l0.032,-0.017l0.032,-0.016l0.033,-0.015l0.033,-0.014l0.033,-0.014l0.034,-0.013l0.034,-0.012l0.035,-0.011l0.035,-0.011l0.035,-0.009l0.036,-0.009l0.036,-0.008l0.036,-0.007l0.037,-0.006l0.037,-0.005l0.037,-0.004l0.038,-0.004l0.038,-0.002l0.038,-0.002l0.038,0l0.038,0l0.038,0.002l0.038,0.002l0.038,0.004l0.037,0.004l0.037,0.005l0.037,0.006l0.036,0.007l0.036,0.008l0.036,0.009l0.035,0.009l0.035,0.011l0.035,0.011l0.034,0.012l0.034,0.013l0.033,0.014l0.034,0.014l0.032,0.015l0.032,0.016l0.032,0.017l0.031,0.018l0.031,0.018l0.031,0.019l0.03,0.02l0.029,0.02l0.029,0.021l0.028,0.022l0.028,0.022l0.027,0.023l0.027,0.024l0.026,0.024l0.025,0.025l0.025,0.025l0.024,0.026l0.024,0.027l0.023,0.027l0.022,0.028l0.022,0.028l0.021,0.029l0.02,0.03l0.02,0.029l0.019,0.031l0.018,0.031l0.018,0.031l0.017,0.032l0.016,0.032l0.015,0.033l0.014,0.033l0.014,0.033l0.013,0.034l0.012,0.034l0.011,0.035l0.011,0.035l0.009,0.035l0.009,0.036l0.008,0.036l0.007,0.036l0.006,0.037l0.005,0.037l0.004,0.037l0.004,0.038l0.002,0.038l0.002,0.038l0,0.038l0,0.038l-0.002,0.038l-0.002,0.038l-0.004,0.038l-0.004,0.037l-0.005,0.037l-0.006,0.037l-0.007,0.036l-0.008,0.036l-0.009,0.036l-0.009,0.035l-0.011,0.035l-0.011,0.035l-0.012,0.034l-0.013,0.034l-0.014,0.033l-0.014,0.034l-0.015,0.032l-0.016,0.032l-0.017,0.032l-0.018,0.031l-0.018,0.031l-0.019,0.031l-0.02,0.03l-0.02,0.029l-0.021,0.029l-0.022,0.028l-0.022,0.028l-0.023,0.027l-0.024,0.027l-0.024,0.026l-0.025,0.025l-0.025,0.025l-0.026,0.024l-0.027,0.024l-0.027,0.023l-0.028,0.022l-0.028,0.022l-0.029,0.021l-0.029,0.02l-0.03,0.02l-0.031,0.019l-0.031,0.018l-0.031,0.018l-0.032,0.017l-0.032,0.016l-0.032,0.015l-0.034,0.014l-0.033,0.014l-0.034,0.013l-0.034,0.012l-0.035,0.011l-0.035,0.011l-0.035,0.009l-0.036,0.009l-0.036,0.008l-0.036,0.007l-0.037,0.006l-0.037,0.005l-0.037,0.004l-0.038,0.004l-0.038,0.002l-0.038,0.002l-0.038,0ZM65.742,120.5l0,0l0.001,0l0,0l0.001,0l0.001,-0.001l0.001,0l0.002,0l0,0l0.002,-0.001l0,0l0.001,-0.001l0,0l0,0l0.001,0l0.001,-0.001l0,0l0,0l0.001,0l0,-0.001l0,0l0,0l0.001,-0.001l0,-0.001l0,0l0,0l0.001,-0.001l0,-0.001l0,-0.001l0.001,-0.001l0,-0.001l0,0l0,0l0.001,-0.002l0,-0.001l0,-0.001l0,0l0,0l0,-0.002l0,0l-0.001,-0.002l0,0l0,0l0,-0.001l-0.001,-0.001l0,-0.001l0,-0.001l0,0l0,-0.001l-0.001,-0.001l-0.001,-0.001l0,0l0,0l-0.001,-0.001l0,0l-0.001,-0.001l0,0l-0.001,0l0,0l0,0l-0.001,-0.001l-0.002,0l0,0l0,-0.001l-0.002,0l0,0l-0.002,-0.001l-0.001,0l0,0l-0.001,0l0,0l0,0l0,0l-0.001,0l-0.001,0l0,0l-0.002,0.001l0,0l-0.001,0l-0.002,0.001l-0.002,0l0,0.001l-0.001,0l0,0l-0.001,0.001l0,0l0,0l-0.001,0.001l0,0l-0.001,0.001l0,0l0,0.001l0,0l-0.001,0.001l0,0l-0.001,0.002l0,0l0,0.002l-0.001,0.002l0,0l0,0l0,0.001l0,0.001l0,0l0.003,0.009l0.005,0.005l0.008,0.002Z" style="fill:#C8BA8B;"/><path d="M65.742,146.484l-0.038,0l-0.038,-0.002l-0.038,-0.002l-0.038,-0.004l-0.037,-0.004l-0.037,-0.005l-0.037,-0.006l-0.036,-0.007l-0.036,-0.008l-0.036,-0.009l-0.035,-0.009l-0.035,-0.011l-0.035,-0.011l-0.034,-0.012l-0.034,-0.013l-0.033,-0.014l-0.033,-0.014l-0.033,-0.015l-0.032,-0.016l-0.032,-0.017l-0.031,-0.018l-0.031,-0.018l-0.031,-0.019l-0.029,-0.02l-0.03,-0.02l-0.029,-0.021l-0.028,-0.022l-0.028,-0.022l-0.027,-0.023l-0.027,-0.024l-0.026,-0.024l-0.025,-0.025l-0.025,-0.025l-0.024,-0.026l-0.024,-0.027l-0.023,-0.027l-0.022,-0.028l-0.022,-0.028l-0.021,-0.029l-0.02,-0.03l-0.02,-0.029l-0.019,-0.031l-0.018,-0.031l-0.018,-0.031l-0.017,-0.032l-0.016,-0.032l-0.015,-0.033l-0.014,-0.033l-0.014,-0.033l-0.013,-0.034l-0.012,-0.034l-0.011,-0.035l-0.011,-0.035l-0.009,-0.035l-0.009,-0.036l-0.008,-0.036l-0.007,-0.036l-0.006,-0.037l-0.005,-0.037l-0.004,-0.037l-0.004,-0.038l-0.002,-0.038l-0.002,-0.038l0,-0.038l0,-0.038l0.002,-0.038l0.002,-0.038l0.004,-0.038l0.004,-0.037l0.005,-0.037l0.006,-0.037l0.007,-0.036l0.008,-0.036l0.009,-0.036l0.009,-0.035l0.011,-0.035l0.011,-0.035l0.012,-0.034l0.013,-0.034l0.014,-0.033l0.014,-0.033l0.015,-0.033l0.016,-0.032l0.017,-0.032l0.018,-0.031l0.018,-0.031l0.019,-0.031l0.02,-0.029l0.02,-0.03l0.021,-0.029l0.022,-0.028l0.022,-0.028l0.023,-0.027l0.024,-0.027l0.024,-0.026l0.025,-0.025l0.025,-0.025l0.026,-0.024l0.027,-0.024l0.027,-0.023l0.028,-0.022l0.028,-0.022l0.029,-0.021l0.03,-0.02l0.029,-0.02l0.031,-0.019l0.031,-0.018l0.031,-0.018l0.032,-0.017l0.032,-0.016l0.033,-0.015l0.033,-0.014l0.033,-0.014l0.034,-0.013l0.034,-0.012l0.035,-0.011l0.035,-0.011l0.035,-0.009l0.036,-0.009l0.036,-0.008l0.036,-0.007l0.037,-0.006l0.037,-0.005l0.037,-0.004l0.038,-0.004l0.038,-0.002l0.038,-0.002l0.038,0l0.038,0l0.038,0.002l0.038,0.002l0.038,0.004l0.037,0.004l0.037,0.005l0.037,0.006l0.036,0.007l0.036,0.008l0.036,0.009l0.035,0.009l0.035,0.011l0.035,0.011l0.034,0.012l0.034,0.013l0.033,0.014l0.034,0.014l0.032,0.015l0.032,0.016l0.032,0.017l0.031,0.018l0.031,0.018l0.031,0.019l0.03,0.02l0.029,0.02l0.029,0.021l0.028,0.022l0.028,0.022l0.027,0.023l0.027,0.024l0.026,0.024l0.025,0.025l0.025,0.025l0.024,0.026l0.024,0.027l0.023,0.027l0.022,0.028l0.022,0.028l0.021,0.029l0.02,0.03l0.02,0.029l0.019,0.031l0.018,0.031l0.018,0.031l0.017,0.032l0.016,0.032l0.015,0.033l0.014,0.033l0.014,0.033l0.013,0.034l0.012,0.034l0.011,0.035l0.011,0.035l0.009,0.035l0.009,0.036l0.008,0.036l0.007,0.036l0.006,0.037l0.005,0.037l0.004,0.037l0.004,0.038l0.002,0.038l0.002,0.038l0,0.038l0,0.038l-0.002,0.038l-0.002,0.038l-0.004,0.038l-0.004,0.037l-0.005,0.037l-0.006,0.037l-0.007,0.036l-0.008,0.036l-0.009,0.036l-0.009,0.035l-0.011,0.035l-0.011,0.035l-0.012,0.034l-0.013,0.034l-0.014,0.033l-0.014,0.033l-0.015,0.033l-0.016,0.032l-0.017,0.032l-0.018,0.031l-0.018,0.031l-0.019,0.031l-0.02,0.029l-0.02,0.03l-0.021,0.029l-0.022,0.028l-0.022,0.028l-0.023,0.027l-0.024,0.027l-0.024,0.026l-0.025,0.025l-0.025,0.025l-0.026,0.024l-0.027,0.024l-0.027,0.023l-0.028,0.022l-0.028,0.022l-0.029,0.021l-0.029,0.02l-0.03,0.02l-0.031,0.019l-0.031,0.018l-0.031,0.018l-0.032,0.017l-0.032,0.016l-0.032,0.015l-0.034,0.014l-0.033,0.014l-0.034,0.013l-0.034,0.012l-0.035,0.011l-0.035,0.011l-0.035,0.009l-0.036,0.009l-0.036,0.008l-0.036,0.007l-0.037,0.006l-0.037,0.005l-0.037,0.004l-0.038,0.004l-0.038,0.002l-0.038,0.002l-0.038,0ZM65.742,145.016l0.001,0l0,0l0.001,0l0,0l0.002,-0.001l0.002,0l0,0l0.002,-0.001l0,0l0.001,-0.001l0.002,-0.001l0,0l0,0l0,0l0,0l0.001,-0.001l0,0l0,0l0.001,-0.001l0,-0.001l0.001,-0.001l0,0l0,-0.001l0.001,-0.002l0,-0.001l0,-0.001l0,0l0.001,-0.001l0,0l0,-0.002l0,0l0,0l0,-0.001l0,-0.001l-0.001,-0.002l0,0l0,0l0,-0.001l-0.001,-0.001l0,-0.001l0,-0.001l-0.001,-0.001l0,0l0,0l0,-0.001l-0.001,-0.001l0,0l0,-0.001l-0.001,0l0,0l-0.001,0l0,-0.001l-0.001,0l0,0l-0.001,-0.001l-0.001,0l-0.001,0l-0.001,-0.001l-0.001,0l0,0l-0.002,-0.001l-0.001,0l0,0l-0.001,0l-0.001,0l-0.001,0l0,0l-0.002,0.001l0,0l-0.003,0.001l0,0l-0.001,0l-0.001,0.001l-0.001,0l0,0.001l-0.001,0l0,0l-0.001,0.001l0,0l0,0l0,0l-0.001,0.002l0,0l-0.001,0.001l0,0l-0.001,0.002l0,0l0,0.002l-0.001,0.002l0,0l0,0.001l0,0l0,0.001l0,0l0,0l0.003,0.009l0.002,0.003l0.006,0.003l0.005,0.001Z" style="fill:#C8BA8B;"/><path d="M65.742,171l-0.038,0l-0.038,-0.002l-0.038,-0.002l-0.038,-0.004l-0.037,-0.004l-0.037,-0.005l-0.037,-0.006l-0.036,-0.007l-0.036,-0.008l-0.036,-0.009l-0.035,-0.009l-0.035,-0.011l-0.035,-0.011l-0.034,-0.012l-0.034,-0.013l-0.033,-0.014l-0.033,-0.014l-0.033,-0.015l-0.032,-0.016l-0.032,-0.017l-0.031,-0.018l-0.031,-0.018l-0.031,-0.019l-0.029,-0.02l-0.03,-0.02l-0.029,-0.021l-0.028,-0.022l-0.028,-0.022l-0.027,-0.023l-0.027,-0.024l-0.026,-0.024l-0.025,-0.025l-0.025,-0.025l-0.024,-0.026l-0.024,-0.027l-0.023,-0.027l-0.022,-0.028l-0.022,-0.028l-0.021,-0.029l-0.02,-0.03l-0.02,-0.029l-0.019,-0.031l-0.018,-0.031l-0.018,-0.031l-0.017,-0.032l-0.016,-0.032l-0.015,-0.033l-0.014,-0.033l-0.014,-0.033l-0.013,-0.034l-0.012,-0.034l-0.011,-0.035l-0.011,-0.035l-0.009,-0.035l-0.009,-0.036l-0.008,-0.036l-0.007,-0.036l-0.006,-0.037l-0.005,-0.037l-0.004,-0.037l-0.004,-0.038l-0.002,-0.038l-0.002,-0.038l0,-0.038l0,-0.038l0.002,-0.038l0.002,-0.038l0.004,-0.038l0.004,-0.037l0.005,-0.037l0.006,-0.037l0.007,-0.036l0.008,-0.036l0.009,-0.036l0.009,-0.035l0.011,-0.035l0.011,-0.035l0.012,-0.034l0.013,-0.034l0.014,-0.033l0.014,-0.034l0.015,-0.032l0.016,-0.032l0.017,-0.032l0.018,-0.031l0.018,-0.031l0.019,-0.031l0.02,-0.03l0.02,-0.029l0.021,-0.029l0.022,-0.028l0.022,-0.028l0.023,-0.027l0.024,-0.027l0.024,-0.026l0.025,-0.025l0.025,-0.025l0.026,-0.024l0.027,-0.024l0.027,-0.023l0.028,-0.022l0.028,-0.022l0.029,-0.021l0.03,-0.02l0.029,-0.02l0.031,-0.019l0.031,-0.018l0.031,-0.018l0.032,-0.017l0.032,-0.016l0.033,-0.015l0.033,-0.014l0.033,-0.014l0.034,-0.013l0.034,-0.012l0.035,-0.011l0.035,-0.011l0.035,-0.009l0.036,-0.009l0.036,-0.008l0.036,-0.007l0.037,-0.006l0.037,-0.005l0.037,-0.004l0.038,-0.004l0.038,-0.002l0.038,-0.002l0.038,0l0.038,0l0.038,0.002l0.038,0.002l0.038,0.004l0.037,0.004l0.037,0.005l0.037,0.006l0.036,0.007l0.036,0.008l0.036,0.009l0.035,0.009l0.035,0.011l0.035,0.011l0.034,0.012l0.034,0.013l0.033,0.014l0.034,0.014l0.032,0.015l0.032,0.016l0.032,0.017l0.031,0.018l0.031,0.018l0.031,0.019l0.03,0.02l0.029,0.02l0.029,0.021l0.028,0.022l0.028,0.022l0.027,0.023l0.027,0.024l0.026,0.024l0.025,0.025l0.025,0.025l0.024,0.026l0.024,0.027l0.023,0.027l0.022,0.028l0.022,0.028l0.021,0.029l0.02,0.029l0.02,0.03l0.019,0.031l0.018,0.031l0.018,0.031l0.017,0.032l0.016,0.032l0.015,0.032l0.014,0.034l0.014,0.033l0.013,0.034l0.012,0.034l0.011,0.035l0.011,0.035l0.009,0.035l0.009,0.036l0.008,0.036l0.007,0.036l0.006,0.037l0.005,0.037l0.004,0.037l0.004,0.038l0.002,0.038l0.002,0.038l0,0.038l0,0.038l-0.002,0.038l-0.002,0.038l-0.004,0.038l-0.004,0.037l-0.005,0.037l-0.006,0.037l-0.007,0.036l-0.008,0.036l-0.009,0.036l-0.009,0.035l-0.011,0.035l-0.011,0.035l-0.012,0.034l-0.013,0.034l-0.014,0.033l-0.014,0.033l-0.015,0.033l-0.016,0.032l-0.017,0.032l-0.018,0.031l-0.018,0.031l-0.019,0.031l-0.02,0.029l-0.02,0.03l-0.021,0.029l-0.022,0.028l-0.022,0.028l-0.023,0.027l-0.024,0.027l-0.024,0.026l-0.025,0.025l-0.025,0.025l-0.026,0.024l-0.027,0.024l-0.027,0.023l-0.028,0.022l-0.028,0.022l-0.029,0.021l-0.029,0.02l-0.03,0.02l-0.031,0.019l-0.031,0.018l-0.031,0.018l-0.032,0.017l-0.032,0.016l-0.032,0.015l-0.034,0.014l-0.033,0.014l-0.034,0.013l-0.034,0.012l-0.035,0.011l-0.035,0.011l-0.035,0.009l-0.036,0.009l-0.036,0.008l-0.036,0.007l-0.037,0.006l-0.037,0.005l-0.037,0.004l-0.038,0.004l-0.038,0.002l-0.038,0.002l-0.038,0ZM65.742,169.532l0,0l0.001,0l0,0l0.001,0l0.001,-0.001l0.001,0l0.002,0l0,-0.001l0,0l0.002,0l0.001,-0.001l0,0l0,0l0.001,0l0.001,-0.001l0,0l0,0l0.001,0l0,-0.001l0,0l0,0l0,0l0,0l0.001,-0.001l0,-0.001l0,0l0,0l0.001,-0.001l0,-0.001l0,-0.001l0.001,-0.001l0,-0.001l0,0l0,0l0.001,-0.002l0,0l0,-0.002l0,0l0,0l0,-0.002l0,0l-0.001,-0.002l0,0l0,0l0,-0.001l-0.001,-0.001l0,-0.001l0,-0.001l0,-0.001l-0.001,0l0,-0.001l-0.001,-0.001l0,0l0,0l-0.001,-0.001l0,0l-0.001,-0.001l0,0l-0.001,0l0,0l0,0l-0.001,-0.001l-0.002,-0.001l0,0l0,0l-0.002,0l-0.001,0l-0.001,-0.001l-0.001,0l0,0l-0.001,0l0,0l0,0l0,0l-0.001,0l-0.001,0l0,0l-0.001,0l-0.001,0.001l0,0l-0.001,0l-0.002,0.001l-0.002,0l0,0.001l-0.001,0l0,0l-0.001,0.001l0,0l0,0l-0.001,0.001l0,0l-0.001,0.001l0,0.001l0,0l0,0l-0.001,0.001l0,0l-0.001,0.002l0,0l0,0.001l-0.001,0.003l0,0l0,0l0,0.001l0,0.001l0,0l0.003,0.009l0.004,0.005l0.009,0.002Z" style="fill:#C8BA8B;"/><path d="M74,91l0,6" style="fill:none;stroke-width:3px;stroke:#C8BA8B;"/><path d="M68,91l0,10" style="fill:none;stroke-width:3px;stroke:#C8BA8B;"/><path d="M62,91l0,12" style="fill:none;stroke-width:3px;stroke:#C8BA8B;"/><path d="M56,91l0,10" style="fill:none;stroke-width:3px;stroke:#C8BA8B;"/><path d="M50,91l0,6" style="fill:none;stroke-width:3px;stroke:#C8BA8B;"/><circle cx="49.134" cy="53" r="4" style="fill:none;stroke-width:3px;stroke:#C8BA8B;"/><circle cx="74.866" cy="53" r="4" style="fill:none;stroke-width:3px;stroke:#C8BA8B;"/><path d="M58,53c0,0 -3.973,-4 -8.866,-4c-4.893,0 -8.866,4 -8.866,4" style="fill:none;stroke-width:3px;stroke:#C8BA8B;"/><path d="M83.732,53c0,0 -3.973,-4 -8.866,-4c-4.893,0 -8.866,4 -8.866,4" style="fill:none;stroke-width:3px;stroke:#C8BA8B;"/><path d="M80,19l-10,-10" style="fill:none;stroke-width:3px;stroke:#C8BA8B;"/><path d="M72,19l-6.838,-6.838" style="fill:none;stroke-width:3px;stroke:#C8BA8B;"/><path d="M64,19l-8,-8" style="fill:none;stroke-width:3px;stroke:#C8BA8B;"/><path d="M56,71l6,2l6,-2" style="fill:none;stroke-width:3px;stroke:#C8BA8B;"/><path d="M24,135l0,44" style="fill:none;stroke-width:3px;stroke:#C8BA8B;"/><path d="M100,135l0,45" style="fill:none;stroke-width:3px;stroke:#C8BA8B;"/><path d="M62,103c-16.84,0 -26,-33 -26,-33c0,0 0,-10.358 0,-21.739c0,-7.76 3.083,-15.203 8.57,-20.691c5.488,-5.487 12.931,-8.57 20.691,-8.57c5.894,0 11.56,0 15.762,0c3.853,0 6.977,3.124 6.977,6.977c0,13.965 0,44.023 0,44.023c0,0 -9.124,32.871 -25.901,33l-0.099,0Z" style="fill:none;stroke-width:3px;stroke:#C8BA8B;"/><path d="M52,81l4,2l12,0l4,-2" style="fill:none;stroke-width:3px;stroke:#C8BA8B;"/><path d="M122,177.992c0,0 0,-35.541 0,-59.864c0,-12.611 -9.618,-23.14 -22.177,-24.278c-10.28,-0.931 -21.257,-1.835 -21.257,-1.835" style="fill:none;stroke-width:3px;stroke:#C8BA8B;"/><path d="M45.673,92.008c0,0 -11.11,0.913 -21.487,1.849c-12.563,1.134 -22.186,11.665 -22.186,24.279c0,23.404 0,56.856 0,56.856" style="fill:none;stroke-width:3px;stroke:#C8BA8B;"/><path d="M58,105l-16,-6l-2,8l2,8l16,-6l0,-4Z" style="fill:none;stroke-width:3px;stroke:#C8BA8B;"/><path d="M66,105l16,-6l2,8l-2,8l-16,-6l0,-4Z" style="fill:none;stroke-width:3px;stroke:#C8BA8B;"/><rect x="58" y="103" width="8" height="8" style="fill:none;stroke-width:3px;stroke:#C8BA8B;"/><path d="M87.746,70.862c0.169,-0.555 0.254,-0.862 0.254,-0.862l0,-20.818c5.118,0.941 9,5.43 9,10.818c0,5.477 -4.012,10.025 -9.254,10.862ZM36.254,70.862c-5.242,-0.837 -9.254,-5.385 -9.254,-10.862c0,-5.388 3.882,-9.877 9,-10.818l0,20.818c0,0 0.085,0.307 0.254,0.862Z" style="fill:none;stroke-width:3px;stroke:#C8BA8B;"/><path d="M92,50.196c0,0 0,-22.215 0,-33.196c0,-3.314 -2.686,-6 -6,-6c0,0 0,0 0,0c0,0 0,-0.001 0,-0.002c0,-4.417 -3.581,-7.998 -7.998,-7.998c-3.511,0 -7.89,0 -12.542,0c-8.874,0 -17.385,3.525 -23.66,9.8c-6.275,6.275 -9.8,14.786 -9.8,23.66c0,7.728 0,13.736 0,13.736" style="fill:none;stroke-width:3px;stroke:#C8BA8B;"/></g></svg>