<?xml version="1.0" standalone="no"?><!DOCTYPE svg PUBLIC "-//W3C//DTD SVG 1.1//EN" "http://www.w3.org/Graphics/SVG/1.1/DTD/svg11.dtd"><svg width="100%" height="100%" viewBox="0 0 147 199" version="1.1" xmlns="http://www.w3.org/2000/svg" xmlns:xlink="http://www.w3.org/1999/xlink" xml:space="preserve" style="fill-rule:evenodd;clip-rule:evenodd;stroke-linecap:round;stroke-linejoin:round;stroke-miterlimit:1.41421;"><g id="Layer1"><path d="M84.132,150.201c0,-2.452 -1.991,-4.443 -4.443,-4.443c-2.452,0 -4.443,1.991 -4.443,4.443l0,9.976c0,2.452 1.991,4.443 4.443,4.443c2.452,0 4.443,-1.991 4.443,-4.443l0,-9.976Z" style="fill:none;stroke-width:3px;stroke:#C8BA8B;"/><path d="M84.132,142.997c0,-2.452 1.991,-4.443 4.443,-4.443c2.452,0 4.443,1.991 4.443,4.443l0,27.231c0,9.809 -7.963,17.772 -17.772,17.772c-9.809,0 -17.772,-7.963 -17.772,-17.772l0,-6.651l0,-26.608c0,-2.452 1.991,-4.443 4.443,-4.443c2.452,0 4.443,1.991 4.443,4.443l0,20.226l0,-6.994c0,-2.452 1.991,-4.443 4.443,-4.443c2.442,0 4.427,1.975 4.443,4.414l0,0.029l0,9.976c0,2.452 1.991,4.443 4.443,4.443c2.452,0 4.443,-1.991 4.443,-4.443l0,-17.18Z" style="fill:none;stroke-width:3px;stroke:#C8BA8B;"/><path d="M69.758,168.062c1.148,1.074 11.605,5.818 6.412,19.913c-0.317,0.016 -0.635,0.025 -0.955,0.025c-9.788,0 -17.735,-7.962 -17.735,-17.75l0,-0.299l-0.006,-0.003c-0.003,-1.013 0.446,-2.035 1.111,-2.898l6.745,-8.756c1.594,-2.07 4.57,-2.456 6.64,-0.861c2.07,1.594 2.456,4.57 0.862,6.64l-3.074,3.989Z" style="fill:none;stroke-width:3px;stroke:#C8BA8B;"/><path d="M52.579,102.342c0,0 12.509,22.026 21.21,22.026c8.702,0 21.211,-22.026 21.211,-22.026" style="fill:none;stroke-width:3px;stroke:#C8BA8B;"/><path d="M58.901,89.289c0,0 9.926,4.079 14.888,4.079c4.963,0 14.889,-4.079 14.889,-4.079" style="fill:none;stroke-width:3px;stroke:#C8BA8B;"/><path d="M61.075,107.987c-10.489,-6.495 -21.405,-17.066 -21.405,-17.066c0,0 -4.223,-49.627 -4.223,-51.395c0,-2.304 0.219,-4.559 0.665,-6.726c3.206,0.667 6.533,1.016 9.941,1.016c13.147,0 25.09,-5.195 33.841,-13.645c7.543,8.269 18.425,13.441 30.504,13.441l1.222,-0.062c0.342,1.953 0.512,3.946 0.512,5.976c0,1.768 -4.223,51.395 -4.223,51.395c0,0 -10.994,10.646 -21.517,17.135" style="fill:none;stroke-width:3px;stroke:#C8BA8B;"/><path d="M50.539,62.368l13.053,0" style="fill:none;stroke-width:3px;stroke:#C8BA8B;"/><path d="M83.987,62.368l13.052,0" style="fill:none;stroke-width:3px;stroke:#C8BA8B;"/><path d="M67.263,46.282l13.053,0" style="fill:none;stroke-width:3px;stroke:#C8BA8B;"/><path d="M60.737,99.895c0,0 0,1.658 0,5.71c0,4.052 3.29,7.342 7.342,7.342l11.421,0c4.052,0 7.342,-3.29 7.342,-7.342c0,-4.052 0,-5.71 0,-5.71" style="fill:none;stroke-width:3px;stroke:#C8BA8B;"/><path d="M90.255,5.773c-7.789,16.573 -24.667,28.043 -44.202,28.043c-3.408,0 -6.735,-0.349 -9.941,-1.016c0.395,-2.098 0.972,-4.136 1.742,-6.114c2.663,0.537 5.399,0.807 8.199,0.807c16.839,0 31.41,-9.785 38.28,-23.979c2.051,0.586 4.038,1.339 5.922,2.259Z" style="fill:none;stroke-width:3px;stroke:#C8BA8B;"/><path d="M41.826,27.28l4.227,0.213c-1.422,0 -2.827,-0.069 -4.227,-0.213Z" style="fill:none;stroke-width:3px;stroke:#C8BA8B;"/><path d="M46.053,27.493l3.895,-0.197l-0.766,0.084l-3.129,0.113Z" style="fill:none;stroke-width:3px;stroke:#C8BA8B;"/><path d="M51.025,27.179l3.006,-0.459l-1.781,0.325l-1.225,0.134Z" style="fill:none;stroke-width:3px;stroke:#C8BA8B;"/><path d="M54.883,26.564l3.612,-0.93c-1.176,0.363 -2.375,0.675 -3.612,0.93Z" style="fill:none;stroke-width:3px;stroke:#C8BA8B;"/><path d="M59.299,25.365l2.766,-1.014l-1.056,0.44l-1.71,0.574Z" style="fill:none;stroke-width:3px;stroke:#C8BA8B;"/><path d="M63.07,23.933l3.069,-1.479l-2.386,1.195l-0.683,0.284Z" style="fill:none;stroke-width:3px;stroke:#C8BA8B;"/><path d="M66.436,22.302l3.01,-1.83l-0.515,0.354l-2.495,1.476Z" style="fill:none;stroke-width:3px;stroke:#C8BA8B;"/><path d="M40.977,20.363l2.042,0.247l-0.634,-0.032l-1.408,-0.215Z" style="fill:none;stroke-width:3px;stroke:#C8BA8B;"/><path d="M49.32,20.598l0.842,-0.088l-0.442,0.068l-0.4,0.02Z" style="fill:none;stroke-width:3px;stroke:#C8BA8B;"/><path d="M53.017,20.074l0.335,-0.058l-0.069,0.017l-0.266,0.041Z" style="fill:none;stroke-width:3px;stroke:#C8BA8B;"/><path d="M70.465,19.771l2,-1.497l-1.116,0.888l-0.884,0.609Z" style="fill:none;stroke-width:3px;stroke:#C8BA8B;"/><path d="M56.398,19.232l0.753,-0.241l-0.429,0.157l-0.324,0.084Z" style="fill:none;stroke-width:3px;stroke:#C8BA8B;"/><path d="M59.666,18.07l0.472,-0.187l-0.119,0.058l-0.353,0.129Z" style="fill:none;stroke-width:3px;stroke:#C8BA8B;"/><path d="M73.447,17.494l2.441,-2.219c-0.788,0.775 -1.606,1.519 -2.441,2.219Z" style="fill:none;stroke-width:3px;stroke:#C8BA8B;"/><path d="M62.915,16.545l0.626,-0.351l-0.385,0.234l-0.241,0.117Z" style="fill:none;stroke-width:3px;stroke:#C8BA8B;"/><path d="M65.753,14.85l0.516,-0.335l-0.153,0.114l-0.363,0.221Z" style="fill:none;stroke-width:3px;stroke:#C8BA8B;"/><path d="M76.984,14.126l1.26,-1.386l-0.423,0.509l-0.837,0.877Z" style="fill:none;stroke-width:3px;stroke:#C8BA8B;"/><path d="M68.707,12.692l0.508,-0.435l-0.335,0.305l-0.173,0.13Z" style="fill:none;stroke-width:3px;stroke:#C8BA8B;"/><path d="M79.476,11.258l0.788,-1.054l-0.572,0.793l-0.216,0.261Z" style="fill:none;stroke-width:3px;stroke:#C8BA8B;"/><path d="M71.071,10.571l0.543,-0.529l-0.185,0.203l-0.358,0.326Z" style="fill:none;stroke-width:3px;stroke:#C8BA8B;"/><path d="M73.611,7.845l0.463,-0.588l-0.328,0.438l-0.135,0.15Z" style="fill:none;stroke-width:3px;stroke:#C8BA8B;"/><path d="M75.449,5.42l0.59,-0.859l-0.225,0.371l-0.365,0.488Z" style="fill:none;stroke-width:3px;stroke:#C8BA8B;"/><path d="M49.948,27.296l1.077,-0.117l-0.617,0.094l-0.46,0.023Z" style="fill:none;stroke-width:3px;stroke:#C8BA8B;"/><path d="M37.854,26.686l3.972,0.594l-0.129,-0.007l-3.843,-0.587Z" style="fill:none;stroke-width:3px;stroke:#C8BA8B;"/><path d="M54.031,26.72l0.852,-0.156l-0.244,0.063l-0.608,0.093Z" style="fill:none;stroke-width:3px;stroke:#C8BA8B;"/><path d="M58.495,25.634l0.804,-0.269l-0.577,0.211l-0.227,0.058Z" style="fill:none;stroke-width:3px;stroke:#C8BA8B;"/><path d="M62.065,24.351l1.005,-0.418l-0.432,0.209l-0.573,0.209Z" style="fill:none;stroke-width:3px;stroke:#C8BA8B;"/><path d="M66.139,22.454l0.258,-0.129l0.039,-0.023l-0.073,0.044l-0.224,0.108Z" style="fill:none;stroke-width:3px;stroke:#C8BA8B;"/><path d="M49.32,20.598c-1.076,0.115 -2.166,0.165 -3.267,0.165c-1.02,0 -2.03,-0.042 -3.034,-0.153l3.034,0.153l3.267,-0.165Z" style="fill:none;stroke-width:3px;stroke:#C8BA8B;"/><path d="M50.162,20.51l2.855,-0.436l-1.976,0.345l-0.879,0.091Z" style="fill:none;stroke-width:3px;stroke:#C8BA8B;"/><path d="M69.446,20.472l1.019,-0.701l-0.587,0.439l-0.432,0.262Z" style="fill:none;stroke-width:3px;stroke:#C8BA8B;"/><path d="M53.352,20.016l3.046,-0.784c-0.993,0.304 -2.006,0.564 -3.046,0.784Z" style="fill:none;stroke-width:3px;stroke:#C8BA8B;"/><path d="M57.151,18.991l2.515,-0.921l-1.549,0.613l-0.966,0.308Z" style="fill:none;stroke-width:3px;stroke:#C8BA8B;"/><path d="M72.465,18.274l0.982,-0.78l-0.287,0.261l-0.695,0.519Z" style="fill:none;stroke-width:3px;stroke:#C8BA8B;"/><path d="M60.138,17.883l2.777,-1.338c-0.904,0.484 -1.831,0.931 -2.777,1.338Z" style="fill:none;stroke-width:3px;stroke:#C8BA8B;"/><path d="M63.541,16.194l2.212,-1.344l-1.19,0.773l-1.022,0.571Z" style="fill:none;stroke-width:3px;stroke:#C8BA8B;"/><path d="M75.888,15.275l1.096,-1.149l-0.797,0.877l-0.299,0.272Z" style="fill:none;stroke-width:3px;stroke:#C8BA8B;"/><path d="M66.269,14.515l2.438,-1.823c-0.791,0.646 -1.61,1.26 -2.438,1.823Z" style="fill:none;stroke-width:3px;stroke:#C8BA8B;"/><path d="M78.244,12.74l1.232,-1.482l-0.537,0.717l-0.695,0.765Z" style="fill:none;stroke-width:3px;stroke:#C8BA8B;"/><path d="M69.215,12.257l1.856,-1.686l-0.848,0.826l-1.008,0.86Z" style="fill:none;stroke-width:3px;stroke:#C8BA8B;"/><path d="M71.614,10.042l1.997,-2.197c-0.632,0.758 -1.295,1.491 -1.997,2.197Z" style="fill:none;stroke-width:3px;stroke:#C8BA8B;"/><path d="M74.074,7.257l1.375,-1.837l-0.51,0.74l-0.865,1.097Z" style="fill:none;stroke-width:3px;stroke:#C8BA8B;"/><path d="M46.053,27.493l-4.227,-0.213l-3.972,-0.594c0.855,-2.259 1.889,-4.353 3.123,-6.323l1.408,0.215l0.634,0.032c1.004,0.111 2.014,0.153 3.034,0.153c1.101,0 2.191,-0.05 3.267,-0.165l0.4,-0.02l0.442,-0.068l0.879,-0.091l1.976,-0.345l0.266,-0.041l0.069,-0.017c1.03,-0.213 2.043,-0.47 3.046,-0.784l0.324,-0.084l0.429,-0.157l0.966,-0.308l1.549,-0.613l0.353,-0.129l0.119,-0.058c0.948,-0.404 1.874,-0.848 2.777,-1.338l0.241,-0.117l0.385,-0.234l1.022,-0.571l1.19,-0.773l0.363,-0.221l0.153,-0.114c0.844,-0.575 1.663,-1.185 2.438,-1.823l0.173,-0.13l0.335,-0.305l1.008,-0.86l0.848,-0.826l0.358,-0.326l0.185,-0.203c0.7,-0.708 1.37,-1.444 1.997,-2.197l0.135,-0.15l0.328,-0.438l0.865,-1.097l0.51,-0.74l0.365,-0.488l0.225,-0.371c0.515,-0.764 0.995,-1.56 1.443,-2.375c2.357,0.228 4.66,0.672 6.851,1.328c-1.149,2.374 -2.514,4.625 -4.069,6.69l-0.788,1.054l-1.232,1.482l-1.26,1.386l-1.096,1.149l-2.441,2.219l-0.982,0.78l-2,1.497l-1.019,0.701l-3.01,1.83l-0.039,0.023l-0.258,0.129l-3.069,1.479l-1.005,0.418l-2.766,1.014l-0.804,0.269l-3.612,0.93l-0.852,0.156l-3.006,0.459l-1.077,0.117l-3.895,0.197Z" style="fill:none;stroke-width:3px;stroke:#C8BA8B;"/><path d="M46.053,20.763l3.267,-0.165l-0.75,0.078l-2.517,0.087Z" style="fill:none;stroke-width:3px;stroke:#C8BA8B;"/><path d="M43.019,20.61l3.034,0.153c-1.02,0 -2.03,-0.042 -3.034,-0.153Z" style="fill:none;stroke-width:3px;stroke:#C8BA8B;"/><path d="M50.162,20.51l2.855,-0.436l-1.976,0.345l-0.879,0.091Z" style="fill:none;stroke-width:3px;stroke:#C8BA8B;"/><path d="M53.352,20.016l3.046,-0.784c-0.993,0.304 -2.006,0.564 -3.046,0.784Z" style="fill:none;stroke-width:3px;stroke:#C8BA8B;"/><path d="M57.151,18.991l1.396,-0.511l1.119,-0.41l-1.549,0.613l-0.966,0.308Z" style="fill:none;stroke-width:3px;stroke:#C8BA8B;"/><path d="M60.138,17.883l2.777,-1.338c-0.904,0.484 -1.831,0.931 -2.777,1.338Z" style="fill:none;stroke-width:3px;stroke:#C8BA8B;"/><path d="M63.541,16.194l2.212,-1.344l-1.19,0.773l-1.022,0.571Z" style="fill:none;stroke-width:3px;stroke:#C8BA8B;"/><path d="M66.269,14.515l2.438,-1.823c-0.791,0.646 -1.61,1.26 -2.438,1.823Z" style="fill:none;stroke-width:3px;stroke:#C8BA8B;"/><path d="M46.053,14.237l3.326,-0.202l-0.325,0.05l-3.001,0.152Z" style="fill:none;stroke-width:3px;stroke:#C8BA8B;"/><path d="M46.053,14.237l-0.348,-0.018l0.348,0.018Z" style="fill:none;stroke-width:3px;stroke:#C8BA8B;"/><path d="M50.419,13.876l2.195,-0.403l-0.646,0.167l-1.549,0.236Z" style="fill:none;stroke-width:3px;stroke:#C8BA8B;"/><path d="M53.765,13.177l1.998,-0.621l-0.369,0.136l-0.612,0.224l-1.017,0.261Z" style="fill:none;stroke-width:3px;stroke:#C8BA8B;"/><path d="M69.215,12.257l1.856,-1.686l-0.848,0.826l-1.008,0.86Z" style="fill:none;stroke-width:3px;stroke:#C8BA8B;"/><path d="M56.844,12.16l2.054,-0.916l-1.418,0.683l-0.636,0.233Z" style="fill:none;stroke-width:3px;stroke:#C8BA8B;"/><path d="M59.723,10.846l2.718,-1.617l2.602,-1.987c-1.635,1.395 -3.425,2.613 -5.32,3.604Z" style="fill:none;stroke-width:3px;stroke:#C8BA8B;"/><path d="M71.614,10.042l1.997,-2.197c-0.632,0.758 -1.295,1.491 -1.997,2.197Z" style="fill:none;stroke-width:3px;stroke:#C8BA8B;"/><path d="M74.074,7.257l1.375,-1.837l-0.51,0.74l-0.865,1.097Z" style="fill:none;stroke-width:3px;stroke:#C8BA8B;"/><path d="M65.34,6.972l2.086,-2.013l-0.611,0.672l-1.475,1.341Z" style="fill:none;stroke-width:3px;stroke:#C8BA8B;"/><path d="M67.697,4.66l1.996,-2.428l-0.982,1.313l-1.014,1.115Z" style="fill:none;stroke-width:3px;stroke:#C8BA8B;"/><path d="M76.039,4.561l1.294,-2.13l0.149,-0.245c-0.448,0.815 -0.928,1.611 -1.443,2.375Z" style="fill:none;stroke-width:3px;stroke:#C8BA8B;"/><path d="M53.017,20.074l0.266,-0.041l-0.266,0.041Z" style="fill:none;stroke-width:3px;stroke:#C8BA8B;"/><path d="M71.071,10.571l0.358,-0.326l-0.358,0.326Z" style="fill:none;stroke-width:3px;stroke:#C8BA8B;"/><path d="M75.449,5.42l0.365,-0.488l0.225,-0.371l-0.225,0.371l-0.365,0.488Z" style="fill:none;stroke-width:3px;stroke:#C8BA8B;"/><path d="M53.219,20.039l1.117,-0.277l-0.984,0.254l-0.133,0.023Z" style="fill:none;stroke-width:3px;stroke:#C8BA8B;"/><path d="M56.749,19.119l1.087,-0.379l-0.685,0.251l-0.402,0.128Z" style="fill:none;stroke-width:3px;stroke:#C8BA8B;"/><path d="M59.742,18.04l1.318,-0.601l-0.922,0.444l-0.396,0.157Z" style="fill:none;stroke-width:3px;stroke:#C8BA8B;"/><path d="M62.776,16.612l1.309,-0.748l-0.544,0.33l-0.626,0.351l-0.139,0.067Z" style="fill:none;stroke-width:3px;stroke:#C8BA8B;"/><path d="M65.67,14.9l1.247,-0.87l-0.648,0.485l-0.516,0.335l-0.083,0.05Z" style="fill:none;stroke-width:3px;stroke:#C8BA8B;"/><path d="M49.391,14.035l-0.337,0.05l-3.001,0.152l3.326,-0.202l0.012,0Z" style="fill:none;stroke-width:3px;stroke:#C8BA8B;"/><path d="M50.294,13.899l0.125,-0.023l1.46,-0.223l-0.09,0.023l-1.495,0.223Z" style="fill:none;stroke-width:3px;stroke:#C8BA8B;"/><path d="M53.619,13.223l0.146,-0.046l0.845,-0.217l-0.173,0.06l-0.818,0.203Z" style="fill:none;stroke-width:3px;stroke:#C8BA8B;"/><path d="M68.383,12.934l1.169,-0.983l-0.337,0.306l-0.508,0.435l-0.324,0.242Z" style="fill:none;stroke-width:3px;stroke:#C8BA8B;"/><path d="M55.795,12.546l-0.102,0.036l0.07,-0.026l0.032,-0.01Z" style="fill:none;stroke-width:3px;stroke:#C8BA8B;"/><path d="M56.639,12.252l0.205,-0.092l0.389,-0.142l-0.249,0.113l-0.345,0.121Z" style="fill:none;stroke-width:3px;stroke:#C8BA8B;"/><path d="M58.331,11.517l0.567,-0.273l0.597,-0.267l-0.076,0.044l-1.088,0.496Z" style="fill:none;stroke-width:3px;stroke:#C8BA8B;"/><path d="M59.679,10.872l0.044,-0.026l2.583,-1.548l-0.577,0.403l-2.05,1.171Z" style="fill:none;stroke-width:3px;stroke:#C8BA8B;"/><path d="M70.899,10.727l1.077,-1.084l-0.362,0.399l-0.543,0.529l-0.172,0.156Z" style="fill:none;stroke-width:3px;stroke:#C8BA8B;"/><path d="M62.767,8.977l2.069,-1.578l-0.934,0.786l-1.135,0.792Z" style="fill:none;stroke-width:3px;stroke:#C8BA8B;"/><path d="M73.2,8.296l0.975,-1.173l-0.101,0.134l-0.463,0.588l-0.411,0.451Z" style="fill:none;stroke-width:3px;stroke:#C8BA8B;"/><path d="M65.306,7.004l0.034,-0.032l1.041,-0.947l-0.455,0.459l-0.62,0.52Z" style="fill:none;stroke-width:3px;stroke:#C8BA8B;"/><path d="M75.272,5.656l0.862,-1.251l-0.095,0.156l-0.59,0.859l-0.177,0.236Z" style="fill:none;stroke-width:3px;stroke:#C8BA8B;"/><path d="M67.262,5.139l0.164,-0.18l0.125,-0.121l0.146,-0.178l0.567,-0.624l-0.475,0.574l-0.527,0.529Z" style="fill:none;stroke-width:3px;stroke:#C8BA8B;"/><path d="M69.062,3.076l0.631,-0.844l0.022,-0.001l-0.237,0.344l-0.416,0.501Z" style="fill:none;stroke-width:3px;stroke:#C8BA8B;"/><path d="M77.097,2.82l0.358,-0.635l0.027,0.001l-0.385,0.634Z" style="fill:none;stroke-width:3px;stroke:#C8BA8B;"/><path d="M46.053,20.763l3.267,-0.165l0.842,-0.088l2.855,-0.436l0.202,-0.035c-1.138,0.239 -2.31,0.418 -3.499,0.539l-3.667,0.185Z" style="fill:none;stroke-width:3px;stroke:#C8BA8B;"/><path d="M54.336,19.762l2.062,-0.53l0.351,-0.113l-0.449,0.157l-1.964,0.486Z" style="fill:none;stroke-width:3px;stroke:#C8BA8B;"/><path d="M57.836,18.74l1.83,-0.67l0.076,-0.03l-0.329,0.15l-1.577,0.55Z" style="fill:none;stroke-width:3px;stroke:#C8BA8B;"/><path d="M61.06,17.439l1.716,-0.827l-0.387,0.221l-1.329,0.606Z" style="fill:none;stroke-width:3px;stroke:#C8BA8B;"/><path d="M64.085,15.864l1.585,-0.964l-0.458,0.32l-1.127,0.644Z" style="fill:none;stroke-width:3px;stroke:#C8BA8B;"/><path d="M49.391,14.035l0.903,-0.136l-0.655,0.121l-0.248,0.015Z" style="fill:none;stroke-width:3px;stroke:#C8BA8B;"/><path d="M66.917,14.03l1.466,-1.096l-0.515,0.432l-0.951,0.664Z" style="fill:none;stroke-width:3px;stroke:#C8BA8B;"/><path d="M51.879,13.653l1.74,-0.43l-0.521,0.162l-0.484,0.088l-0.646,0.167l-0.089,0.013Z" style="fill:none;stroke-width:3px;stroke:#C8BA8B;"/><path d="M54.61,12.96l1.083,-0.378l-0.911,0.334l-0.172,0.044Z" style="fill:none;stroke-width:3px;stroke:#C8BA8B;"/><path d="M55.795,12.546l0.844,-0.294l-0.238,0.106l-0.606,0.188Z" style="fill:none;stroke-width:3px;stroke:#C8BA8B;"/><path d="M57.233,12.018l1.098,-0.501l-0.851,0.41l-0.247,0.091Z" style="fill:none;stroke-width:3px;stroke:#C8BA8B;"/><path d="M69.552,11.951l1.347,-1.224l-0.557,0.56l-0.79,0.664Z" style="fill:none;stroke-width:3px;stroke:#C8BA8B;"/><path d="M59.495,10.977l0.184,-0.105l-0.154,0.092l-0.03,0.013Z" style="fill:none;stroke-width:3px;stroke:#C8BA8B;"/><path d="M71.976,9.643l1.224,-1.347l-0.581,0.701l-0.643,0.646Z" style="fill:none;stroke-width:3px;stroke:#C8BA8B;"/><path d="M62.306,9.298l0.461,-0.321l-0.279,0.212l-0.182,0.109Z" style="fill:none;stroke-width:3px;stroke:#C8BA8B;"/><path d="M64.836,7.399l0.47,-0.395l-0.18,0.175l-0.083,0.063l-0.207,0.157Z" style="fill:none;stroke-width:3px;stroke:#C8BA8B;"/><path d="M74.175,7.123l1.097,-1.467l-0.589,0.854l-0.508,0.613Z" style="fill:none;stroke-width:3px;stroke:#C8BA8B;"/><path d="M66.381,6.025l0.881,-0.886l-0.447,0.492l-0.434,0.394Z" style="fill:none;stroke-width:3px;stroke:#C8BA8B;"/><path d="M76.134,4.405l0.963,-1.585l-0.576,1.023l-0.387,0.562Z" style="fill:none;stroke-width:3px;stroke:#C8BA8B;"/><path d="M68.264,4.036l0.798,-0.96l-0.351,0.469l-0.447,0.491Z" style="fill:none;stroke-width:3px;stroke:#C8BA8B;"/><path d="M53.219,20.039l-0.202,0.035l-2.855,0.436l-0.842,0.088l-3.267,0.165l-3.034,-0.153l-2.042,-0.247c1.339,-2.183 2.899,-4.222 4.728,-6.144l0.348,0.018l3.001,-0.152l0.337,-0.05l0.248,-0.015l0.655,-0.121l1.495,-0.223l0.09,-0.023l0.089,-0.013l0.646,-0.167l0.484,-0.088l0.521,-0.162l0.818,-0.203l0.173,-0.06l0.172,-0.044l0.911,-0.334l0.102,-0.036l0.606,-0.188l0.238,-0.106l0.345,-0.121l0.249,-0.113l0.247,-0.091l0.851,-0.41l1.088,-0.496l0.076,-0.044l0.03,-0.013l0.154,-0.092l2.05,-1.171l0.577,-0.403l0.182,-0.109l0.279,-0.212l1.135,-0.792l0.934,-0.786l0.207,-0.157l0.083,-0.063l0.18,-0.175l0.62,-0.52l0.455,-0.459l0.434,-0.394l0.447,-0.492l0.527,-0.529l0.475,-0.574l0.447,-0.491l0.351,-0.469l0.416,-0.501l0.237,-0.344l4.074,-0.231l3.666,0.185l-0.358,0.635l-0.963,1.585l-0.862,1.251l-1.097,1.467l-0.975,1.173l-1.224,1.347l-1.077,1.084l-1.347,1.224l-1.169,0.983l-1.466,1.096l-1.247,0.87l-1.585,0.964l-1.309,0.748l-1.716,0.827l-1.318,0.601l-0.076,0.03l-1.83,0.67l-1.087,0.379l-0.351,0.113l-2.062,0.53l-1.117,0.277Z" style="fill:none;stroke-width:3px;stroke:#C8BA8B;"/><path d="M49.379,14.035l1.04,-0.159l-0.78,0.144l-0.26,0.015Z" style="fill:none;stroke-width:3px;stroke:#C8BA8B;"/><path d="M52.614,13.473l0.345,-0.088l0.806,-0.208l-0.667,0.208l-0.484,0.088Z" style="fill:none;stroke-width:3px;stroke:#C8BA8B;"/><path d="M55.763,12.556l1.081,-0.396l-0.443,0.198l-0.638,0.198Z" style="fill:none;stroke-width:3px;stroke:#C8BA8B;"/><path d="M58.898,11.244l0.825,-0.398l-0.198,0.118l-0.627,0.28Z" style="fill:none;stroke-width:3px;stroke:#C8BA8B;"/><path d="M65.043,7.242l0.297,-0.27l-0.214,0.207l-0.083,0.063Z" style="fill:none;stroke-width:3px;stroke:#C8BA8B;"/><path d="M67.426,4.959l0.271,-0.299l-0.146,0.178l-0.125,0.121Z" style="fill:none;stroke-width:3px;stroke:#C8BA8B;"/><path d="M49.054,14.085l0.325,-0.05l-0.325,0.05Z" style="fill:none;stroke-width:3px;stroke:#C8BA8B;"/><path d="M50.419,13.876l1.549,-0.236l-1.549,0.236Z" style="fill:none;stroke-width:3px;stroke:#C8BA8B;"/><path d="M54.782,12.916l0.981,-0.36l-0.981,0.36Z" style="fill:none;stroke-width:3px;stroke:#C8BA8B;"/><path d="M52.581,13.48l0.249,-0.062l-0.216,0.055l-0.033,0.007Z" style="fill:none;stroke-width:3px;stroke:#C8BA8B;"/><path d="M62.197,9.374l0.625,-0.436l-0.381,0.291l-0.244,0.145Z" style="fill:none;stroke-width:3px;stroke:#C8BA8B;"/><path d="M64.832,7.403l0.447,-0.376l-0.236,0.215l-0.211,0.161Z" style="fill:none;stroke-width:3px;stroke:#C8BA8B;"/><path d="M52.83,13.418c0,0 1.607,-0.398 1.607,-0.398l-1.607,0.398Z" style="fill:none;stroke-width:3px;stroke:#C8BA8B;"/><path d="M52.581,13.48l0.249,-0.062c0,0 -0.249,0.062 -0.249,0.062Z" style="fill:none;stroke-width:3px;stroke:#C8BA8B;"/><path d="M46.053,14.237l3.326,-0.202l1.04,-0.159l2.162,-0.396l-0.792,0.196c-0.896,0.177 -1.809,0.315 -2.735,0.409l-3.001,0.152Z" style="fill:none;stroke-width:3px;stroke:#C8BA8B;"/><path d="M52.83,13.418l-0.249,0.062l-2.162,0.396l-1.04,0.159l-3.326,0.202l-0.348,-0.018c6.165,-6.574 14.644,-10.989 23.988,-11.987c0,0 -1.996,2.428 -1.996,2.428l-0.271,0.299l-2.086,2.013l-0.061,0.055l-0.447,0.376l-2.01,1.535l-0.625,0.436l-2.474,1.472l-0.825,0.398l-2.054,0.916l-1.081,0.396l-1.998,0.621l-0.935,0.241Z" style="fill:none;stroke-width:3px;stroke:#C8BA8B;"/><path d="M60.608,54.684c0.838,0.878 1.353,2.068 1.353,3.376c0,1.752 -0.923,3.29 -2.308,4.155" style="fill:none;stroke-width:3px;stroke:#C8BA8B;"/><path d="M94.056,54.684c0.837,0.878 1.352,2.068 1.352,3.376c0,1.752 -0.922,3.29 -2.307,4.155" style="fill:none;stroke-width:3px;stroke:#C8BA8B;"/><path d="M77.332,38.597c0.838,0.879 1.352,2.068 1.352,3.377c0,1.751 -0.922,3.289 -2.307,4.154" style="fill:none;stroke-width:3px;stroke:#C8BA8B;"/><path d="M54.592,62.284c-1.448,-0.851 -2.421,-2.425 -2.421,-4.224c0,-1.393 0.583,-2.651 1.518,-3.542" style="fill:none;stroke-width:3px;stroke:#C8BA8B;"/><path d="M88.039,62.284c-1.448,-0.851 -2.421,-2.425 -2.421,-4.224c0,-1.393 0.584,-2.651 1.519,-3.542" style="fill:none;stroke-width:3px;stroke:#C8BA8B;"/><path d="M71.316,46.197c-1.448,-0.85 -2.421,-2.424 -2.421,-4.223c0,-1.393 0.583,-2.651 1.518,-3.543" style="fill:none;stroke-width:3px;stroke:#C8BA8B;"/><path d="M46.461,58.592c0,0 4.752,-4.611 10.605,-4.611c5.853,0 10.605,4.611 10.605,4.611" style="fill:none;stroke-width:3px;stroke:#C8BA8B;"/><path d="M79.908,58.592c0,0 4.752,-4.611 10.605,-4.611c5.853,0 10.605,4.611 10.605,4.611" style="fill:none;stroke-width:3px;stroke:#C8BA8B;"/><path d="M63.184,42.506c0,0 4.752,-4.611 10.605,-4.611c5.854,0 10.606,4.611 10.606,4.611" style="fill:none;stroke-width:3px;stroke:#C8BA8B;"/><path d="M73.789,66.447l0,16.316" style="fill:none;stroke-width:3px;stroke:#C8BA8B;"/><path d="M79.941,82.763l-12.303,0" style="fill:none;stroke-width:3px;stroke:#C8BA8B;"/><path d="M109.14,76.637c0.761,-7.85 1.707,-17.689 2.329,-24.426c4.402,2.098 7.447,6.591 7.447,11.789c0,6.073 -4.155,11.182 -9.776,12.637ZM38.439,76.637c-5.621,-1.455 -9.776,-6.564 -9.776,-12.637c0,-5.198 3.045,-9.691 7.447,-11.789c0.622,6.737 1.568,16.576 2.329,24.426Z" style="fill:none;stroke-width:3px;stroke:#C8BA8B;"/><path d="M111.62,33.55l-1.222,0.062c-12.079,0 -22.961,-5.172 -30.504,-13.441c1.585,-1.515 3.065,-3.135 4.403,-4.846c6.268,7.102 15.404,11.61 25.595,11.735c0.779,2.081 1.367,4.258 1.728,6.49Z" style="fill:none;stroke-width:3px;stroke:#C8BA8B;"/><path d="M105.694,26.732l0.547,0.084l-0.115,-0.008l-0.432,-0.076Z" style="fill:none;stroke-width:3px;stroke:#C8BA8B;"/><path d="M101.883,25.996l0.817,0.21l-0.22,-0.038l-0.597,-0.172Z" style="fill:none;stroke-width:3px;stroke:#C8BA8B;"/><path d="M98.353,24.908l0.928,0.34l-0.307,-0.088l-0.621,-0.252Z" style="fill:none;stroke-width:3px;stroke:#C8BA8B;"/><path d="M95.071,23.507l0.923,0.445l-0.364,-0.148l-0.559,-0.297Z" style="fill:none;stroke-width:3px;stroke:#C8BA8B;"/><path d="M92.025,21.824l0.822,0.5l-0.378,-0.201l-0.444,-0.299Z" style="fill:none;stroke-width:3px;stroke:#C8BA8B;"/><path d="M89.213,19.886l0.632,0.473l-0.333,-0.224l-0.299,-0.249Z" style="fill:none;stroke-width:3px;stroke:#C8BA8B;"/><path d="M106.566,20.271l-1.899,-0.29l-0.748,-0.193l2.647,0.483Z" style="fill:none;stroke-width:3px;stroke:#C8BA8B;"/><path d="M101.342,19.059l2.193,0.63l-1.593,-0.41l-0.6,-0.22Z" style="fill:none;stroke-width:3px;stroke:#C8BA8B;"/><path d="M98.843,18.088l1.832,0.727l-1.347,-0.493l-0.485,-0.234Z" style="fill:none;stroke-width:3px;stroke:#C8BA8B;"/><path d="M86.636,17.714l0.358,0.325l-0.213,-0.177l-0.145,-0.148Z" style="fill:none;stroke-width:3px;stroke:#C8BA8B;"/><path d="M96.438,16.878l1.577,0.811l-1.174,-0.566l-0.403,-0.245Z" style="fill:none;stroke-width:3px;stroke:#C8BA8B;"/><path d="M94.141,15.433l1.435,0.921l-1.08,-0.656l-0.355,-0.265Z" style="fill:none;stroke-width:3px;stroke:#C8BA8B;"/><path d="M91.974,13.758l1.394,1.096l-1.063,-0.795l-0.331,-0.301Z" style="fill:none;stroke-width:3px;stroke:#C8BA8B;"/><path d="M89.958,11.864l1.437,1.367l-1.111,-1.009l-0.326,-0.358Z" style="fill:none;stroke-width:3px;stroke:#C8BA8B;"/><path d="M88.118,9.761l1.53,1.762l-1.2,-1.322l-0.33,-0.44Z" style="fill:none;stroke-width:3px;stroke:#C8BA8B;"/><path d="M106.241,26.816l3.651,0.244l-3.068,-0.155l-0.583,-0.089Z" style="fill:none;stroke-width:3px;stroke:#C8BA8B;"/><path d="M102.7,26.206l2.994,0.526l-2.341,-0.358l-0.653,-0.168Z" style="fill:none;stroke-width:3px;stroke:#C8BA8B;"/><path d="M99.281,25.248l2.602,0.748l-1.881,-0.484l-0.721,-0.264Z" style="fill:none;stroke-width:3px;stroke:#C8BA8B;"/><path d="M95.994,23.952l2.359,0.956l-1.564,-0.573l-0.795,-0.383Z" style="fill:none;stroke-width:3px;stroke:#C8BA8B;"/><path d="M92.847,22.324l2.224,1.183l-1.339,-0.646l-0.885,-0.537Z" style="fill:none;stroke-width:3px;stroke:#C8BA8B;"/><path d="M89.845,20.359l2.18,1.465l-1.177,-0.715l-1.003,-0.75Z" style="fill:none;stroke-width:3px;stroke:#C8BA8B;"/><path d="M86.994,18.039l2.219,1.847l-1.058,-0.792l-1.161,-1.055Z" style="fill:none;stroke-width:3px;stroke:#C8BA8B;"/><path d="M103.535,19.689l0.384,0.099l-0.109,-0.02l-0.275,-0.079Z" style="fill:none;stroke-width:3px;stroke:#C8BA8B;"/><path d="M100.675,18.815l0.667,0.244l-0.186,-0.053l-0.481,-0.191Z" style="fill:none;stroke-width:3px;stroke:#C8BA8B;"/><path d="M98.015,17.689l0.828,0.399l-0.227,-0.09l-0.601,-0.309Z" style="fill:none;stroke-width:3px;stroke:#C8BA8B;"/><path d="M95.576,16.354l0.862,0.524l-0.233,-0.12l-0.629,-0.404Z" style="fill:none;stroke-width:3px;stroke:#C8BA8B;"/><path d="M93.368,14.854l0.773,0.579l-0.205,-0.132l-0.568,-0.447Z" style="fill:none;stroke-width:3px;stroke:#C8BA8B;"/><path d="M91.395,13.231l0.579,0.527l-0.151,-0.119l-0.428,-0.408Z" style="fill:none;stroke-width:3px;stroke:#C8BA8B;"/><path d="M89.648,11.523l0.31,0.341l-0.079,-0.076l-0.231,-0.265Z" style="fill:none;stroke-width:3px;stroke:#C8BA8B;"/><path d="M109.892,27.06l-3.651,-0.244l-0.547,-0.084l-2.994,-0.526l-0.817,-0.21l-2.602,-0.748l-0.928,-0.34l-2.359,-0.956l-0.923,-0.445l-2.224,-1.183l-0.822,-0.5l-2.18,-1.465l-0.632,-0.473l-2.219,-1.847l-0.358,-0.325l-2.339,-2.389c1.416,-1.761 2.702,-3.621 3.821,-5.564l0.33,0.44l1.2,1.322l0.231,0.265l0.079,0.076l0.326,0.358l1.111,1.009l0.428,0.408l0.151,0.119l0.331,0.301l1.063,0.795l0.568,0.447l0.205,0.132l0.355,0.265l1.08,0.656l0.629,0.404l0.233,0.12l0.403,0.245l1.174,0.566l0.601,0.309l0.227,0.09l0.485,0.234l1.347,0.493l0.481,0.191l0.186,0.053l0.6,0.22l1.593,0.41l0.275,0.079l0.109,0.02l0.748,0.193l1.899,0.29l1.837,3.291l1.489,3.498Z" style="fill:none;stroke-width:3px;stroke:#C8BA8B;"/><path d="M103.599,19.706l0.302,0.078l-0.087,-0.016l-0.215,-0.062Z" style="fill:none;stroke-width:3px;stroke:#C8BA8B;"/><path d="M100.777,18.853l0.534,0.195l-0.149,-0.043l-0.385,-0.152Z" style="fill:none;stroke-width:3px;stroke:#C8BA8B;"/><path d="M98.126,17.742l0.682,0.329l-0.185,-0.073l-0.497,-0.256Z" style="fill:none;stroke-width:3px;stroke:#C8BA8B;"/><path d="M95.67,16.411l0.737,0.448l-0.196,-0.1l-0.541,-0.348Z" style="fill:none;stroke-width:3px;stroke:#C8BA8B;"/><path d="M93.432,14.902l0.688,0.514l-0.179,-0.115l-0.509,-0.399Z" style="fill:none;stroke-width:3px;stroke:#C8BA8B;"/><path d="M91.426,13.26l0.538,0.489l-0.138,-0.109l-0.4,-0.38Z" style="fill:none;stroke-width:3px;stroke:#C8BA8B;"/><path d="M89.656,11.531l0.301,0.331l-0.077,-0.073l-0.224,-0.258Z" style="fill:none;stroke-width:3px;stroke:#C8BA8B;"/><path d="M103.599,19.706l-1.657,-0.427l1.657,0.427Z" style="fill:none;stroke-width:3px;stroke:#C8BA8B;"/><path d="M103.599,19.706l0.075,0.019l-0.075,-0.019Z" style="fill:none;stroke-width:3px;stroke:#C8BA8B;"/><path d="M103.599,19.706l-2.288,-0.658l-0.534,-0.195l-1.969,-0.782l-0.682,-0.329l-1.719,-0.883l-0.737,-0.448l-1.55,-0.995l-0.688,-0.514l-1.468,-1.153l-0.538,-0.489l-1.469,-1.398l-0.301,-0.331l-1.538,-1.77c0.792,-1.292 1.495,-2.623 2.137,-3.988c6.728,3.171 12.43,8.231 16.311,14.498l-2.665,-0.487l-0.227,-0.059l-0.075,-0.019Z" style="fill:none;stroke-width:3px;stroke:#C8BA8B;"/><path d="M108.868,86.873c8.313,2.216 15.977,6.589 22.165,12.778c9.246,9.245 14.44,21.785 14.44,34.861c0,19.419 0,54.488 0,54.488" style="fill:none;stroke-width:3px;stroke:#C8BA8B;"/><path d="M2,185.921c0,0 0,-31.99 0,-51.409c0,-13.076 5.194,-25.616 14.44,-34.861c6.188,-6.189 13.852,-10.562 22.165,-12.778" style="fill:none;stroke-width:3px;stroke:#C8BA8B;"/><path d="M65.671,105.605l0,6.527" style="fill:none;stroke-width:3px;stroke:#C8BA8B;"/><path d="M55.298,92.145l0,11.013" style="fill:none;stroke-width:3px;stroke:#C8BA8B;"/><path d="M92.281,92.145l0,11.013" style="fill:none;stroke-width:3px;stroke:#C8BA8B;"/><path d="M49.86,92.145l0,7.342" style="fill:none;stroke-width:3px;stroke:#C8BA8B;"/><path d="M97.719,92.145l0,7.342" style="fill:none;stroke-width:3px;stroke:#C8BA8B;"/><path d="M44.421,92.145l0,2.294" style="fill:none;stroke-width:3px;stroke:#C8BA8B;"/><path d="M103.158,92.145l0,2.294" style="fill:none;stroke-width:3px;stroke:#C8BA8B;"/><path d="M71.083,107.237l0,4.895" style="fill:none;stroke-width:3px;stroke:#C8BA8B;"/><path d="M76.496,107.237l0,4.895" style="fill:none;stroke-width:3px;stroke:#C8BA8B;"/><path d="M81.908,105.605l0,6.527" style="fill:none;stroke-width:3px;stroke:#C8BA8B;"/><path d="M30.553,132.605l0,60.395" style="fill:none;stroke-width:3px;stroke:#C8BA8B;"/><path d="M117.026,132.605l0,64.395" style="fill:none;stroke-width:3px;stroke:#C8BA8B;"/><path d="M117.026,155.813l28.553,-2.447" style="fill:none;stroke-width:3px;stroke:#C8BA8B;"/><path d="M30.553,155.813l-28.553,-2.447" style="fill:none;stroke-width:3px;stroke:#C8BA8B;"/></g></svg>