<?xml version="1.0" standalone="no"?><!DOCTYPE svg PUBLIC "-//W3C//DTD SVG 1.1//EN" "http://www.w3.org/Graphics/SVG/1.1/DTD/svg11.dtd"><svg width="100%" height="100%" viewBox="0 0 257 268" version="1.1" xmlns="http://www.w3.org/2000/svg" xmlns:xlink="http://www.w3.org/1999/xlink" xml:space="preserve" style="fill-rule:evenodd;clip-rule:evenodd;stroke-linejoin:round;stroke-miterlimit:1.41421;"><g id="Layer1"><g><g transform="matrix(0.991916,0.126893,-0.126893,0.991916,-436.909,178.44)"><g transform="matrix(0.983424,0.181323,-0.181323,0.983424,10.0547,-96.1188)"><text x="530.73px" y="6.933px" style="font-family:Roboto;font-size:20px;font-weight:300;fill:#000;stroke-width:2px;stroke:#000;">2</text></g><g transform="matrix(0.998202,0.0599431,-0.0599431,0.998202,1.54561,-32.6803)"><text x="545.472px" y="9.421px" style="font-family:Roboto;font-size:20px;font-weight:300;fill:#000;stroke-width:2px;stroke:#000;">0</text></g><g transform="matrix(0.998655,-0.0518462,0.0518462,0.998655,0.23387,29.0923)"><text x="560.867px" y="10.038px" style="font-family:Roboto;font-size:20px;font-weight:300;fill:#000;stroke-width:2px;stroke:#000;">1</text></g><g transform="matrix(0.983066,-0.183251,0.183251,0.983066,8.11309,105.658)"><text x="575.747px" y="8.931px" style="font-family:Roboto;font-size:20px;font-weight:300;fill:#000;stroke-width:2px;stroke:#000;">2</text></g></g><g transform="matrix(0.765293,-0.643682,0.643682,0.765293,-358.449,397.473)"><g transform="matrix(0.0689161,-0.997622,0.997622,0.0689161,289.385,542.916)"><text x="435.55px" y="116.425px" style="font-family:Roboto;font-size:25px;font-weight:300;fill:#000;stroke-width:2px;stroke:#000;">Y</text></g><g transform="matrix(0.213081,-0.977035,0.977035,0.213081,243.993,506.569)"><text x="436.474px" y="101.814px" style="font-family:Roboto;font-size:25px;font-weight:300;fill:#000;stroke-width:2px;stroke:#000;">O</text></g><g transform="matrix(0.364074,-0.93137,0.93137,0.364074,200.192,464.209)"><text x="440.034px" y="85.505px" style="font-family:Roboto;font-size:25px;font-weight:300;fill:#000;stroke-width:2px;stroke:#000;">U</text></g><g transform="matrix(0.554597,-0.832119,0.832119,0.554597,146.125,402.297)"><text x="448.856px" y="64.651px" style="font-family:Roboto;font-size:25px;font-weight:300;fill:#000;stroke-width:2px;stroke:#000;">R</text></g><g transform="matrix(0.673427,-0.739254,0.739254,0.673427,111.873,355.175)"><text x="457.936px" y="50.965px" style="font-family:Roboto;font-size:25px;font-weight:300;fill:#000;stroke-width:2px;stroke:#000;">O</text></g><g transform="matrix(0.778032,-0.628224,0.628224,0.778032,79.8646,303.334)"><text x="469.188px" y="38.649px" style="font-family:Roboto;font-size:25px;font-weight:300;fill:#000;stroke-width:2px;stroke:#000;">C</text></g><g transform="matrix(0.866943,-0.498406,0.498406,0.866943,49.94,243.909)"><text x="481.79px" y="28.421px" style="font-family:Roboto;font-size:25px;font-weight:300;fill:#000;stroke-width:2px;stroke:#000;">K</text></g><g transform="matrix(0.950269,-0.311429,0.311429,0.950269,19.3312,156.915)"><text x="500.991px" y="17.928px" style="font-family:Roboto;font-size:25px;font-weight:300;fill:#000;stroke-width:2px;stroke:#000;">D</text></g><g transform="matrix(0.986537,-0.163539,0.163539,0.986537,4.86343,84.6497)"><text x="516.56px" y="12.786px" style="font-family:Roboto;font-size:25px;font-weight:300;fill:#000;stroke-width:2px;stroke:#000;">U</text></g><g transform="matrix(0.999977,-0.00673426,0.00673426,0.999977,-0.0555708,3.58964)"><text x="533.008px" y="10.047px" style="font-family:Roboto;font-size:25px;font-weight:300;fill:#000;stroke-width:2px;stroke:#000;">D</text></g><g transform="matrix(0.99034,0.138661,-0.138661,0.99034,6.68459,-76.0875)"><text x="549.42px" y="9.931px" style="font-family:Roboto;font-size:25px;font-weight:300;fill:#000;stroke-width:2px;stroke:#000;">E</text></g></g></g><path d="M190.897,252.759c-37.983,19.559 -84.827,20.017 -124.541,-2.912c-62.08,-35.842 -83.381,-115.342 -47.54,-177.421c25.486,-44.144 73.048,-67.669 120.724,-64.691c-11.451,3.589 -27.238,14.963 -27.238,14.963c0,0 14.591,7.486 18.734,13.18c-34.95,0.133 -68.911,18.32 -87.631,50.744c-24.85,43.041 -14.546,96.799 21.978,127.934" style="fill:none;stroke-width:2px;stroke-linecap:round;stroke:#000;"/><path d="M244.828,86.213c7.05,15.608 10.975,32.926 10.975,51.153c0,48.049 -27.277,89.778 -67.177,110.532" style="fill:none;stroke-width:2px;stroke-linecap:round;stroke:#000;"/><path d="M215.808,90.137c7.832,13.974 12.299,30.084 12.299,47.229c0,40.229 -24.591,74.759 -59.548,89.367" style="fill:none;stroke-width:2px;stroke-linecap:round;stroke:#000;"/><path d="M99.955,142.932c-0.013,0.003 -1.098,4.679 1.197,11.081" style="fill:none;stroke-width:2px;stroke-linecap:round;stroke:#000;"/><path d="M103.187,158.243c1.795,3.135 4.701,7.225 8.447,10.715" style="fill:none;stroke-width:2px;stroke-linecap:round;stroke:#000;"/><path d="M111.634,168.958c-3.654,-2.007 -3.668,-2.633 -11.179,-0.431c-0.627,0.184 -2.126,0.322 -2.941,0.322" style="fill:none;stroke-width:2px;stroke-linecap:round;stroke:#000;"/><path d="M92.711,168.584c-2.128,-0.301 -4.039,0.622 -4.791,2.2c-1.321,2.773 -2.867,6.507 -5.723,10.486c-2.683,3.738 -7.319,4.413 -8.964,8.063c-1.646,3.651 0,14.405 0,14.405c4.719,3.274 8.959,1.426 11.714,-1.964c-1.479,-3.844 -3.381,-7.109 -5.586,-9.959" style="fill:none;stroke-width:2px;stroke-linecap:round;stroke:#000;"/><path d="M85.5,188.67c6.805,-3.317 12.801,-6.06 13.26,-9.918c0,0 23.236,8.116 30.671,1.142c0.879,-0.825 6.664,-16.279 0,-30.655" style="fill:none;stroke-width:2px;stroke-linecap:round;stroke:#000;"/><path d="M150.591,177.814c-4.365,-3.65 -7.738,-7.638 -9.6,-14.657" style="fill:none;stroke-width:2px;stroke-linecap:round;stroke:#000;"/><path d="M150.693,156.861c-2.536,-8.175 4.315,-22.521 25.585,-15.108" style="fill:none;stroke-width:2px;stroke-linecap:round;stroke:#000;"/><path d="M156.846,153.252c0.53,-5.11 5.892,-8.667 13.673,-7.009" style="fill:none;stroke-width:2px;stroke-linecap:round;stroke:#000;"/><path d="M184.949,140.987c-13.825,-12.276 -36.458,-7.376 -39.997,5.536c-5.728,20.899 17.926,33.285 17.926,33.285" style="fill:none;stroke-width:2px;stroke-linecap:round;stroke:#000;"/><path d="M161.04,178.846c-9.21,-0.731 -15.155,-1.989 -18.362,0c-1.699,1.054 -7.195,7.958 -9.369,11.141c2.573,3.757 5.552,4.739 9.369,4.458c1.832,-3.337 3.568,-6.788 3.438,-10.292c1.561,2.799 5.142,3.325 9.137,0.675c1.639,1.514 3.41,1.718 5.289,0.836c0,0 11.579,-0.232 20.236,4.323c5.958,3.135 12.069,-2.175 8.229,-8.445c-0.06,-0.098 -0.126,-0.189 -0.199,-0.272" style="fill:none;stroke-width:2px;stroke-linecap:round;stroke:#000;"/><path d="M78.837,168.958c0,0 -2.322,4.38 -6.104,4.541c-8.442,0.358 -5.356,-6.986 -19.681,-12.576c-2.481,-0.969 -4.885,-7.926 -6.463,-10.408c-1.941,-3.055 -2.166,-2.387 -6.044,-6.659c0.724,-2.406 2.364,-4.166 4.131,-5.034" style="fill:none;stroke-width:2px;stroke-linecap:round;stroke:#000;"/><path d="M63.404,155.982c3.043,2.248 6.154,3.079 9.329,2.606" style="fill:none;stroke-width:2px;stroke-linecap:round;stroke:#000;"/><path d="M142.677,178.827c-7.071,-1.328 -13.649,-1.523 -16.28,5.299c1.893,2.42 5.186,2.905 8.638,3.36" style="fill:none;stroke-width:2px;stroke-linecap:round;stroke:#000;"/><path d="M76.234,199.565l0.5,4.885" style="fill:none;stroke-width:2px;stroke-linecap:round;stroke:#000;"/><path d="M138.609,187.987l-2.868,3.985" style="fill:none;stroke-width:2px;stroke-linecap:round;stroke:#000;"/><path d="M63.644,90.743c3.892,-3.808 1.852,-4.307 5.301,-7.574c4.455,-4.219 8.608,-1.789 13.059,-4.658" style="fill:none;stroke-width:2px;stroke-linecap:round;stroke:#000;"/><circle cx="68.519" cy="87.127" r="1.858" style="fill:none;stroke-width:2px;stroke-linecap:round;stroke:#000;"/><path d="M70.112,88.254c1.958,-3.086 3.655,-3.9 6.617,-4.127" style="fill:none;stroke-width:2px;stroke-linecap:round;stroke:#000;"/><path d="M72.598,103.789c12.768,8.355 34.117,-7.019 17.261,-22.746" style="fill:none;stroke-width:2px;stroke-linecap:round;stroke:#000;"/><path d="M77.694,101.181c7.323,2.29 16.167,-4.93 12.089,-12.443" style="fill:none;stroke-width:2px;stroke-linecap:round;stroke:#000;"/><path d="M73.001,202.229l-17.986,29.745" style="fill:none;stroke-width:2px;stroke-linecap:round;stroke:#000;"/><path d="M58.154,233.873l17.464,-28.88" style="fill:none;stroke-width:2px;stroke-linecap:round;stroke:#000;"/><path d="M100.455,74.793c0,0 3.733,-3.35 9.443,0c5.71,3.35 13.6,5.618 15.381,5.618c1.782,0 -4.985,8.909 -20.513,2.291" style="fill:none;stroke-width:2px;stroke-linecap:round;stroke:#000;"/><path d="M94.486,71.767c0,0 4.536,-2.64 10.28,1.537" style="fill:none;stroke-width:2px;stroke-linecap:round;stroke:#000;"/><path d="M57.355,97.937c-0.596,1.338 -0.789,3.338 -0.497,4.909" style="fill:none;stroke-width:2px;stroke-linecap:round;stroke:#000;"/><path d="M105.474,83.043c15.605,9.305 6.322,34.006 3.479,41.642c3.565,-3.359 7.094,-7.072 13.21,-7.06" style="fill:none;stroke-width:2px;stroke-linecap:round;stroke:#000;"/><path d="M126.429,118.165c5.519,1.587 9.727,8.553 17.561,9.154c9.418,0.723 13.466,-4.296 26.373,-2.505c20.751,2.879 35.183,17.994 35.178,37.482c0,0.659 0.036,1.296 0,1.912" style="fill:none;stroke-width:2px;stroke-linecap:round;stroke:#000;"/><path d="M161.833,168.835c7.758,7.686 19.694,13.163 26.975,12.435c6.229,-0.98 10.57,-2.824 13.584,-7.083" style="fill:none;stroke-width:2px;stroke-linecap:round;stroke:#000;"/><path d="M86.254,174.315c-23.808,-13.358 -10.276,-49.234 -10.431,-55.537c-0.167,-6.756 -2.153,-13.37 -14.243,-8.817c-2.591,0.976 -3.636,-1.642 -2.265,-2.936c0.049,-0.046 0.14,-0.143 0.14,-0.143c-7.847,3.812 -6.597,-5.786 -5.829,-9.277c1.23,-5.586 5.253,-4.579 10.764,-14.395c4.023,-7.167 13.048,-6.16 15.53,-7.659c3.615,-2.184 5.372,-2.467 8.929,-3.386c5.193,-1.342 8.287,0.79 11.606,2.57" style="fill:none;stroke-width:2px;stroke-linecap:round;stroke:#000;"/><path d="M59.233,107.007c2.37,-1.12 3.418,-3.111 4.398,-3.799c0.508,-0.356 1.069,-0.456 1.665,-0.362" style="fill:none;stroke-width:2px;stroke-linecap:round;stroke:#000;"/><path d="M205.557,164.208c0,6.112 4.584,10.174 10.251,10.174l0.007,0c-1.775,3.071 -7.632,7.901 -15.402,2.097" style="fill:none;stroke-width:2px;stroke-linecap:round;stroke:#000;"/><path d="M102.895,77.599c0.937,-0.454 1.952,-0.801 2.871,-0.649c2.594,0.428 6.254,3.555 11.198,4.336" style="fill:none;stroke-width:2px;stroke-linecap:round;stroke:#000;"/><path d="M71.737,140.958l-15.156,-26.252c-0.688,-1.191 -2.101,-1.663 -3.154,-1.055l-12.929,7.464c-1.053,0.608 -1.35,2.068 -0.663,3.259l18.106,31.359c0.687,1.191 2.1,1.663 3.153,1.056l11.27,-6.508" style="fill:none;stroke-width:2.13px;stroke-linecap:round;stroke:#000;"/><path d="M40.395,121.199l-2.494,1.439c-1.052,0.608 -1.35,2.067 -0.663,3.257l18.097,31.344c0.687,1.19 2.1,1.662 3.152,1.055l2.607,-1.505" style="fill:none;stroke-width:2.13px;stroke-linecap:round;stroke:#000;"/><path d="M64.256,147.335c0.814,-0.47 1.857,-0.191 2.327,0.624c0.471,0.814 0.191,1.857 -0.623,2.327c-0.815,0.47 -1.857,0.191 -2.328,-0.623c-0.47,-0.815 -0.19,-1.858 0.624,-2.328Z" style="fill:none;stroke-width:2px;stroke-linecap:round;stroke:#000;"/><path d="M58.305,117.692l-16.73,9.659l12.924,22.384l16.729,-9.659l-12.923,-22.384Z" style="fill:none;stroke-width:2.22px;stroke-linecap:round;stroke:#000;"/><path d="M49.892,119.026l-3.134,1.809" style="fill:none;stroke-width:2px;stroke-linecap:round;stroke:#000;"/><path d="M57.543,231.269c0.877,0.506 1.178,1.629 0.672,2.505c-0.506,0.877 -1.629,1.178 -2.506,0.672c-0.877,-0.506 -1.178,-1.629 -0.672,-2.506c0.507,-0.877 1.629,-1.178 2.506,-0.671Z" style="fill:none;stroke-width:2px;stroke-linecap:round;stroke:#000;"/><path d="M180.428,16.744c0.506,-0.876 1.629,-1.177 2.506,-0.671c0.877,0.507 1.178,1.629 0.672,2.506" style="fill:none;stroke-width:2px;stroke-linecap:round;stroke:#000;"/><path d="M166.037,41.547c0.506,-0.876 1.629,-1.177 2.506,-0.671c0.877,0.507 1.178,1.629 0.672,2.506" style="fill:none;stroke-width:2px;stroke-linecap:round;stroke:#000;"/><path d="M192.023,3.96l-110.32,191.08l-2.376,-3.223l109.518,-189.691c0.506,-0.877 1.629,-1.178 2.506,-0.672c0.877,0.507 1.178,1.629 0.672,2.506Z" style="fill:none;stroke-width:2px;stroke-linecap:round;stroke:#000;"/><path d="M79.015,106.332c0,0 1.911,2.187 2.658,5.859c2.22,10.908 -5.446,24.615 -3.158,36.895" style="fill:none;stroke-width:2px;stroke-linecap:round;stroke:#000;"/><path d="M85.749,105.246c0,0 1.91,2.187 2.658,5.859c1.326,6.518 -0.877,14.037 -2.378,21.653" style="fill:none;stroke-width:2px;stroke-linecap:round;stroke:#000;"/><path d="M92.28,101.929c0,0 1.911,2.187 2.658,5.859c0.772,3.793 0.349,7.924 -0.436,12.216" style="fill:none;stroke-width:2px;stroke-linecap:round;stroke:#000;"/><path d="M96.125,96.455c0,0 4.668,3.445 4.721,8.303c0.004,0.33 0.093,0.154 0.109,0.488" style="fill:none;stroke-width:2px;stroke-linecap:round;stroke:#000;"/><path d="M183.654,18.497c4.26,1.881 8.46,4.009 12.585,6.389c24.522,14.159 42.682,35.131 53.47,59.151" style="fill:none;stroke-width:2px;stroke-linecap:round;stroke:#000;"/><path d="M68.491,217.101c3.768,2.961 7.791,5.691 12.061,8.157c30.993,17.893 67.542,17.56 97.2,2.334" style="fill:none;stroke-width:2px;stroke-linecap:round;stroke:#000;"/><path d="M223.823,95.695c-8.43,-18.769 -22.62,-35.156 -41.784,-46.22c-4.155,-2.399 -8.41,-4.47 -12.735,-6.221c-1.215,-0.494 4.325,1.751 0,0" style="fill:none;stroke-width:2px;stroke-linecap:round;stroke:#000;"/><path d="M168.583,226.7l1.641,4.281" style="fill:none;stroke-width:2px;stroke-linecap:round;stroke:#000;"/><path d="M216.028,89.866l3.577,-2.369" style="fill:none;stroke-width:2px;stroke-linecap:round;stroke:#000;"/><path d="M249.709,84.037l-25.886,11.658l-7.795,-5.54" style="fill:none;stroke-width:2px;stroke-linecap:round;stroke:#000;"/><path d="M168.583,226.7l9.169,0.797l13.188,25.242" style="fill:none;stroke-width:2px;stroke-linecap:round;stroke:#000;"/><path d="M181.13,23.443c13.532,5.932 25.809,14.208 36.314,24.315" style="fill:none;stroke-width:2px;stroke-linecap:round;stroke:#000;"/><path d="M177.258,30.49c6.967,3.002 13.583,6.665 19.768,10.912" style="fill:none;stroke-width:2px;stroke-linecap:round;stroke:#000;"/><path d="M173.324,36.957c10.816,4.534 20.746,10.767 29.457,18.365" style="fill:none;stroke-width:2px;stroke-linecap:round;stroke:#000;"/><path d="M223.592,212.118c-10.297,12.665 -23.149,23.171 -37.768,30.729" style="fill:none;stroke-width:2px;stroke-linecap:round;stroke:#000;"/><path d="M239.769,88.635c4.585,10.19 7.774,21.141 9.323,32.609" style="fill:none;stroke-width:2px;stroke-linecap:round;stroke:#000;"/><path d="M193.514,229.092c-3.68,2.497 -7.519,4.777 -11.497,6.825" style="fill:none;stroke-width:2px;stroke-linecap:round;stroke:#000;"/><path d="M232.574,91.91c3.022,6.723 5.392,13.799 7.032,21.15" style="fill:none;stroke-width:2px;stroke-linecap:round;stroke:#000;"/><path d="M198.699,216.234c-6.054,5.166 -12.708,9.649 -19.842,13.328" style="fill:none;stroke-width:2px;stroke-linecap:round;stroke:#000;"/><path d="M226.089,94.792c4.727,10.511 7.755,21.949 8.733,33.963" style="fill:none;stroke-width:2px;stroke-linecap:round;stroke:#000;"/></g></svg>