<?xml version="1.0" standalone="no"?><!DOCTYPE svg PUBLIC "-//W3C//DTD SVG 1.1//EN" "http://www.w3.org/Graphics/SVG/1.1/DTD/svg11.dtd"><svg width="100%" height="100%" viewBox="0 0 98 184" version="1.1" xmlns="http://www.w3.org/2000/svg" xmlns:xlink="http://www.w3.org/1999/xlink" xml:space="preserve" style="fill-rule:evenodd;clip-rule:evenodd;stroke-linecap:round;stroke-linejoin:round;stroke-miterlimit:1.41421;"><g id="Layer1"><path d="M89.072,59.12c0.325,0.878 -0.002,1.851 -0.981,2.538c-1.47,1.033 -1.47,2.709 0,3.741c1.469,1.032 1.469,2.709 0,3.741c-1.47,1.032 -1.47,2.708 0,3.74" style="fill:none;stroke-width:3px;stroke:#C8BA8B;"/><circle cx="35.225" cy="52" r="4" style="fill:none;stroke-width:3px;stroke:#C8BA8B;"/><circle cx="62.957" cy="52" r="4" style="fill:none;stroke-width:3px;stroke:#C8BA8B;"/><path d="M44.091,52c0,0 -3.973,-4 -8.866,-4c-4.893,0 -8.866,4 -8.866,4" style="fill:none;stroke-width:3px;stroke:#C8BA8B;"/><path d="M71.823,51c0,0 -3.973,-4 -8.866,-4c-4.893,0 -8.866,4 -8.866,4" style="fill:none;stroke-width:3px;stroke:#C8BA8B;"/><path d="M29.225,56l12,0" style="fill:none;stroke-width:3px;stroke:#C8BA8B;"/><path d="M56.957,56l12,0" style="fill:none;stroke-width:3px;stroke:#C8BA8B;"/><path d="M18.313,95l0,85.988" style="fill:none;stroke-width:3px;stroke:#C8BA8B;"/><path d="M79.847,95l0,87" style="fill:none;stroke-width:3px;stroke:#C8BA8B;"/><path d="M2,177c0,0 0,-31.312 0,-57.806c0,-7.212 2.865,-14.129 7.965,-19.229c3.639,-3.639 8.204,-6.141 13.152,-7.25c0.349,14.016 11.85,25.285 25.963,25.285c14.113,0 25.615,-11.269 25.964,-25.285c4.947,1.109 9.512,3.611 13.152,7.25c2.089,2.089 3.803,4.484 5.065,7.066c-4.229,1.854 -7.17,6.07 -7.17,10.969c0,5.972 4.372,10.931 10.07,11.805l0,48.195" style="fill:none;stroke-width:3px;stroke:#C8BA8B;"/><path d="M67.966,92c2.066,0 5.107,0.235 7.078,0.715c-0.349,14.016 -11.851,25.285 -25.964,25.285c-14.113,0 -25.614,-11.269 -25.963,-25.285c1.971,-0.48 5.012,-0.715 7.077,-0.715" style="fill:none;stroke-width:3px;stroke:#C8BA8B;"/><path d="M49.08,62l0,8" style="fill:none;stroke-width:3px;stroke:#C8BA8B;"/><path d="M78.091,55.01c0,-16.022 -12.988,-29.01 -29.01,-29.01c0,0 -0.001,0 -0.001,0c-16.022,0 -29.01,12.988 -29.01,29.01" style="fill:none;stroke-width:3px;stroke:#C8BA8B;"/><path d="M24.543,15.809l0,23.191" style="fill:none;stroke-width:3px;stroke:#C8BA8B;"/><path d="M30.554,8.809l0,23.191" style="fill:none;stroke-width:3px;stroke:#C8BA8B;"/><path d="M36.565,4.809l0,23.191" style="fill:none;stroke-width:3px;stroke:#C8BA8B;"/><path d="M44.575,2.809l0,23.191" style="fill:none;stroke-width:3px;stroke:#C8BA8B;"/><path d="M53.586,2.809l0,23.191" style="fill:none;stroke-width:3px;stroke:#C8BA8B;"/><path d="M61.596,4.809l0,23.191" style="fill:none;stroke-width:3px;stroke:#C8BA8B;"/><path d="M67.607,8.809l0,23.191" style="fill:none;stroke-width:3px;stroke:#C8BA8B;"/><path d="M73.617,15.809l0,23.191" style="fill:none;stroke-width:3px;stroke:#C8BA8B;"/><circle cx="88.091" cy="82" r="4" style="fill:none;stroke-width:3px;stroke:#C8BA8B;"/><path d="M60.091,78l-26,0c0,0 0,1.981 0,3.971c0,2.225 1.804,4.029 4.029,4.029c5.738,0 16.204,0 21.942,0" style="fill:none;stroke-width:3px;stroke:#C8BA8B;"/><path d="M40.091,78l0,8" style="fill:none;stroke-width:3px;stroke:#C8BA8B;"/><path d="M46.091,78l0,8" style="fill:none;stroke-width:3px;stroke:#C8BA8B;"/><path d="M52.091,78l0,8" style="fill:none;stroke-width:3px;stroke:#C8BA8B;"/><path d="M34.08,91.508l0,3.848" style="fill:none;stroke-width:3px;stroke:#C8BA8B;"/><path d="M40.08,91.508l0,9.62" style="fill:none;stroke-width:3px;stroke:#C8BA8B;"/><path d="M46.08,91.508l0,12.492" style="fill:none;stroke-width:3px;stroke:#C8BA8B;"/><path d="M52.08,91.508l0,12.492" style="fill:none;stroke-width:3px;stroke:#C8BA8B;"/><path d="M58.08,91.508l0,9.62" style="fill:none;stroke-width:3px;stroke:#C8BA8B;"/><path d="M64.08,91.508l0,3.848" style="fill:none;stroke-width:3px;stroke:#C8BA8B;"/><path d="M88.091,78l-30,0l0,8l30,0" style="fill:none;stroke-width:3px;stroke:#C8BA8B;"/><path d="M72.256,86c-0.674,0.967 -1.403,1.901 -2.185,2.796c-6.785,7.718 -15.258,17.204 -20.991,17.204c-5.732,-0.001 -14.205,-9.486 -20.99,-17.204c-5.171,-5.92 -8.02,-13.515 -8.02,-21.376c0,-9.626 0,-23.748 0,-36.41c0,-16.022 12.988,-29.01 29.01,-29.01l0.001,0c16.022,0 29.01,12.988 29.01,29.01c0,12.662 0,26.784 0,36.41c0,3.63 -0.607,7.203 -1.77,10.58l-18.23,0l0,8l14.165,0Z" style="fill:none;stroke-width:3px;stroke:#C8BA8B;"/><path d="M96.161,129.805c-5.698,-0.874 -10.07,-5.833 -10.07,-11.805c0,-4.899 2.941,-9.115 7.17,-10.969c1.901,3.751 2.9,7.906 2.9,12.163l0,10.611Z" style="fill:none;stroke-width:3px;stroke:#C8BA8B;"/><path d="M89.126,132l6.965,6.965" style="fill:none;stroke-width:3px;stroke:#C8BA8B;"/><path d="M89.126,141l6.965,6.965" style="fill:none;stroke-width:3px;stroke:#C8BA8B;"/><path d="M96.126,148l-7,7" style="fill:none;stroke-width:3px;stroke:#C8BA8B;"/></g></svg>