<?xml version="1.0" encoding="UTF-8" standalone="no"?>
<svg width="151px" height="17px" viewBox="0 0 151 17" version="1.1" xmlns="http://www.w3.org/2000/svg" xmlns:xlink="http://www.w3.org/1999/xlink" xmlns:sketch="http://www.bohemiancoding.com/sketch/ns">
    <!-- Generator: Sketch 3.3.2 (12043) - http://www.bohemiancoding.com/sketch -->
    <title>YOUROCK,DUDE!</title>
    <desc>Created with Sketch.</desc>
    <defs></defs>
    <g id="Page-1" stroke="none" stroke-width="1" fill="none" fill-rule="evenodd" sketch:type="MSPage">
        <g id="Index" sketch:type="MSArtboardGroup" transform="translate(-100.000000, -80.000000)" fill="#FFFFFF">
            <g id="YOUROCK,DUDE!" sketch:type="MSLayerGroup" transform="translate(100.000000, 80.000000)">
                <g id="Page-1" sketch:type="MSShapeGroup">
                    <g id="YOUROCK,DUDE!">
                        <g id="Page-1">
                            <g id="Desktop-HD-Copy">
                                <g id="YOUROCK,DUDE!">
                                    <path d="M4.83416252,14 L4.83416252,9.0837479 L0.255389718,0.83830846 L3.25621891,0.83830846 L6.20232172,6.4568823 L6.26616915,6.4568823 L9.22139303,0.83830846 L12.1766169,0.83830846 L7.58872305,9.0837479 L7.58872305,14 L4.83416252,14 L4.83416252,14 Z M18.6799337,0.61028192 C19.6528517,0.61028192 20.5315052,0.76837874 21.3159204,1.08457711 C22.1003356,1.40077549 22.7676866,1.85378367 23.3179934,2.44361526 C23.8683002,3.03344684 24.2909051,3.749443 24.5858209,4.59162521 C24.8807367,5.43380742 25.0281924,6.3778278 25.0281924,7.4237148 C25.0281924,8.4696017 24.8807367,9.4121019 24.5858209,10.2512438 C24.2909051,11.0903856 23.8683002,11.8048616 23.3179934,12.3946932 C22.7676866,12.9845248 22.1003356,13.437533 21.3159204,13.7537313 C20.5315052,14.0699297 19.6528517,14.2280265 18.6799337,14.2280265 C17.7009349,14.2280265 16.8207612,14.0699297 16.0393864,13.7537313 C15.2580116,13.437533 14.5921808,12.9845248 14.041874,12.3946932 C13.4915672,11.8048616 13.0689622,11.0903856 12.7740464,10.2512438 C12.4791306,9.4121019 12.331675,8.4696017 12.331675,7.4237148 C12.331675,6.3778278 12.4791306,5.43380742 12.7740464,4.59162521 C13.0689622,3.749443 13.4915672,3.03344684 14.041874,2.44361526 C14.5921808,1.85378367 15.2580116,1.40077549 16.0393864,1.08457711 C16.8207612,0.76837874 17.7009349,0.61028192 18.6799337,0.61028192 L18.6799337,0.61028192 L18.6799337,0.61028192 Z M18.6799337,2.90878939 C18.138748,2.90878939 17.6507761,3.01368054 17.2160033,3.223466 C16.7812306,3.43325146 16.4103111,3.73424348 16.1032338,4.12645108 C15.7961566,4.51865868 15.5590113,4.99294913 15.391791,5.54933665 C15.2245708,6.1057242 15.1409619,6.7305106 15.1409619,7.4237148 C15.1409619,8.1108382 15.2245708,8.7325843 15.391791,9.2889718 C15.5590113,9.8453593 15.7961566,10.3181296 16.1032338,10.7072968 C16.4103111,11.0964641 16.7812306,11.3959359 17.2160033,11.6057214 C17.6507761,11.8155069 18.138748,11.920398 18.6799337,11.920398 C19.2150386,11.920398 19.7014903,11.8155069 20.1393035,11.6057214 C20.5771166,11.3959359 20.9480361,11.0964641 21.252073,10.7072968 C21.5561099,10.3181296 21.7917349,9.8453593 21.9589552,9.2889718 C22.1261755,8.7325843 22.2097844,8.1108382 22.2097844,7.4237148 C22.2097844,6.7305106 22.1261755,6.1057242 21.9589552,5.54933665 C21.7917349,4.99294913 21.5561099,4.51865868 21.252073,4.12645108 C20.9480361,3.73424348 20.5771166,3.43325146 20.1393035,3.223466 C19.7014903,3.01368054 19.2150386,2.90878939 18.6799337,2.90878939 L18.6799337,2.90878939 L18.6799337,2.90878939 Z M29.5522388,9.0746269 C29.5522388,9.4941978 29.6130453,9.8757584 29.73466,10.2193201 C29.8562748,10.5628818 30.0341337,10.856273 30.2682421,11.0995025 C30.5023505,11.342732 30.7911813,11.5312321 31.134743,11.6650083 C31.4783046,11.7987845 31.8720265,11.8656716 32.3159204,11.8656716 C32.7537335,11.8656716 33.1444151,11.7987845 33.4879768,11.6650083 C33.8315385,11.5312321 34.1203692,11.342732 34.3544776,11.0995025 C34.588586,10.856273 34.7664449,10.5628818 34.8880597,10.2193201 C35.0096745,9.8757584 35.0704809,9.4941978 35.0704809,9.0746269 L35.0704809,0.83830846 L37.8250415,0.83830846 L37.8250415,9.3482587 C37.8250415,10.0718665 37.6958277,10.7331369 37.4373964,11.3320896 C37.178965,11.9310422 36.8110859,12.4448569 36.3337479,12.8735489 C35.85641,13.3022409 35.2772284,13.6351564 34.5961857,13.8723051 C33.9151431,14.1094539 33.1550622,14.2280265 32.3159204,14.2280265 C31.4706978,14.2280265 30.7075767,14.1094539 30.026534,13.8723051 C29.3454913,13.6351564 28.7663097,13.3022409 28.2889718,12.8735489 C27.8116339,12.4448569 27.4437547,11.9310422 27.1853234,11.3320896 C26.926892,10.7331369 26.7976783,10.0718665 26.7976783,9.3482587 L26.7976783,0.83830846 L29.5522388,0.83830846 L29.5522388,9.0746269 L29.5522388,9.0746269 Z M42.7686567,7.1865672 L45.185738,7.1865672 C45.8850228,7.1865672 46.4262004,7.0011074 46.8092869,6.6301824 C47.1923734,6.2592574 47.3839138,5.74544275 47.3839138,5.08872305 C47.3839138,4.77252468 47.3322283,4.48521412 47.2288557,4.22678275 C47.1254832,3.96835139 46.9780275,3.74792794 46.7864842,3.5655058 C46.594941,3.38308367 46.3608361,3.24170863 46.0841625,3.14137645 C45.8074889,3.04104427 45.4988961,2.99087894 45.1583748,2.99087894 L42.7686567,2.99087894 L42.7686567,7.1865672 L42.7686567,7.1865672 Z M42.7686567,14 L40.0140962,14 L40.0140962,0.83830846 L45.4502488,0.83830846 C46.2042603,0.83830846 46.8776919,0.93559881 47.4705638,1.13018242 C48.0634358,1.32476604 48.5620488,1.60295563 48.9664179,1.96475954 C49.370787,2.32656345 49.6793798,2.76589017 49.8922056,3.2827529 C50.1050315,3.79961563 50.2114428,4.38335772 50.2114428,5.03399668 C50.2114428,5.4535676 50.1582371,5.85793061 50.0518242,6.2470978 C49.9454113,6.6362651 49.7903548,6.9919829 49.5866501,7.314262 C49.3829454,7.6365411 49.1321187,7.9238517 48.8341625,8.1762023 C48.5362064,8.4285529 48.1987305,8.6276941 47.8217247,8.7736318 L50.5945274,14 L47.4751244,14 L45.0215589,9.1840796 L42.7686567,9.1840796 L42.7686567,14 L42.7686567,14 Z M57.9552239,0.61028192 C58.928142,0.61028192 59.8067954,0.76837874 60.5912106,1.08457711 C61.3756258,1.40077549 62.0429768,1.85378367 62.5932836,2.44361526 C63.1435904,3.03344684 63.5661953,3.749443 63.8611111,4.59162521 C64.1560269,5.43380742 64.3034826,6.3778278 64.3034826,7.4237148 C64.3034826,8.4696017 64.1560269,9.4121019 63.8611111,10.2512438 C63.5661953,11.0903856 63.1435904,11.8048616 62.5932836,12.3946932 C62.0429768,12.9845248 61.3756258,13.437533 60.5912106,13.7537313 C59.8067954,14.0699297 58.928142,14.2280265 57.9552239,14.2280265 C56.9762251,14.2280265 56.0960514,14.0699297 55.3146766,13.7537313 C54.5333018,13.437533 53.867471,12.9845248 53.3171642,12.3946932 C52.7668574,11.8048616 52.3442524,11.0903856 52.0493367,10.2512438 C51.7544209,9.4121019 51.6069652,8.4696017 51.6069652,7.4237148 C51.6069652,6.3778278 51.7544209,5.43380742 52.0493367,4.59162521 C52.3442524,3.749443 52.7668574,3.03344684 53.3171642,2.44361526 C53.867471,1.85378367 54.5333018,1.40077549 55.3146766,1.08457711 C56.0960514,0.76837874 56.9762251,0.61028192 57.9552239,0.61028192 L57.9552239,0.61028192 L57.9552239,0.61028192 Z M57.9552239,2.90878939 C57.4140382,2.90878939 56.9260663,3.01368054 56.4912935,3.223466 C56.0565208,3.43325146 55.6856013,3.73424348 55.378524,4.12645108 C55.0714468,4.51865868 54.8343016,4.99294913 54.6670813,5.54933665 C54.499861,6.1057242 54.4162521,6.7305106 54.4162521,7.4237148 C54.4162521,8.1108382 54.499861,8.7325843 54.6670813,9.2889718 C54.8343016,9.8453593 55.0714468,10.3181296 55.378524,10.7072968 C55.6856013,11.0964641 56.0565208,11.3959359 56.4912935,11.6057214 C56.9260663,11.8155069 57.4140382,11.920398 57.9552239,11.920398 C58.4903288,11.920398 58.9767806,11.8155069 59.4145937,11.6057214 C59.8524068,11.3959359 60.2233263,11.0964641 60.5273632,10.7072968 C60.8314001,10.3181296 61.0670251,9.8453593 61.2342454,9.2889718 C61.4014657,8.7325843 61.4850746,8.1108382 61.4850746,7.4237148 C61.4850746,6.7305106 61.4014657,6.1057242 61.2342454,5.54933665 C61.0670251,4.99294913 60.8314001,4.51865868 60.5273632,4.12645108 C60.2233263,3.73424348 59.8524068,3.43325146 59.4145937,3.223466 C58.9767806,3.01368054 58.4903288,2.90878939 57.9552239,2.90878939 L57.9552239,2.90878939 L57.9552239,2.90878939 Z M71.8922056,14.2280265 C70.931449,14.2280265 70.0679972,14.07297 69.3018242,13.7628524 C68.5356512,13.4527348 67.8819817,13.0042871 67.340796,12.4174959 C66.7996103,11.8307046 66.3846062,11.1162286 66.0957711,10.2740464 C65.8069361,9.4318642 65.6625207,8.4787228 65.6625207,7.4145937 C65.6625207,6.3565453 65.8084563,5.40644423 66.1003317,4.56426202 C66.3922071,3.72207981 66.8087314,3.00760382 67.3499171,2.4208126 C67.8911028,1.83402139 68.5447723,1.38557369 69.3109453,1.07545605 C70.0771183,0.76533842 70.9375298,0.61028192 71.8922056,0.61028192 C72.6827016,0.61028192 73.4184598,0.7303747 74.0995025,0.97056385 C74.7805451,1.210753 75.3779687,1.54822889 75.891791,1.98300166 C76.4056134,2.41777442 76.8175772,2.93918988 77.1276949,3.54726368 C77.4378125,4.15533748 77.6202319,4.82724895 77.6749585,5.56301824 L74.9933665,5.56301824 C74.9264784,5.16168954 74.8033453,4.79533057 74.6239635,4.46393035 C74.4445817,4.13253013 74.2195978,3.85130022 73.949005,3.62023217 C73.6784121,3.38916413 73.3682992,3.20978505 73.0186567,3.08208955 C72.6690143,2.95439405 72.2935343,2.89054726 71.8922056,2.89054726 C71.3692622,2.89054726 70.898012,2.99543842 70.4784411,3.20522388 C70.0588702,3.41500934 69.700112,3.71600136 69.4021559,4.10820896 C69.1041997,4.50041655 68.8746553,4.974707 68.7135158,5.53109453 C68.5523762,6.0874821 68.4718076,6.7122685 68.4718076,7.4054726 C68.4718076,8.1108382 68.5523762,8.7432255 68.7135158,9.3026534 C68.8746553,9.8620813 69.1026796,10.3378919 69.3975954,10.7300995 C69.6925111,11.1223071 70.0512693,11.4232991 70.4738806,11.6330846 C70.8964919,11.84287 71.3723025,11.9477612 71.9013267,11.9477612 C72.3087361,11.9477612 72.6857362,11.889995 73.0323383,11.774461 C73.3789404,11.658927 73.686013,11.4917092 73.9535655,11.2728027 C74.221118,11.0538961 74.4445817,10.789388 74.6239635,10.4792703 C74.8033453,10.1691527 74.9295187,9.8195155 75.0024876,9.4303483 L77.6840796,9.4303483 C77.60503,10.1661176 77.4104493,10.8289081 77.1003317,11.4187396 C76.790214,12.0085712 76.3843309,12.5117447 75.88267,12.9282753 C75.3810091,13.3448058 74.7927065,13.66556 74.1177446,13.8905473 C73.4427827,14.1155346 72.7009438,14.2280265 71.8922056,14.2280265 L71.8922056,14.2280265 L71.8922056,14.2280265 Z M79.380597,14 L79.380597,0.83830846 L82.1351575,0.83830846 L82.1351575,6.8399668 L82.2172471,6.8399668 L87.1608624,0.83830846 L90.225539,0.83830846 L85.3548922,6.6757877 L90.5630182,14 L87.2703151,14 L83.3665008,8.5 L82.1351575,9.9776119 L82.1351575,14 L79.380597,14 L79.380597,14 Z M91.4386401,16.4718076 L92.1956882,11.5373134 L94.694859,11.5373134 L93.4543947,16.4718076 L91.4386401,16.4718076 L91.4386401,16.4718076 Z M102.064677,0.83830846 C103.049756,0.83830846 103.93145,0.98272382 104.709784,1.27155887 C105.488119,1.56039393 106.146349,1.98299888 106.684494,2.5393864 C107.22264,3.09577393 107.633083,3.77832653 107.915837,4.58706468 C108.198592,5.39580283 108.339967,6.3231015 108.339967,7.3689884 C108.339967,8.4148753 108.198592,9.3482546 107.915837,10.1691542 C107.633083,10.9900539 107.22264,11.6847677 106.684494,12.2533167 C106.146349,12.8218658 105.488119,13.2551118 104.709784,13.553068 C103.93145,13.8510242 103.049756,14 102.064677,14 L96.9933665,14 L96.9933665,0.83830846 L102.064677,0.83830846 L102.064677,0.83830846 Z M99.747927,11.7197347 L101.736318,11.7197347 C102.976789,11.7197347 103.919289,11.3533757 104.563847,10.6206468 C105.208406,9.8879178 105.53068,8.8070829 105.53068,7.3781095 C105.53068,6.6909861 105.447071,6.0814012 105.279851,5.54933665 C105.11263,5.01727208 104.867884,4.57034454 104.545605,4.20854063 C104.223326,3.84673672 103.826564,3.57310762 103.355307,3.38764511 C102.88405,3.2021826 102.344392,3.10945274 101.736318,3.10945274 L99.747927,3.10945274 L99.747927,11.7197347 L99.747927,11.7197347 Z M112.864013,9.0746269 C112.864013,9.4941978 112.92482,9.8757584 113.046434,10.2193201 C113.168049,10.5628818 113.345908,10.856273 113.580017,11.0995025 C113.814125,11.342732 114.102956,11.5312321 114.446517,11.6650083 C114.790079,11.7987845 115.183801,11.8656716 115.627695,11.8656716 C116.065508,11.8656716 116.45619,11.7987845 116.799751,11.6650083 C117.143313,11.5312321 117.432144,11.342732 117.666252,11.0995025 C117.90036,10.856273 118.078219,10.5628818 118.199834,10.2193201 C118.321449,9.8757584 118.382255,9.4941978 118.382255,9.0746269 L118.382255,0.83830846 L121.136816,0.83830846 L121.136816,9.3482587 C121.136816,10.0718665 121.007602,10.7331369 120.749171,11.3320896 C120.490739,11.9310422 120.12286,12.4448569 119.645522,12.8735489 C119.168184,13.3022409 118.589003,13.6351564 117.90796,13.8723051 C117.226918,14.1094539 116.466837,14.2280265 115.627695,14.2280265 C114.782472,14.2280265 114.019351,14.1094539 113.338308,13.8723051 C112.657266,13.6351564 112.078084,13.3022409 111.600746,12.8735489 C111.123408,12.4448569 110.755529,11.9310422 110.497098,11.3320896 C110.238666,10.7331369 110.109453,10.0718665 110.109453,9.3482587 L110.109453,0.83830846 L112.864013,0.83830846 L112.864013,9.0746269 L112.864013,9.0746269 Z M128.397181,0.83830846 C129.38226,0.83830846 130.263954,0.98272382 131.042289,1.27155887 C131.820623,1.56039393 132.478853,1.98299888 133.016998,2.5393864 C133.555144,3.09577393 133.965587,3.77832653 134.248342,4.58706468 C134.531096,5.39580283 134.672471,6.3231015 134.672471,7.3689884 C134.672471,8.4148753 134.531096,9.3482546 134.248342,10.1691542 C133.965587,10.9900539 133.555144,11.6847677 133.016998,12.2533167 C132.478853,12.8218658 131.820623,13.2551118 131.042289,13.553068 C130.263954,13.8510242 129.38226,14 128.397181,14 L123.325871,14 L123.325871,0.83830846 L128.397181,0.83830846 L128.397181,0.83830846 Z M126.080431,11.7197347 L128.068823,11.7197347 C129.309293,11.7197347 130.251793,11.3533757 130.896352,10.6206468 C131.54091,9.8879178 131.863184,8.8070829 131.863184,7.3781095 C131.863184,6.6909861 131.779575,6.0814012 131.612355,5.54933665 C131.445135,5.01727208 131.200389,4.57034454 130.878109,4.20854063 C130.55583,3.84673672 130.159068,3.57310762 129.687811,3.38764511 C129.216554,3.2021826 128.676896,3.10945274 128.068823,3.10945274 L126.080431,3.10945274 L126.080431,11.7197347 L126.080431,11.7197347 Z M145.161692,14 L136.441957,14 L136.441957,0.83830846 L145.161692,0.83830846 L145.161692,3.10945274 L139.196517,3.10945274 L139.196517,6.2835821 L144.824212,6.2835821 L144.824212,8.3996683 L139.196517,8.3996683 L139.196517,11.7197347 L145.161692,11.7197347 L145.161692,14 L145.161692,14 Z M150.333333,0.83830846 L150.114428,9.6674959 L147.81592,9.6674959 L147.597015,0.83830846 L150.333333,0.83830846 L150.333333,0.83830846 Z M148.965174,14.2280265 C148.758429,14.2280265 148.563848,14.1915427 148.381426,14.1185738 C148.199004,14.0456049 148.040907,13.9437541 147.907131,13.8130182 C147.773355,13.6822824 147.668464,13.5302662 147.592454,13.3569652 C147.516445,13.1836641 147.478441,12.9966843 147.478441,12.7960199 C147.478441,12.5953555 147.516445,12.4083757 147.592454,12.2350746 C147.668464,12.0617736 147.773355,11.9097574 147.907131,11.7790216 C148.040907,11.6482857 148.199004,11.5464349 148.381426,11.473466 C148.563848,11.4004971 148.758429,11.3640133 148.965174,11.3640133 C149.171919,11.3640133 149.3665,11.4004971 149.548922,11.473466 C149.731344,11.5464349 149.889441,11.6482857 150.023217,11.7790216 C150.156993,11.9097574 150.261885,12.0617736 150.337894,12.2350746 C150.413903,12.4083757 150.451907,12.5953555 150.451907,12.7960199 C150.451907,12.9966843 150.413903,13.1836641 150.337894,13.3569652 C150.261885,13.5302662 150.156993,13.6822824 150.023217,13.8130182 C149.889441,13.9437541 149.731344,14.0456049 149.548922,14.1185738 C149.3665,14.1915427 149.171919,14.2280265 148.965174,14.2280265 L148.965174,14.2280265 L148.965174,14.2280265 Z" id="Shape"></path>
                                </g>
                            </g>
                        </g>
                    </g>
                </g>
            </g>
        </g>
    </g>
</svg>