<?xml version="1.0" encoding="UTF-8" standalone="no"?>
<svg width="299px" height="32px" viewBox="0 0 299 32" version="1.1" xmlns="http://www.w3.org/2000/svg" xmlns:xlink="http://www.w3.org/1999/xlink" xmlns:sketch="http://www.bohemiancoding.com/sketch/ns">
    <!-- Generator: Sketch 3.3 (11970) - http://www.bohemiancoding.com/sketch -->
    <title>Fill 1 + Fill 2</title>
    <desc>Created with Sketch.</desc>
    <defs></defs>
    <g id="Page-1" stroke="none" stroke-width="1" fill="none" fill-rule="evenodd" sketch:type="MSPage">
        <g id="Desktop-Copy" sketch:type="MSArtboardGroup" transform="translate(-164.000000, -133.000000)">
            <g id="Fill-1-+-Fill-2" sketch:type="MSLayerGroup" transform="translate(164.000000, 133.000000)">
                <path d="M25.3642701,13.7916483 C26.8570918,14.7903776 26.2530338,17.2909669 24.2781708,18.2927089 L3.5277991,28.8072349 C1.55444251,29.8059642 -0.31045478,28.557176 0.173092902,26.5551982 L5.24959038,5.52765268 C5.73163168,3.5256749 8.1990806,2.27538027 9.69190226,3.27712235 L25.3642701,13.7916483" id="Fill-1" fill="#FF1A36" sketch:type="MSShapeGroup"></path>
                <path d="M205.411216,0.651503625 L182.913445,0.651503625 C178.618758,0.651503625 169.547343,4.99288811 167.022652,15.451678 C165.924501,20.0009428 166.501445,23.729231 168.735405,26.5341089 C172.439591,31.1797819 179.570789,31.4162834 180.962684,31.4162834 C181.03499,31.4162834 181.095245,31.4147771 181.144956,31.4147771 L181.143449,31.4132707 L193.424958,31.4132707 C193.756361,31.4132707 194.042573,31.1873138 194.120905,30.8664551 L195.395302,25.5760518 C195.446519,25.3606396 195.398314,25.1392018 195.261234,24.9659682 C195.127166,24.7927346 194.920792,24.69482 194.700861,24.69482 L182.413327,24.6978328 C181.803243,24.6978328 176.380279,24.6164883 174.150838,21.8146232 C173.701937,21.2527438 173.343418,20.1681509 173.364508,19.4481017 L173.369027,19.3245786 L173.491044,19.3275914 C174.426505,19.3471743 182.853189,19.3592253 183.445196,19.3592253 C186.915894,19.3592253 188.863642,19.1166983 191.939668,17.6208639 C195.997853,15.6460009 199.518261,11.9448275 201.803438,9.10831574 C203.464974,7.04909555 205.082825,4.5620637 205.448876,3.88118036 C205.814926,3.2018034 206.022806,2.77097898 206.253282,2.16993373 C206.446099,1.67282864 206.45815,1.48302487 206.280397,1.16216613 C206.102644,0.842813767 205.777266,0.651503625 205.411216,0.651503625 L205.411216,0.651503625 Z M106.4632,0.770507572 C106.646979,1.00399633 106.711753,1.30225938 106.640953,1.58997779 L99.5564522,30.9432804 C99.4525121,31.3756112 99.0698918,31.6783934 98.6240036,31.6783934 L93.3381194,31.6783934 C93.0413628,31.6783934 92.7672018,31.5443257 92.5834235,31.3123433 C92.3996453,31.0788545 92.3333646,30.7805915 92.4041644,30.4913667 L99.4886652,1.13957044 C99.5941117,0.707239651 99.976732,0.404457457 100.42262,0.404457457 L105.708504,0.404457457 C106.005261,0.404457457 106.279422,0.538525194 106.4632,0.770507572 L106.4632,0.770507572 Z M253.237245,2.02230858 L235.80392,16.3630374 L245.604423,30.1012145 C245.999094,30.6570684 245.602916,31.4268281 244.922033,31.4268281 L237.704971,31.4268281 C237.433822,31.4268281 237.180751,31.2927603 237.022581,31.0743354 L229.959169,21.1623611 L217.734903,31.2340116 C217.585772,31.3575346 217.397474,31.4268281 217.203151,31.4268281 L209.040083,31.4268281 C208.25526,31.4268281 207.901261,30.4431626 208.505319,29.9430447 L225.917554,15.507414 L216.207435,1.86112602 C215.812764,1.30527214 216.208941,0.537018815 216.889825,0.537018815 L224.108393,0.537018815 C224.379541,0.537018815 224.632613,0.668073795 224.790783,0.889511518 L231.742722,10.6659117 L243.777185,0.729835337 C243.927823,0.604805874 244.11612,0.537018815 244.310443,0.537018815 L252.705493,0.537018815 C253.491823,0.537018815 253.844316,1.52219073 253.237245,2.02230858 L253.237245,2.02230858 Z M86.8712341,2.02230858 L69.4379091,16.3630374 L79.2369049,30.1012145 C79.6330826,30.6570684 79.2369049,31.4268281 78.5560216,31.4268281 L71.3374531,31.4268281 C71.0678112,31.4268281 70.8132332,31.2927603 70.6565697,31.0743354 L63.5916519,21.1623611 L62.475425,19.5987396 L50.7557958,19.5987396 L48.0699219,30.9387613 C47.9674881,31.3741048 47.5833615,31.6783934 47.1359669,31.6783934 L41.871172,31.6783934 C41.5759217,31.6783934 41.3002544,31.5443257 41.1164761,31.3108369 C40.9326979,31.0788545 40.8694299,30.7790851 40.9387234,30.4913667 L48.0217178,1.13957044 C48.1256579,0.707239651 48.5082782,0.404457457 48.9541664,0.404457457 L54.2325187,0.404457457 C54.527769,0.404457457 54.8034364,0.538525194 54.9872146,0.772013951 C55.1694865,1.00399633 55.2342608,1.30225938 55.1649673,1.58997779 L52.4625233,12.7974381 L63.6127412,12.7989445 L66.1796111,10.6659117 L78.2140735,0.729835337 C78.3632051,0.604805874 78.5515025,0.537018815 78.7473317,0.537018815 L86.3379759,0.537018815 C87.1243058,0.537018815 87.4783048,1.52219073 86.8712341,2.02230858 L86.8712341,2.02230858 Z M157.665025,1.55834383 L151.750981,26.3669008 C151.616913,26.9182355 151.491884,27.516268 151.211697,28.020905 C150.211461,30.01987 148.22756,31.5548703 145.821873,31.5548703 C143.975052,31.5548703 142.337618,30.6721322 141.295204,29.3103655 C141.289178,29.3073527 141.283153,29.3013272 141.283153,29.3013272 L141.117451,29.073864 C141.108413,29.0588002 141.096362,29.0452428 141.096362,29.0452428 L127.270814,9.69730996 L122.149126,30.9146592 C122.058743,31.2897476 121.72282,31.5548703 121.335681,31.5548703 L116.070886,31.5548703 C115.52859,31.5548703 115.127893,31.0532461 115.255935,30.5260134 C116.427898,25.6845111 121.338694,5.40262322 121.377859,5.27759376 C121.91865,2.37480128 124.13152,0.321606608 127.026781,0.321606608 C128.679279,0.321606608 130.161556,1.02960477 131.20397,2.15185718 C131.238617,2.18198476 131.708607,2.76796622 131.823092,2.94571895 L145.69383,22.2740688 L150.765809,1.16819165 C150.856192,0.793103258 151.19362,0.527980541 151.58076,0.527980541 L156.850074,0.527980541 C157.390864,0.527980541 157.790054,1.03261753 157.665025,1.55834383 L157.665025,1.55834383 Z M298.976939,1.57642038 L297.80347,6.46010133 C297.713087,6.83518972 297.375658,7.10031244 296.988519,7.10031244 L282.509203,7.0957933 L276.751823,30.9146592 C276.66144,31.2897476 276.325517,31.5548703 275.938378,31.5548703 L270.114716,31.5548703 C269.57242,31.5548703 269.173229,31.0472206 269.301272,30.5199879 L274.963751,7.0957933 L260.903208,7.0957933 C260.360912,7.0957933 259.961721,6.58964993 260.088257,6.06241726 L261.26022,1.1862682 C261.350603,0.809673427 261.688032,0.543044332 262.075171,0.543044332 L298.161988,0.543044332 C298.702778,0.543044332 299.101969,1.05069408 298.976939,1.57642038 L298.976939,1.57642038 Z M195.991828,6.8080749 C194.51407,8.40182396 191.776979,10.8014858 189.912082,11.708326 C187.259348,12.9992929 186.58449,13.035446 180.113086,13.035446 C179.468356,13.035446 178.798017,13.0384587 178.11864,13.0429779 C177.41968,13.0459906 176.714695,13.0490034 176.018748,13.0490034 C175.631608,13.0490034 175.247482,13.047497 174.870887,13.0459906 L174.670538,13.0429779 L174.762427,12.8652251 C176.211564,10.0693856 178.776928,8.30240294 180.726182,7.3835117 C182.524799,6.53391391 184.582513,6.66044975 185.414034,6.60170096 L196.183138,6.60170096 L195.991828,6.8080749 L195.991828,6.8080749 Z" id="Fill-2" fill="#FFFFFF" sketch:type="MSShapeGroup"></path>
            </g>
        </g>
    </g>
</svg>