<?xml version="1.0" standalone="no"?><!DOCTYPE svg PUBLIC "-//W3C//DTD SVG 1.1//EN" "http://www.w3.org/Graphics/SVG/1.1/DTD/svg11.dtd"><svg width="100%" height="100%" viewBox="0 0 194 219" version="1.1" xmlns="http://www.w3.org/2000/svg" xmlns:xlink="http://www.w3.org/1999/xlink" xml:space="preserve" style="fill-rule:evenodd;clip-rule:evenodd;stroke-linejoin:round;stroke-miterlimit:1.41421;"><g id="Layer1"><path d="M44.878,192.265l-26.786,-47.411l26.413,0l0,-87.016l0.055,-0.331l0.056,-0.329l0.059,-0.327l0.061,-0.325l0.062,-0.323l0.065,-0.321l0.066,-0.32l0.068,-0.317l0.07,-0.316l0.072,-0.313l0.074,-0.312l0.075,-0.31l0.078,-0.308l0.079,-0.306l0.081,-0.304l0.083,-0.302l0.085,-0.3l0.086,-0.299l0.089,-0.296l0.09,-0.295l0.092,-0.293l0.094,-0.291l0.095,-0.289l0.098,-0.288l0.099,-0.285l0.101,-0.284l0.103,-0.281l0.104,-0.28l0.107,-0.279l0.108,-0.276l0.11,-0.274l0.112,-0.273l0.113,-0.271l0.115,-0.269l0.117,-0.267l0.119,-0.266l0.12,-0.263l0.123,-0.262l0.124,-0.26l0.125,-0.259l0.128,-0.256l0.129,-0.255l0.131,-0.253l0.132,-0.251l0.134,-0.249l0.136,-0.248l0.138,-0.246l0.139,-0.244l0.142,-0.243l0.142,-0.241l0.145,-0.239l0.146,-0.237l0.148,-0.235l0.149,-0.234l0.151,-0.232l0.153,-0.231l0.154,-0.228l0.157,-0.227l0.157,-0.226l0.16,-0.223l0.161,-0.222l0.162,-0.22l0.165,-0.219l0.166,-0.217l0.167,-0.215l0.169,-0.213l0.171,-0.212l0.173,-0.21l0.174,-0.209l0.175,-0.207l0.177,-0.205l0.179,-0.204l0.181,-0.202l0.182,-0.2l0.183,-0.199l0.185,-0.197l0.187,-0.195l0.188,-0.194l0.19,-0.192l0.191,-0.191l0.193,-0.189l0.195,-0.187l0.196,-0.186l0.198,-0.184l0.199,-0.183l0.2,-0.181l0.203,-0.179l0.203,-0.178l0.205,-0.176l0.207,-0.175l0.209,-0.173l0.209,-0.172l0.212,-0.17l0.212,-0.168l0.215,-0.167l0.215,-0.166l0.218,-0.164l0.218,-0.162l0.221,-0.161l0.221,-0.159l0.223,-0.158l0.225,-0.156l0.226,-0.155l0.228,-0.153l0.229,-0.152l0.23,-0.15l0.232,-0.149l0.233,-0.148l0.235,-0.145l0.236,-0.145l0.238,-0.143l0.239,-0.141l0.24,-0.14l0.242,-0.138l0.243,-0.137l0.245,-0.136l0.246,-0.134l0.248,-0.133l0.248,-0.131l0.251,-0.129l0.251,-0.129l0.253,-0.127l0.255,-0.125l0.255,-0.124l0.258,-0.123l0.258,-0.121l0.26,-0.12l0.261,-0.118l0.263,-0.117l0.263,-0.116l0.266,-0.114l0.266,-0.113l0.268,-0.112l0.269,-0.11l0.271,-0.108l0.272,-0.108l0.273,-0.106l0.274,-0.104l0.276,-0.104l0.277,-0.102l0.279,-0.1l0.279,-0.099l0.281,-0.098l0.282,-0.097l0.284,-0.095l0.285,-0.094l0.286,-0.093l0.287,-0.091l0.289,-0.09l0.29,-0.089l0.291,-0.087l0.292,-0.086l0.294,-0.085l0.295,-0.083l0.296,-0.082l0.297,-0.081l0.299,-0.08l0.299,-0.078l0.301,-0.077l0.303,-0.076l0.303,-0.075l0.305,-0.073l0.305,-0.072l0.307,-0.071l0.309,-0.069l0.309,-0.069l0.311,-0.067l0.311,-0.066l0.313,-0.064l0.314,-0.064l0.316,-0.062l0.316,-0.061l0.318,-0.06l0.319,-0.058l0.319,-0.057l0.322,-0.057l0.322,-0.055l0.323,-0.053l0.325,-0.053l0.325,-0.051l0.327,-0.051l0.328,-0.049l0.329,-0.048l0.33,-0.046l0.331,-0.046l0.332,-0.044l0.334,-0.044l0.334,-0.042l0.336,-0.041l0.336,-0.04l0.338,-0.038l0.339,-0.038l0.34,-0.037l0.341,-0.035l0.342,-0.034l0.343,-0.033l0.344,-0.032l0.345,-0.031l0.346,-0.03l0.348,-0.029l0.348,-0.027l0.349,-0.027l0.351,-0.026l0.351,-0.024l0.353,-0.023l0.353,-0.023l0.354,-0.021l0.356,-0.02l0.356,-0.019l0.358,-0.018l0.358,-0.017l0.36,-0.016l0.36,-0.015l0.362,-0.014l0.362,-0.013l0.363,-0.012l0.365,-0.01l0.365,-0.01l0.366,-0.009l0.368,-0.008l0.368,-0.007l0.369,-0.005l0.37,-0.005l0.371,-0.004l0.372,-0.003l0.373,-0.002l0.374,-0.001l0.374,0.001l0.376,0.001l0.377,0.002l0.377,0.003l0.379,0.004l0.379,0.005l0.38,0.005l0.381,0.007l0.382,0.008l0.383,0.009l0.384,0.009l0.384,0.011l0.386,0.011l0.386,0.013l0.387,0.013l0.388,0.014l0.389,0.015l0.39,0.016l0.391,0.017l0.391,0.018l0.392,0.018l0.393,0.02l0.394,0.02l0.395,0.022l0.396,0.022l0.396,0.023l0.397,0.024l0.398,0.024l0.399,0.026l-0.34,0.192l-0.336,0.191l-0.333,0.191l-0.33,0.19l-0.327,0.19l-0.323,0.19l-0.319,0.19l-0.316,0.191l-0.313,0.191l-0.308,0.192l-0.153,0.097l-0.152,0.096l-0.152,0.097l-0.15,0.098l-0.149,0.098l-0.148,0.098l-0.147,0.098l-0.147,0.099l-0.145,0.1l-0.144,0.1l-0.144,0.1l-0.142,0.101l-0.142,0.102l-0.14,0.102l-0.139,0.103l-0.139,0.104l-0.137,0.104l-0.136,0.105l-0.135,0.106l-0.135,0.106l-0.133,0.107l-0.132,0.108l-0.131,0.109l-0.13,0.11l-0.129,0.111l-0.127,0.111l-0.127,0.113l-0.126,0.113l-0.124,0.115l-0.124,0.115l-0.122,0.117l-0.121,0.117l-0.12,0.119l-0.119,0.12l-0.118,0.121l-0.117,0.122l-0.115,0.123l-0.115,0.125l-0.113,0.126l-0.112,0.127l-0.111,0.128l-0.11,0.13l-0.108,0.131l-0.107,0.133l-0.107,0.134l-0.104,0.135l-0.104,0.137l-0.103,0.138l-0.101,0.14l-0.1,0.141l-0.099,0.143l-0.097,0.145l-0.097,0.146l-0.095,0.148l-0.094,0.149l-0.092,0.151l-0.092,0.153l-0.09,0.155l-0.088,0.156l-0.088,0.159l-0.086,0.16l-0.085,0.162l-0.083,0.163l-0.082,0.166l-0.081,0.168l-0.08,0.169l-0.078,0.172l-0.077,0.173l-0.076,0.176l-0.074,0.178l-0.073,0.18l-0.071,0.182l-0.07,0.184l-0.069,0.186l-0.068,0.188l-0.066,0.191l-0.064,0.193l-0.063,0.195l-0.062,0.197l-0.061,0.2l-0.059,0.202l-0.057,0.205l-0.056,0.207l-0.055,0.209l-0.053,0.212l-0.052,0.214l-0.05,0.217l-0.049,0.219l-0.048,0.222l-0.046,0.224l-0.044,0.227l-0.043,0.23l-0.042,0.233l-0.04,0.235l-0.038,0.237l-0.037,0.241l-0.035,0.243l-0.034,0.246l-0.033,0.249l-0.031,0.252l-0.029,0.255l-0.028,0.257l-0.026,0.26l-0.025,0.264l-0.023,0.266l-0.021,0.27l-0.02,0.272l-0.019,0.275l0,100.83l98.13,0l-148.66,47.411ZM50.527,177.868l65.891,-21.014l-33.01,0l0,-113.231l0.048,-0.713l0.026,-0.351l0.028,-0.349l0.03,-0.347l0.032,-0.347l0.035,-0.345l0.037,-0.343l0.039,-0.341l0.042,-0.34l0.044,-0.337l0.046,-0.336l0.049,-0.336l0.052,-0.336l0.053,-0.33l0.056,-0.33l0.06,-0.332l0.061,-0.327l0.064,-0.327l0.009,-0.044l-0.15,0.02l-0.284,0.039l-0.284,0.04l-0.283,0.042l-0.28,0.042l-0.279,0.042l-0.277,0.044l-0.277,0.045l-0.274,0.046l-0.273,0.046l-0.271,0.048l-0.269,0.048l-0.268,0.049l-0.267,0.051l-0.265,0.05l-0.263,0.052l-0.262,0.053l-0.26,0.054l-0.259,0.055l-0.257,0.055l-0.255,0.056l-0.253,0.058l-0.253,0.058l-0.25,0.059l-0.249,0.06l-0.247,0.06l-0.246,0.062l-0.243,0.062l-0.242,0.064l-0.241,0.064l-0.238,0.064l-0.238,0.067l-0.235,0.066l-0.233,0.068l-0.233,0.068l-0.23,0.069l-0.229,0.07l-0.227,0.071l-0.225,0.071l-0.223,0.073l-0.222,0.073l-0.221,0.074l-0.218,0.075l-0.217,0.075l-0.215,0.077l-0.214,0.077l-0.211,0.078l-0.21,0.078l-0.208,0.079l-0.207,0.081l-0.205,0.08l-0.203,0.082l-0.202,0.083l-0.199,0.083l-0.198,0.084l-0.197,0.084l-0.194,0.085l-0.194,0.087l-0.191,0.086l-0.189,0.088l-0.189,0.088l-0.186,0.089l-0.184,0.089l-0.183,0.09l-0.182,0.092l-0.179,0.091l-0.178,0.092l-0.177,0.094l-0.175,0.094l-0.172,0.093l-0.172,0.095l-0.17,0.096l-0.168,0.096l-0.167,0.097l-0.165,0.098l-0.164,0.099l-0.162,0.099l-0.16,0.099l-0.158,0.1l-0.159,0.101l-0.156,0.102l-0.153,0.102l-0.153,0.103l-0.151,0.104l-0.151,0.104l-0.148,0.105l-0.147,0.106l-0.145,0.106l-0.144,0.107l-0.143,0.107l-0.141,0.109l-0.141,0.109l-0.138,0.11l-0.137,0.11l-0.135,0.111l-0.136,0.112l-0.133,0.113l-0.131,0.113l-0.131,0.114l-0.13,0.115l-0.127,0.115l-0.127,0.116l-0.126,0.118l-0.125,0.118l-0.124,0.119l-0.121,0.119l-0.121,0.12l-0.12,0.122l-0.119,0.123l-0.118,0.123l-0.116,0.124l-0.115,0.125l-0.114,0.125l-0.114,0.127l-0.112,0.128l-0.111,0.128l-0.11,0.13l-0.11,0.131l-0.108,0.132l-0.107,0.133l-0.106,0.134l-0.105,0.135l-0.105,0.136l-0.103,0.137l-0.102,0.139l-0.102,0.141l-0.1,0.14l-0.099,0.141l-0.099,0.145l-0.098,0.145l-0.097,0.145l-0.096,0.148l-0.096,0.15l-0.094,0.15l-0.093,0.151l-0.092,0.153l-0.092,0.155l-0.091,0.156l-0.09,0.157l-0.088,0.159l-0.089,0.161l-0.088,0.162l-0.087,0.165l-0.085,0.166l-0.085,0.167l-0.083,0.168l-0.083,0.171l-0.083,0.173l-0.08,0.172l-0.081,0.177l-0.08,0.178l-0.078,0.18l-0.078,0.182l-0.077,0.182l-0.076,0.186l-0.075,0.187l-0.073,0.189l-0.074,0.192l-0.072,0.193l-0.071,0.194l-0.071,0.198l-0.069,0.2l-0.068,0.2l-0.067,0.203l-0.066,0.206l-0.066,0.209l-0.064,0.209l-0.063,0.211l-0.062,0.215l-0.061,0.216l-0.06,0.218l-0.059,0.222l-0.058,0.223l-0.057,0.225l-0.055,0.228l-0.055,0.23l-0.053,0.232l-0.052,0.234l-0.051,0.237l-0.049,0.239l-0.049,0.243l-0.047,0.244l-0.02,0.109l0,97.979l-17.851,0l11.873,21.014Z" style="fill:#000;"/><path d="M138.825,165.898l0,31.139c0,11.494 -9.332,20.826 -20.826,20.826l-95.991,0c-11.494,0 -20.826,-9.332 -20.826,-20.826l0,-174.889c0,-11.495 9.332,-20.827 20.826,-20.827l95.991,0c11.494,0 20.826,9.332 20.826,20.827l0,119.327l-12.127,0l0,-118.873c0,-5.404 -4.388,-9.791 -9.792,-9.791l-93.805,0c-5.404,0 -9.792,4.387 -9.792,9.791l0,173.98c0,5.404 4.388,9.792 9.792,9.792l93.805,0c5.404,0 9.792,-4.388 9.792,-9.792l0,-26.456l12.127,-4.228Z" style="fill:#000;"/></g></svg>