<?xml version="1.0" encoding="UTF-8" standalone="no"?>
<svg width="19px" height="11px" viewBox="0 0 19 11" version="1.1" xmlns="http://www.w3.org/2000/svg" xmlns:xlink="http://www.w3.org/1999/xlink" xmlns:sketch="http://www.bohemiancoding.com/sketch/ns">
    <!-- Generator: Sketch 3.3.2 (12043) - http://www.bohemiancoding.com/sketch -->
    <title>vk copy 2</title>
    <desc>Created with Sketch.</desc>
    <defs></defs>
    <g id="Page-1" stroke="none" stroke-width="1" fill="none" fill-rule="evenodd" sketch:type="MSPage">
        <g id="Index" sketch:type="MSArtboardGroup" transform="translate(-793.000000, -2807.000000)" fill="#828282">
            <g id="Group-Copy-6" sketch:type="MSLayerGroup" transform="translate(793.000000, 2803.000000)">
                <g id="vk-copy-2" transform="translate(0.000000, 4.000000)" sketch:type="MSShapeGroup">
                    <path d="M10.5280273,10.7682051 C10.5280273,10.7682051 10.8561692,10.7324159 11.0242418,10.5552156 C11.1780861,10.3928548 11.1727505,10.0864642 11.1727505,10.0864642 C11.1727505,10.0864642 11.1522972,8.65576842 11.8290343,8.44452475 C12.4959893,8.23677272 13.3523596,9.82808349 14.2611971,10.4399918 C14.9477161,10.9026329 15.4688303,10.8013756 15.4688303,10.8013756 L17.897436,10.7682051 C17.897436,10.7682051 19.1673184,10.6913892 18.5652803,9.71111386 C18.515481,9.63080635 18.2140173,8.98572754 16.7600553,7.66065362 C15.23673,6.27360325 15.4412629,6.49794053 17.2749446,4.0983172 C18.391872,2.63706967 18.8382873,1.74495798 18.6986714,1.3634973 C18.5661696,0.998621876 17.744481,1.09551463 17.744481,1.09551463 L15.0108545,1.11209988 C15.0108545,1.11209988 14.8081002,1.08503974 14.657813,1.17320342 C14.5110829,1.25962128 14.4159306,1.46126297 14.4159306,1.46126297 C14.4159306,1.46126297 13.9837437,2.59167847 13.4066053,3.55362278 C12.18919,5.58226033 11.7027575,5.68962798 11.5035602,5.56392927 C11.0402488,5.26975936 11.1558543,4.38375803 11.1558543,3.75439156 C11.1558543,1.78773046 11.4599858,0.968070105 10.5644875,0.755953529 C10.2674702,0.685248003 10.0487089,0.638983894 9.28838016,0.631127724 C8.31284723,0.621525739 7.48760151,0.634619355 7.01984369,0.85895664 C6.708598,1.00822386 6.46849418,1.34167461 6.61522429,1.36087858 C6.79574679,1.38444709 7.20481256,1.46911914 7.42179527,1.7589245 C7.7019164,2.13340192 7.69213439,2.97313915 7.69213439,2.97313915 C7.69213439,2.97313915 7.85309288,5.28809043 7.31597174,5.57527707 C6.94781255,5.77255421 6.44270525,5.37014375 5.35690242,3.52918136 C4.80110654,2.58644102 4.38136949,1.5441892 4.38136949,1.5441892 C4.38136949,1.5441892 4.30044561,1.34953078 4.15549405,1.24478185 C3.98030719,1.11821023 3.735757,1.07892939 3.735757,1.07892939 L1.13818937,1.09551463 C1.13818937,1.09551463 0.747798349,1.10598953 0.60462533,1.2727149 C0.477459233,1.42023631 0.594843322,1.72662692 0.594843322,1.72662692 C0.594843322,1.72662692 2.62861161,6.39755614 4.93182973,8.75178827 C7.04385407,10.9096162 9.44133518,10.7682051 9.44133518,10.7682051 L10.5280273,10.7682051 Z" id="Shape"></path>
                </g>
            </g>
        </g>
    </g>
</svg>