<?xml version="1.0" encoding="UTF-8" standalone="no"?>
<svg width="16px" height="19px" viewBox="0 0 16 19" version="1.1" xmlns="http://www.w3.org/2000/svg" xmlns:xlink="http://www.w3.org/1999/xlink" xmlns:sketch="http://www.bohemiancoding.com/sketch/ns">
    <!-- Generator: Sketch 3.3.2 (12043) - http://www.bohemiancoding.com/sketch -->
    <title>Shape</title>
    <desc>Created with Sketch.</desc>
    <defs></defs>
    <g id="Page-1" stroke="none" stroke-width="1" fill="none" fill-rule="evenodd" sketch:type="MSPage">
        <g id="Index" sketch:type="MSArtboardGroup" transform="translate(-937.000000, -2803.000000)" fill="#828282">
            <g id="Group-Copy-6" sketch:type="MSLayerGroup" transform="translate(793.000000, 2803.000000)">
                <g id="youtube-copy-2" transform="translate(144.000000, 0.000000)" sketch:type="MSShapeGroup">
                    <path d="M3.58219015,13.3761334 L3.59427345,10.4297807 L4.14492681,10.4240069 L4.69500478,10.4170784 L4.68867543,9.96326036 L4.68177068,9.50886499 L3.09252869,9.50251384 L1.5044375,9.4961627 L1.5044375,9.95690922 L1.5044375,10.4170784 L2.04185676,10.4240069 L2.57927603,10.4297807 L2.58560538,13.3518836 C2.58848236,14.9587226 2.59653789,16.2878436 2.60286724,16.3045875 C2.61149817,16.3282599 2.72312487,16.3340337 3.0919533,16.3288373 L3.57010684,16.3224862 L3.58219015,13.3761334 Z M12.7488137,13.1688552 C12.7263732,13.1099628 12.7574446,12.4292358 12.7873651,12.3305044 C12.856988,12.098399 13.0048646,11.9852332 13.2378997,11.9852332 C13.431808,11.9852332 13.5549426,12.0602921 13.6377995,12.2288861 C13.6901605,12.3357008 13.695339,12.3813135 13.7033946,12.7762391 L13.7114501,13.2063847 L13.2367489,13.2063847 C12.8287936,13.2063847 12.760897,13.2011883 12.7488137,13.1688552 L12.7488137,13.1688552 Z M13.6349225,16.3432717 C14.099842,16.2122072 14.421488,15.8934953 14.5428964,15.443719 C14.5630352,15.3669279 14.5866264,15.1481022 14.594682,14.9581453 L14.6084915,14.6128741 L14.1608339,14.6128741 L13.7126009,14.6128741 L13.7016684,14.9223479 C13.6890097,15.2739703 13.6527598,15.394642 13.525022,15.5072304 C13.3892287,15.6267474 13.1395071,15.635408 12.9772456,15.5257065 C12.7839128,15.394642 12.736155,15.1735067 12.7459367,14.4552503 L12.7528414,13.9460041 L13.6798034,13.9402303 L14.6067653,13.9333018 L14.594682,13.1757837 C14.5797217,12.3305044 14.5624598,12.2023268 14.4209126,11.902091 C14.1510522,11.333375 13.4036136,11.0464189 12.782762,11.2733279 C12.3143902,11.4448087 12.037625,11.7537052 11.9265737,12.231773 C11.8874468,12.400367 11.8828436,12.5516396 11.8828436,13.7883803 C11.8828436,15.3051486 11.8880222,15.3669279 12.0422282,15.6775565 C12.3178425,16.2301059 13.0077416,16.5187942 13.6349225,16.3432717 L13.6349225,16.3432717 Z M9.9644755,15.4795163 C10.0214396,15.4408321 10.0588403,15.3871361 10.0881855,15.3034165 C10.1255862,15.1931375 10.1290386,15.052835 10.12386,13.7520056 C10.1186815,12.3963253 10.1158045,12.3166474 10.0720744,12.2277314 C9.95987234,12.0008224 9.67735321,11.978882 9.4184253,12.1774996 L9.33326679,12.2421658 L9.33326679,13.7883803 L9.33326679,15.3345948 L9.41784991,15.399261 C9.60945656,15.5459146 9.81947587,15.5765156 9.9644755,15.4795163 L9.9644755,15.4795163 Z M10.525486,16.3525097 C10.6664578,16.311516 10.8367749,16.1434994 10.9133025,15.9720186 C11.0606037,15.6434913 11.0611791,15.635408 11.0611791,13.7883803 C11.0611791,12.2721894 11.0565759,12.0851193 11.0191752,11.9211444 C10.8977668,11.3963091 10.6330849,11.1670906 10.1877289,11.2005784 C9.93858271,11.2202092 9.74237289,11.319518 9.50703619,11.5475817 C9.40461581,11.6463131 9.31312795,11.7277232 9.30277083,11.7277232 C9.29356451,11.7277232 9.28493358,11.2254056 9.28493358,10.6122317 L9.28493358,9.49674008 L8.84993468,9.49674008 L8.41493579,9.49674008 L8.41493579,12.9153869 L8.41493579,16.3346111 L8.84993468,16.3346111 L9.28493358,16.3346111 L9.28493358,16.1042378 C9.28493358,15.951233 9.2941399,15.8738645 9.31197716,15.8738645 C9.32636204,15.8738645 9.42417926,15.9546973 9.52947661,16.054006 C9.86780908,16.3732953 10.1606853,16.4610565 10.525486,16.3525097 L10.525486,16.3525097 Z M5.8952795,16.3299921 C6.0690489,16.2653259 6.27331425,16.1232912 6.44535747,15.9477687 C6.52418663,15.866936 6.6030158,15.8011151 6.62027766,15.8011151 C6.64329347,15.8011151 6.65134901,15.866936 6.65134901,16.0678631 L6.65134901,16.3346111 L7.0863479,16.3346111 L7.52134679,16.3346111 L7.52134679,13.8005052 L7.52134679,11.2669767 L7.0863479,11.2669767 L6.65134901,11.2669767 L6.65134901,13.2213965 L6.65134901,15.1763936 L6.46377012,15.3628863 C6.31531812,15.511272 6.25317542,15.5563074 6.16111216,15.581712 C6.00575541,15.6250152 5.90678741,15.5949916 5.84291852,15.4847127 C5.79458531,15.4027252 5.79343452,15.3646184 5.78652978,13.3339849 L5.78020043,11.2669767 L5.34520154,11.2669767 L4.91135343,11.2669767 L4.91135343,13.4615851 C4.91135343,15.8525016 4.91365501,15.9044655 5.04714674,16.1348388 C5.19329716,16.386575 5.53508201,16.4656756 5.8952795,16.3299921 L5.8952795,16.3299921 Z M6.26468332,18.4443451 C5.69964508,18.4345297 5.03103567,18.4189406 4.7784371,18.4097025 C3.08274697,18.3485006 1.91872216,18.2832571 1.68626243,18.2359122 C1.3548347,18.1689365 0.984280089,17.9437596 0.769082224,17.6787438 C0.424995797,17.254372 0.240869281,16.7393521 0.151683,15.946614 C-0.0548839345,14.1036279 -0.0502807716,11.9540549 0.164341698,10.175735 C0.258706538,9.39627655 0.49289245,8.83333437 0.885887482,8.44071829 C1.11029167,8.2161188 1.32606493,8.09140545 1.61318722,8.01750125 C2.235765,7.85756793 7.10706213,7.73054508 10.0703482,7.79636601 C11.7821494,7.83447287 13.6314701,7.91415084 14.1228578,7.97015637 C14.7586697,8.04290582 15.2051765,8.37316523 15.5141638,8.99961883 C15.7477743,9.47249026 15.8220003,9.84085653 15.9169405,10.9759789 C15.9911665,11.8743769 16.0095792,12.4344322 15.9957697,13.4719779 C15.980234,14.7133376 15.9014048,15.8068889 15.7834488,16.4206402 C15.6591634,17.0696115 15.3657118,17.6227382 14.9853754,17.9223967 C14.6924992,18.1539247 14.3800595,18.2572751 13.8880965,18.2849892 C13.7419461,18.2936498 13.5572441,18.3051974 13.4772642,18.3115485 C13.1941697,18.3334888 11.6762767,18.3946907 10.8436796,18.4183632 C9.60657959,18.4530058 7.44194223,18.4651307 6.26468332,18.4443451 Z M4.73809448,7.18242037 C4.71738025,7.14835515 4.72083262,5.15351903 4.74154685,4.87118187 C4.76859043,4.50916675 4.70759853,4.22394271 4.44867061,3.49529345 C4.36466289,3.25914643 4.21275851,2.80070941 4.11148893,2.47737852 C3.37901064,0.139580695 3.41756212,0.276418948 3.48776036,0.275841571 C3.97051707,0.271799935 4.56605127,0.274686818 4.57295601,0.281615337 C4.57755917,0.28623435 4.73406671,0.856682423 4.92107021,1.55011171 C5.10864909,2.24296362 5.26458124,2.81976284 5.268609,2.83246512 C5.27206138,2.84401266 5.38196189,2.44042642 5.51257664,1.9352219 C5.78588943,0.875158474 5.93952,0.290275986 5.94527395,0.285079596 C5.95735725,0.273532065 6.09315056,0.271222558 6.53793117,0.273532065 L7.02989421,0.276418948 L7.01896169,0.355519541 C7.01033076,0.419608343 6.67429987,1.55126646 6.32273331,2.70082326 C6.28475721,2.82784611 6.18636461,3.15521864 6.10523386,3.42889514 C6.02410311,3.70199427 5.9262859,4.02647992 5.88715902,4.15003851 L5.81638539,4.37521538 L5.81638539,5.77939525 C5.81638539,7.09639126 5.81350841,7.18472988 5.77438153,7.19512266 C5.68577064,7.21937247 4.75363015,7.20782494 4.73809448,7.18242037 Z M11.0962132,7.26671736 C10.8533964,7.23438427 10.7112737,7.14027188 10.6140319,6.94685072 C10.4920481,6.70435255 10.4920481,6.70550731 10.4920481,4.28918627 L10.4920481,2.03453067 L10.9822849,2.03453067 L11.4719464,2.03453067 L11.4823035,4.11308641 C11.493236,6.37062888 11.4903591,6.31808761 11.6250016,6.35215283 C11.7487116,6.38275379 11.8856557,6.31635548 12.0559727,6.14198775 L12.219385,5.97512592 L12.2257143,4.00453961 L12.2314683,2.03453067 L12.7211297,2.02760215 L13.2107912,2.02182839 L13.2107912,4.60212438 L13.2107912,7.18299775 L13.1440453,7.19685479 C13.0640654,7.21359871 12.3218053,7.21244396 12.2619642,7.19512266 C12.2257143,7.18530726 12.2199604,7.15181941 12.2199604,6.94973761 L12.2199604,6.71532271 L12.0807147,6.85158359 C11.7607949,7.16394432 11.4155577,7.30944322 11.0962132,7.26671736 L11.0962132,7.26671736 Z M8.62891792,6.28113551 C8.79693336,6.15295791 8.79808415,6.14198775 8.80671508,4.69104038 C8.81419522,3.56342389 8.81016746,3.37173486 8.77621913,3.21815269 C8.7301875,3.01029711 8.64963215,2.91214309 8.49197382,2.86883985 C8.28828386,2.81456645 8.10185577,2.93119652 8.03626069,3.15464126 C7.98677669,3.32669949 7.98735209,5.88447779 8.03741148,6.05653602 C8.07538758,6.18586837 8.196796,6.32732564 8.28655768,6.34695644 C8.40336293,6.37178364 8.54663638,6.34406956 8.62949331,6.28113551 L8.62891792,6.28113551 Z M8.24512921,7.2655626 C7.80667794,7.21244396 7.40390119,6.95377924 7.20999295,6.60042477 C7.01263235,6.24071915 6.99421969,6.05249438 7.0057276,4.46817301 C7.01493393,3.24124775 7.0183863,3.16445666 7.06671951,2.9883568 C7.18237398,2.56975877 7.40620277,2.28453474 7.75316618,2.11189914 C8.22959354,1.87575211 8.74342159,1.90635307 9.19280537,2.19850562 C9.47935226,2.38384351 9.65312166,2.652901 9.74633571,3.05302298 C9.78718878,3.22970022 9.79121655,3.36538372 9.79121655,4.60443389 C9.79121655,6.11138679 9.7843118,6.19857066 9.63010585,6.52478843 C9.48222924,6.83945868 9.14734914,7.11659944 8.79808415,7.21417609 C8.6438782,7.25632458 8.37631935,7.28172915 8.24512921,7.2655626 L8.24512921,7.2655626 Z" id="Shape"></path>
                </g>
            </g>
        </g>
    </g>
</svg>